<svg width="121" height="122" viewBox="0 0 121 122" fill="none" xmlns="http://www.w3.org/2000/svg">
<g filter="url(#filter0_d_405_670)">
<rect x="13" y="9.61719" width="94.6406" height="94.6406" rx="47.3203" fill="white"/>
<rect x="13.5" y="10.1172" width="93.6406" height="93.6406" rx="46.8203" stroke="url(#paint0_linear_405_670)"/>
</g>
<path fill-rule="evenodd" clip-rule="evenodd" d="M71.6173 38.046C71.455 38.076 70.556 38.3069 69.6196 38.5591C67.6487 39.0897 63.8784 40.1012 56.8394 41.9878C54.0926 42.7239 51.733 43.3623 51.5956 43.4063C51.4583 43.4503 51.1784 43.5641 50.9737 43.6592C49.4402 44.3719 48.2878 45.6754 47.8589 47.1823L47.7627 47.5206L47.7487 56.6643C47.741 61.6933 47.7274 65.808 47.7186 65.808C47.7097 65.808 47.5833 65.7618 47.4377 65.7053C46.7589 65.4421 45.9105 65.3199 44.7855 65.3231C43.5267 65.3267 42.5708 65.4637 41.3434 65.8164C38.8653 66.5285 36.7135 68.0639 35.6937 69.8475C34.6153 71.7337 34.8037 73.714 36.1925 75.0924C37.2336 76.1256 38.8392 76.7829 40.7432 76.9555C41.3765 77.0129 42.7105 76.9806 43.3554 76.8923C46.1601 76.5083 48.5796 75.2299 49.9851 73.3895C50.522 72.6865 50.8398 72.0378 51.0576 71.2007L51.1611 70.8027L51.1854 62.6639C51.2078 55.1475 51.2156 54.5123 51.2864 54.3579C51.5356 53.8141 52.14 53.3036 52.8914 53.002C53.0152 52.9523 56.3037 52.0362 60.199 50.9663C64.0944 49.8963 67.9761 48.8279 68.8251 48.5919C70.348 48.1686 70.3749 48.1628 70.8228 48.1601C71.2048 48.1578 71.3055 48.1709 71.4584 48.243C71.6865 48.3506 71.8174 48.4728 71.9215 48.6753C71.9988 48.8255 72.0038 49.1677 72.0153 55.1068L72.0275 61.3796L71.6521 61.2478C70.7631 60.9357 69.7853 60.7934 68.53 60.7934C66.7332 60.7934 65.231 61.1017 63.6498 61.7951C60.578 63.1421 58.6675 65.6611 58.9465 67.9967C59.2122 70.2218 61.1604 71.8034 64.2507 72.3031C64.706 72.3767 64.948 72.3893 65.8968 72.3887C66.8949 72.3882 67.0767 72.3774 67.6674 72.2843C71.576 71.6683 74.614 69.4285 75.3471 66.6225L75.4507 66.2258L75.4651 53.55C75.4748 45.0444 75.4641 40.7383 75.4327 40.4611C75.2986 39.2777 74.5595 38.4363 73.3652 38.1073C72.9603 37.9958 72.059 37.9641 71.6173 38.046Z" fill="url(#paint1_linear_405_670)"/>
<defs>
<filter id="filter0_d_405_670" x="0" y="0.617188" width="120.641" height="120.641" filterUnits="userSpaceOnUse" color-interpolation-filters="sRGB">
<feFlood flood-opacity="0" result="BackgroundImageFix"/>
<feColorMatrix in="SourceAlpha" type="matrix" values="0 0 0 0 0 0 0 0 0 0 0 0 0 0 0 0 0 0 127 0" result="hardAlpha"/>
<feOffset dy="4"/>
<feGaussianBlur stdDeviation="6.5"/>
<feComposite in2="hardAlpha" operator="out"/>
<feColorMatrix type="matrix" values="0 0 0 0 0 0 0 0 0 0 0 0 0 0 0 0 0 0 0.1 0"/>
<feBlend mode="normal" in2="BackgroundImageFix" result="effect1_dropShadow_405_670"/>
<feBlend mode="normal" in="SourceGraphic" in2="effect1_dropShadow_405_670" result="shape"/>
</filter>
<linearGradient id="paint0_linear_405_670" x1="116.29" y1="-21.5645" x2="-17.0769" y2="19.7062" gradientUnits="userSpaceOnUse">
<stop stop-color="#FF0000"/>
<stop offset="1" stop-color="#FFD466"/>
</linearGradient>
<linearGradient id="paint1_linear_405_670" x1="79.1669" y1="25.1557" x2="22.5232" y2="43.3516" gradientUnits="userSpaceOnUse">
<stop stop-color="#FF0000"/>
<stop offset="1" stop-color="#FFD466"/>
</linearGradient>
</defs>
</svg>
