<svg width="27" height="31" viewBox="0 0 27 31" fill="none" xmlns="http://www.w3.org/2000/svg">
<path d="M16.625 11.9947V22.8947M10.375 11.9947L10.375 22.8947M1 5.76614H26M22.875 5.76614V24.1404C22.875 25.8845 22.8753 26.7567 22.5347 27.4229C22.2351 28.0089 21.7564 28.4852 21.1684 28.7837C20.4999 29.1232 19.6255 29.1232 17.8753 29.1232H9.12531C7.37514 29.1232 6.49941 29.1232 5.83093 28.7837C5.24293 28.4852 4.76521 28.0089 4.4656 27.4229C4.125 26.7567 4.125 25.8845 4.125 24.1404V5.76614H22.875ZM19.75 5.76614H7.25C7.25 4.31507 7.25 3.58951 7.48788 3.0172C7.80504 2.25411 8.413 1.64787 9.17871 1.33179C9.753 1.09473 10.4814 1.09473 11.9375 1.09473H15.0625C16.5186 1.09473 17.2466 1.09473 17.8209 1.33179C18.5866 1.64787 19.1948 2.25411 19.512 3.0172C19.7498 3.58951 19.75 4.31507 19.75 5.76614Z" stroke="black" stroke-width="2" stroke-linecap="round" stroke-linejoin="round"/>
</svg>
