<svg width="36" height="37" viewBox="0 0 36 37" fill="none" xmlns="http://www.w3.org/2000/svg">
<path d="M23.25 23.8958C24.495 23.8958 25.5 22.8629 25.5 21.5833C25.5 20.3037 24.495 19.2708 23.25 19.2708C22.005 19.2708 21 20.3037 21 21.5833C21 22.8629 22.005 23.8958 23.25 23.8958ZM10.5 4.625H25.5C26.2956 4.625 27.0587 4.94985 27.6213 5.52809C28.1839 6.10632 28.5 6.89058 28.5 7.70833V10.7917C29.2956 10.7917 30.0587 11.1165 30.6213 11.6948C31.1839 12.273 31.5 13.0572 31.5 13.875V29.2917C31.5 31.0029 30.165 32.375 28.5 32.375H10.5C7.185 32.375 4.5 29.6154 4.5 26.2083V10.7917C4.5 7.38458 7.185 4.625 10.5 4.625ZM25.5 10.7917V7.70833H10.5C8.85 7.70833 7.5 9.09583 7.5 10.7917V11.6242C8.41124 11.08 9.44613 10.7929 10.5 10.7917H25.5ZM7.5 26.2083C7.5 27.0261 7.81607 27.8103 8.37868 28.3886C8.94129 28.9668 9.70435 29.2917 10.5 29.2917H28.5V13.875H10.5C8.85 13.875 7.5 15.2625 7.5 16.9583V26.2083Z" fill="black"/>
</svg>
