<svg width="24" height="24" viewBox="0 0 24 24" fill="none" xmlns="http://www.w3.org/2000/svg">
<path fill-rule="evenodd" clip-rule="evenodd" d="M12.0001 0C7.94841 0 4.66387 3.11046 4.66387 6.94737C4.66387 9.33406 5.93474 11.4397 7.87061 12.6904C3.38269 14.2472 0.14991 18.269 0.000451507 23.0244C-0.0159853 23.5474 0.418392 23.984 0.97066 23.9996C1.52293 24.0151 1.98395 23.6038 2.00039 23.0808C2.16064 17.982 6.57646 13.8947 12 13.8947C17.4235 13.8947 21.8394 17.982 21.9996 23.0808C22.016 23.6038 22.4771 24.0151 23.0293 23.9996C23.5816 23.984 24.016 23.5474 23.9995 23.0244C23.8501 18.269 20.6174 14.2473 16.1295 12.6905C18.0655 11.4397 19.3364 9.33409 19.3364 6.94737C19.3364 3.11046 16.0518 0 12.0001 0ZM6.66469 6.94737C6.66469 4.15686 9.05346 1.89474 12.0001 1.89474C14.9468 1.89474 17.3356 4.15686 17.3356 6.94737C17.3356 9.73787 14.9468 12 12.0001 12C9.05346 12 6.66469 9.73787 6.66469 6.94737Z" fill="black"/>
</svg>
