<svg width="119" height="20" viewBox="0 0 119 20" fill="none" xmlns="http://www.w3.org/2000/svg">
<path d="M10.8872 0.566406L14.2923 5.56956L20.5532 6.98197L16.3968 11.4865L16.8611 17.3626L10.8872 15.1434L4.91332 17.3626L5.37761 11.4865L1.22125 6.98197L7.48209 5.56956L10.8872 0.566406Z" fill="#FF8A00"/>
<path d="M35.2108 0.566406L38.6159 5.56956L44.8768 6.98197L40.7204 11.4865L41.1847 17.3626L35.2108 15.1434L29.2369 17.3626L29.7012 11.4865L25.5449 6.98197L31.8057 5.56956L35.2108 0.566406Z" fill="#FF8A00"/>
<path d="M59.5344 0.566406L62.9395 5.56956L69.2004 6.98197L65.044 11.4865L65.5083 17.3626L59.5344 15.1434L53.5605 17.3626L54.0248 11.4865L49.8685 6.98197L56.1293 5.56956L59.5344 0.566406Z" fill="#FF8A00"/>
<path d="M83.858 2.22875L86.8498 6.62456L86.9608 6.78758L87.1531 6.83098L92.5694 8.05287L89.0002 11.9211L88.852 12.0817L88.8692 12.2996L89.2718 17.3948L84.0321 15.4483L83.858 15.3837L83.6839 15.4483L78.4443 17.3948L78.8469 12.2996L78.8641 12.0817L78.7159 11.9211L75.1466 8.05287L80.5629 6.83098L80.7553 6.78758L80.8663 6.62456L83.858 2.22875Z" stroke="white"/>
<path d="M108.182 2.22875L111.173 6.62456L111.284 6.78758L111.477 6.83098L116.893 8.05287L113.324 11.9211L113.176 12.0817L113.193 12.2996L113.595 17.3948L108.356 15.4483L108.182 15.3837L108.008 15.4483L102.768 17.3948L103.17 12.2996L103.188 12.0817L103.04 11.9211L99.4703 8.05287L104.887 6.83098L105.079 6.78758L105.19 6.62456L108.182 2.22875Z" stroke="white"/>
</svg>
