<svg width="23" height="18" viewBox="0 0 23 18" fill="none" xmlns="http://www.w3.org/2000/svg">
<path id="Vector" d="M10.1448 16.1572L10.1436 16.1563C7.33363 13.9203 5.06572 12.1117 3.49167 10.4219C1.9212 8.73593 1.1499 7.27998 1.1499 5.76571C1.1499 3.32792 3.34379 1.2793 6.3674 1.2793C8.06257 1.2793 9.6784 1.97552 10.7137 3.03404L11.2499 3.58222L11.7861 3.03404C12.8214 1.97552 14.4372 1.2793 16.1324 1.2793C19.156 1.2793 21.3499 3.32792 21.3499 5.76571C21.3499 7.27998 20.5786 8.73593 19.0081 10.4219C17.4341 12.1117 15.1662 13.9203 12.3562 16.1563L12.3551 16.1572L11.2499 17.04L10.1448 16.1572Z" stroke="black" stroke-width="1.5"/>
</svg>
