<svg width="62" height="61" viewBox="0 0 62 61" fill="none" xmlns="http://www.w3.org/2000/svg">
<g id="Group 48151">
<ellipse id="Ellipse 2555" cx="31" cy="30.5" rx="31" ry="30.5" fill="url(#paint0_linear_2510_61271)"/>
<path id="image 270 (Traced)" fill-rule="evenodd" clip-rule="evenodd" d="M41.4362 18.6517C40.8782 18.8302 14.0481 28.9619 13.735 29.1124C12.8125 29.5558 12.5173 30.1229 12.9589 30.6036C13.0706 30.7254 13.2936 30.8843 13.4543 30.9567C13.615 31.0292 15.3318 31.572 17.2694 32.163L20.7922 33.2374L26.6125 29.6544C29.8137 27.6837 33.5146 25.4056 34.8366 24.5919L37.2405 23.1125L37.5829 23.1124C37.9252 23.1123 37.9254 23.1124 37.9254 23.2782C37.9254 23.428 37.2931 24.0029 31.4296 29.1837C27.857 32.3404 24.8902 34.9662 24.8368 35.0188C24.7531 35.1011 24.706 35.5781 24.4978 38.4451C24.3647 40.2769 24.2546 41.8446 24.2531 41.9289C24.2507 42.0694 24.2682 42.0821 24.4628 42.0816C24.9315 42.0804 25.1677 41.9005 27.1446 40.0393C28.1806 39.0639 29.0501 38.2726 29.0769 38.2807C29.1038 38.2888 30.6949 39.4262 32.6129 40.8081C34.5308 42.19 36.2408 43.3841 36.4128 43.4616C36.8522 43.6595 37.4026 43.6939 37.702 43.5422C38.1383 43.3211 38.4341 42.902 38.5973 42.2738C38.6445 42.0918 39.7202 37.167 40.9876 31.3298C42.5113 24.3122 43.3012 20.564 43.3192 20.266C43.366 19.4888 43.0942 18.9103 42.5727 18.6773C42.3014 18.5561 41.7724 18.5441 41.4362 18.6517Z" fill="white"/>
</g>
<defs>
<linearGradient id="paint0_linear_2510_61271" x1="67.6661" y1="-20.098" x2="-19.452" y2="7.30293" gradientUnits="userSpaceOnUse">
<stop stop-color="#FF0000"/>
<stop offset="1" stop-color="#FFB800"/>
</linearGradient>
</defs>
</svg>
