<svg width="51" height="45" viewBox="0 0 51 45" fill="none" xmlns="http://www.w3.org/2000/svg">
<g id="tabler:photo-up">
<g id="Group">
<path id="Vector" d="M31.875 15H31.8963M26.5625 39.375H12.75C11.0592 39.375 9.43774 38.7824 8.24219 37.7275C7.04665 36.6726 6.375 35.2418 6.375 33.75V11.25C6.375 9.75816 7.04665 8.32742 8.24219 7.27252C9.43774 6.21763 11.0592 5.625 12.75 5.625H38.25C39.9408 5.625 41.5623 6.21763 42.7578 7.27252C43.9534 8.32742 44.625 9.75816 44.625 11.25V23.4375" stroke="black" stroke-width="2" stroke-linecap="round" stroke-linejoin="round"/>
<path id="Vector_2" d="M6.375 29.9999L17 20.6249C18.972 18.9505 21.403 18.9505 23.375 20.6249L30.8125 27.1874" stroke="black" stroke-width="2" stroke-linecap="round" stroke-linejoin="round"/>
<path id="Vector_3" d="M29.75 26.25L31.875 24.375C33.3179 23.1507 35.0051 22.8207 36.5798 23.3888M40.375 41.25V30M40.375 30L46.75 35.625M40.375 30L34 35.625" stroke="black" stroke-width="2" stroke-linecap="round" stroke-linejoin="round"/>
</g>
</g>
</svg>
