<svg xmlns="http://www.w3.org/2000/svg" width="120" height="20" viewBox="0 0 120 20" fill="none">
<path d="M11.206 0L14.8133 5.21543L21.4457 6.68777L17.0426 11.3834L17.5345 17.5088L11.206 15.1955L4.8776 17.5088L5.36945 11.3834L0.966408 6.68777L7.59883 5.21543L11.206 0Z" fill="#FFD30A"/>
<path d="M36.1357 0L39.7429 5.21543L46.3754 6.68777L41.9723 11.3834L42.4642 17.5088L36.1357 15.1955L29.8073 17.5088L30.2991 11.3834L25.8961 6.68777L32.5285 5.21543L36.1357 0Z" fill="#FFD30A"/>
<path d="M62.2041 0L65.8113 5.21543L72.4437 6.68777L68.0407 11.3834L68.5325 17.5088L62.2041 15.1955L55.8756 17.5088L56.3675 11.3834L51.9645 6.68777L58.5969 5.21543L62.2041 0Z" fill="#FFD30A"/>
<path d="M87.1357 0L90.7429 5.21543L97.3754 6.68777L92.9723 11.3834L93.4642 17.5088L87.1357 15.1955L80.8073 17.5088L81.2991 11.3834L76.8961 6.68777L83.5285 5.21543L87.1357 0Z" fill="#FFD30A"/>
<path d="M108.673 0L112.28 5.21543L118.912 6.68777L114.509 11.3834L115.001 17.5088L108.673 15.1955L102.344 17.5088L102.836 11.3834L98.4332 6.68777L105.066 5.21543L108.673 0Z" fill="#FFD30A"/>
</svg>