<svg width="29" height="28" viewBox="0 0 29 28" fill="none" xmlns="http://www.w3.org/2000/svg">
<path d="M16.5769 27H3.07692C2.52609 27 1.99782 26.7893 1.60832 26.4142C1.21882 26.0391 1 25.5304 1 25V3C1 2.46957 1.21882 1.96086 1.60832 1.58579C1.99782 1.21071 2.52609 1 3.07692 1H18.6538M21.7692 19H28M7.23077 1V27M12.4231 8H16.5769M21.7692 7L24.8846 1L28 7V24C28 24.7956 27.6718 25.5587 27.0875 26.1213C26.5033 26.6839 25.7109 27 24.8846 27C24.0584 27 23.266 26.6839 22.6817 26.1213C22.0975 25.5587 21.7692 24.7956 21.7692 24V7Z" stroke="black" stroke-width="1.5" stroke-linecap="round" stroke-linejoin="round"/>
</svg>
