<svg width="23" height="22" viewBox="0 0 23 22" fill="none" xmlns="http://www.w3.org/2000/svg">
<path d="M1.035 16.5392L3.8325 2.66397C3.88489 2.40359 3.99542 2.15478 4.15778 1.93177C4.32014 1.70876 4.53115 1.5159 4.77875 1.36422C5.02635 1.21254 5.3057 1.105 5.60083 1.04775C5.89596 0.990506 6.20109 0.984668 6.4988 1.03057L20.0985 3.12892C20.6995 3.2217 21.2339 3.51948 21.5839 3.95678C21.934 4.39408 22.071 4.93507 21.965 5.46076L19.1675 19.336C19.1151 19.5964 19.0046 19.8452 18.8422 20.0682C18.6799 20.2912 18.4688 20.4841 18.2212 20.6358C17.9736 20.7875 17.6943 20.895 17.3992 20.9522C17.104 21.0095 16.7989 21.0153 16.5012 20.9694L2.90153 18.8711C2.30045 18.7783 1.76613 18.4805 1.41609 18.0432C1.06605 17.6059 0.928971 17.0649 1.035 16.5392Z" stroke="black" stroke-width="1.5"/>
<path d="M8.17301 6.33301L17.0994 7.70925M7.38562 10.2358L16.312 11.6131M6.59937 14.1387L12.1779 14.9997" stroke="black" stroke-width="1.5" stroke-linecap="round"/>
</svg>
