<svg width="28" height="28" viewBox="0 0 28 28" fill="none" xmlns="http://www.w3.org/2000/svg">
<path d="M14 28C21.732 28 28 21.732 28 14C28 6.26801 21.732 0 14 0C6.26801 0 0 6.26801 0 14C0 21.732 6.26801 28 14 28Z" fill="url(#paint0_linear_3921_10022)"/>
<path d="M4.90639 14.4784C6.5296 13.5894 8.34153 12.8473 10.0345 12.1015C12.9471 10.8799 15.8713 9.67948 18.8249 8.56191C19.3996 8.37149 20.4322 8.1853 20.5334 9.03211C20.4779 10.2308 20.2499 11.4225 20.0935 12.6142C19.6964 15.2348 19.2375 17.8464 18.79 20.4584C18.6358 21.3284 17.5397 21.7788 16.8384 21.222C15.1529 20.09 13.4545 18.9689 11.7905 17.8106C11.2455 17.2599 11.7509 16.469 12.2377 16.0757C13.6259 14.7154 15.0981 13.5596 16.4138 12.1289C16.7687 11.2768 15.7201 11.9949 15.3742 12.215C13.4737 13.5173 11.6198 14.899 9.61612 16.0435C8.59265 16.6037 7.39978 16.125 6.37677 15.8124C5.45953 15.4348 4.11541 15.0543 4.9063 14.4785L4.90639 14.4784Z" fill="white"/>
<defs>
<linearGradient id="paint0_linear_3921_10022" x1="10.076" y1="-12.962" x2="-9.05925" y2="17.9761" gradientUnits="userSpaceOnUse">
<stop stop-color="#34B0DF"/>
<stop offset="1" stop-color="#1E88D3"/>
</linearGradient>
</defs>
</svg>
