<svg width="39" height="36" viewBox="0 0 39 36" fill="none" xmlns="http://www.w3.org/2000/svg">
<path d="M19.032 36C29.5312 36 38.0425 27.9411 38.0425 18C38.0425 8.05888 29.5312 0 19.032 0C8.53279 0 0.0214844 8.05888 0.0214844 18C0.0214844 27.9411 8.53279 36 19.032 36Z" fill="url(#paint0_linear_477_5148)"/>
<path d="M6.68283 18.6154C8.88698 17.4723 11.3474 16.5182 13.6463 15.5593C17.6013 13.9887 21.572 12.4453 25.5827 11.0084C26.3631 10.7636 27.7652 10.5242 27.9027 11.613C27.8274 13.1542 27.5177 14.6863 27.3053 16.2185C26.7661 19.5878 26.143 22.9456 25.5353 26.3039C25.3259 27.4225 23.8375 28.0016 22.8852 27.2857C20.5965 25.8302 18.2902 24.3889 16.0308 22.8996C15.2907 22.1915 15.977 21.1747 16.638 20.6691C18.523 18.92 20.5221 17.434 22.3086 15.5946C22.7905 14.499 21.3667 15.4224 20.897 15.7053C18.3164 17.3796 15.7989 19.1562 13.0782 20.6277C11.6884 21.3479 10.0686 20.7324 8.67945 20.3305C7.43393 19.845 5.60876 19.3558 6.6827 18.6155L6.68283 18.6154Z" fill="white"/>
<defs>
<linearGradient id="paint0_linear_477_5148" x1="13.7036" y1="-16.6654" x2="-10.2777" y2="24.2847" gradientUnits="userSpaceOnUse">
<stop stop-color="#34B0DF"/>
<stop offset="1" stop-color="#1E88D3"/>
</linearGradient>
</defs>
</svg>
