<svg width="37" height="34" viewBox="0 0 37 34" fill="none" xmlns="http://www.w3.org/2000/svg">
<path d="M16.1661 30.6675L16.165 30.6665C11.4373 26.3723 7.57334 22.857 4.88256 19.5596C2.20007 16.2723 0.761719 13.293 0.761719 10.0833C0.761719 4.83227 4.85553 0.75 10.0784 0.75C13.0359 0.75 15.8872 2.13296 17.7452 4.30133L18.3147 4.96601L18.8842 4.30133C20.7422 2.13296 23.5935 0.75 26.551 0.75C31.7739 0.75 35.8677 4.83227 35.8677 10.0833C35.8677 13.293 34.4293 16.2723 31.7468 19.5596C29.0561 22.857 25.1921 26.3723 20.4644 30.6665L20.4633 30.6675L18.3147 32.6267L16.1661 30.6675Z" stroke="black" stroke-width="1.5"/>
</svg>
