<svg width="28" height="28" viewBox="0 0 28 28" fill="none" xmlns="http://www.w3.org/2000/svg">
<path fill-rule="evenodd" clip-rule="evenodd" d="M5.74196 0C2.58372 0 0 2.58409 0 5.7429V22.2579C0 25.4163 2.58372 28 5.74196 28H22.2578C25.3997 28 27.9736 25.4427 28 22.3065V5.69449C27.9736 2.55774 25.3997 0 22.2578 0H5.74196Z" fill="url(#paint0_linear_3921_10025)"/>
<path fill-rule="evenodd" clip-rule="evenodd" d="M25.5293 16.5456C25.5293 13.3178 22.3951 10.7061 18.5293 10.7061C14.6633 10.7061 11.5293 13.3178 11.5293 16.5456C11.5293 19.7618 14.6633 22.3736 18.5293 22.3852C19.3279 22.3736 20.0992 22.2595 20.8253 22.0483C20.8791 22.0339 20.8747 22.0345 21.0156 22.0068C21.1564 21.9791 21.279 22.0483 21.3853 22.1045L22.8973 23.0028C22.9669 23.0402 23.0081 23.059 23.0653 23.059C23.1879 23.059 23.292 22.9545 23.2893 22.8344C23.292 22.768 23.2709 22.7153 23.2545 22.6597C23.2381 22.6041 23.0504 21.9191 22.9533 21.4868C22.9395 21.4256 22.932 21.3904 22.932 21.2745C22.932 21.1586 22.9919 21.0341 23.1213 20.9253C24.5862 19.8799 25.5293 18.2974 25.5293 16.5456ZM16.4455 15.6473C16.0158 15.6473 15.647 15.2787 15.647 14.7988C15.647 14.369 16.0158 14.0002 16.4455 14.0002C16.9255 14.0002 17.294 14.369 17.294 14.7988C17.294 15.2787 16.9255 15.6473 16.4455 15.6473ZM20.5632 15.6473C20.1335 15.6473 19.7646 15.2787 19.7646 14.7988C19.7646 14.369 20.1335 14.0002 20.5632 14.0002C21.0432 14.0002 21.4117 14.369 21.4117 14.7988C21.4117 15.2787 21.0432 15.6473 20.5632 15.6473Z" fill="white"/>
<path fill-rule="evenodd" clip-rule="evenodd" d="M2.4707 11.9601C2.4707 14.0516 3.58693 15.9502 5.34477 17.2382C5.47424 17.335 5.54353 17.4458 5.54347 17.6317C5.54353 17.6959 5.53242 17.765 5.51058 17.8558C5.36363 18.4668 5.2022 19.1659 5.17895 19.2596C5.1557 19.3532 5.11905 19.4156 5.12368 19.4842C5.11905 19.6396 5.24244 19.7649 5.40004 19.7649C5.45512 19.7649 5.5042 19.7422 5.56585 19.7088L7.38977 18.6419C7.50525 18.571 7.63487 18.5344 7.72237 18.5344C7.80986 18.5344 7.95589 18.562 8.05302 18.5858C8.89861 18.8054 9.81162 18.9426 10.7613 18.9227C10.9099 18.9426 11.0615 18.9386 11.2034 18.9227C11.0323 18.3855 10.934 17.8104 10.9271 17.2382C10.934 13.6899 14.3173 10.8312 18.4991 10.8371C18.6425 10.8312 18.7921 10.836 18.9413 10.8371C18.3172 7.49902 14.8911 4.94141 10.7613 4.94141C6.18068 4.94141 2.4707 8.07593 2.4707 11.9601ZM7.82343 10.7061C7.1411 10.7061 6.58813 10.1532 6.58813 9.47083C6.58813 8.78867 7.1411 8.23554 7.82343 8.23554C8.50576 8.23554 9.05872 8.78867 9.05872 9.47083C9.05872 10.1532 8.50576 10.7061 7.82343 10.7061ZM13.5883 10.7061C12.9059 10.7061 12.353 10.1532 12.353 9.47083C12.353 8.78867 12.9059 8.23554 13.5883 8.23554C14.2705 8.23554 14.8236 8.78867 14.8236 9.47083C14.8236 10.1532 14.2705 10.7061 13.5883 10.7061Z" fill="white"/>
<defs>
<linearGradient id="paint0_linear_3921_10025" x1="0" y1="0" x2="0" y2="28" gradientUnits="userSpaceOnUse">
<stop stop-color="#20D329"/>
<stop offset="1" stop-color="#1BB623"/>
</linearGradient>
</defs>
</svg>
