<svg width="370" height="835" viewBox="0 0 370 835" fill="none" xmlns="http://www.w3.org/2000/svg">
<path d="M-47.503 521.612C-104.975 521.612 -151.703 474.883 -151.703 417.411C-151.703 359.939 -104.975 313.211 -47.503 313.211C9.96878 313.211 56.6976 359.939 56.6976 417.411C56.6102 474.883 9.88142 521.612 -47.503 521.612ZM-47.503 356.97C-80.868 356.97 -108.032 384.133 -108.032 417.499C-108.032 450.864 -80.868 478.027 -47.503 478.027C-14.1379 478.027 13.026 450.864 13.026 417.499C13.026 384.133 -14.1379 356.97 -47.503 356.97Z" fill="#B9E4A8"/>
<path d="M-47.3216 601.009C-59.899 601.009 -72.4764 599.699 -84.8791 597.166C-132.83 587.209 -174.056 559.085 -200.958 518.121C-227.86 477.157 -237.118 428.157 -227.161 380.118C-218.514 338.543 -195.543 301.073 -162.614 274.521C-130.035 248.318 -89.2462 233.906 -47.6709 233.906C-35.0935 233.906 -22.5161 235.216 -10.1133 237.749C37.838 247.706 79.0639 275.831 105.966 316.795C132.867 357.759 142.126 406.758 132.168 454.797C123.522 496.372 100.55 533.842 67.622 560.395C34.9557 586.598 -5.8336 601.009 -47.3216 601.009ZM-47.6709 277.578C-113.44 277.578 -170.999 324.393 -184.45 388.94C-200.172 464.404 -151.522 538.646 -76.0574 554.368C-66.6243 556.377 -56.9294 557.338 -47.409 557.338C18.3604 557.338 75.9195 510.522 89.3704 445.975C96.9692 409.379 89.8942 372.083 69.4559 340.814C49.0176 309.545 17.5743 288.146 -19.0225 280.547C-28.4556 278.626 -38.1505 277.578 -47.6709 277.578Z" fill="#B9E4A8"/>
<path d="M-47.2381 677.782C-55.2737 677.782 -63.3969 677.433 -71.5198 676.647C-140.783 670.271 -203.32 637.255 -247.778 583.801C-292.236 530.347 -313.111 462.743 -306.735 393.568C-300.708 328.585 -270.837 268.58 -222.448 224.821C-174.41 181.237 -112.396 157.305 -47.8497 157.305C-39.8141 157.305 -31.6914 157.654 -23.5685 158.44C45.6946 164.816 108.233 197.832 152.69 251.286C197.148 304.74 218.023 372.343 211.647 441.606C205.62 506.59 175.749 566.594 127.361 610.353C79.3219 653.763 17.3084 677.782 -47.2381 677.782ZM-47.8497 200.889C-160.26 200.889 -252.844 285.437 -263.238 397.586C-274.243 516.547 -186.463 622.232 -67.5019 633.237C-60.7765 633.849 -53.9635 634.198 -47.2381 634.198C65.1724 634.198 157.756 549.65 168.15 437.501C179.155 318.54 91.3754 212.855 -27.5859 201.85C-34.3114 201.151 -41.1243 200.889 -47.8497 200.889Z" fill="#B9E4A8"/>
<path d="M-47.3266 756.042C-51.257 756.042 -55.275 755.955 -59.2928 755.867C-104.973 754.295 -148.994 743.814 -190.133 724.686C-229.874 706.257 -265.16 680.578 -295.206 648.435C-325.252 616.293 -348.311 579.26 -363.945 538.383C-380.191 496.022 -387.528 451.389 -385.956 405.709C-382.899 317.405 -346.215 235.04 -282.542 173.726C-219.131 112.585 -135.718 78.8711 -47.7633 78.8711C-43.8329 78.8711 -39.8154 78.9584 -35.7976 79.0457C9.88287 80.6179 53.9041 91.099 95.0426 110.227C134.784 128.657 170.07 154.335 200.116 186.478C230.162 218.62 253.221 255.653 268.855 296.53C285.101 338.891 292.438 383.524 290.866 429.204C287.809 517.508 251.125 599.873 187.451 661.188C124.04 722.415 40.6279 756.042 -47.3266 756.042ZM-47.7633 122.543C-207.427 122.543 -336.782 247.618 -342.284 407.281C-347.962 569.826 -220.266 706.606 -57.8078 712.283C-54.3141 712.371 -50.8204 712.458 -47.414 712.458C112.249 712.458 241.604 587.383 247.107 427.72C252.784 265.174 125.089 128.395 -37.3696 122.717C-40.776 122.63 -44.2696 122.543 -47.7633 122.543Z" fill="#B9E4A8"/>
<path d="M-47.5 835C-103.836 835 -158.513 823.995 -210.046 802.159C-259.744 781.109 -304.376 751.063 -342.72 712.72C-381.063 674.376 -411.197 629.744 -432.159 580.046C-453.907 528.513 -465 473.836 -465 417.5C-465 361.164 -453.995 306.487 -432.159 254.954C-411.109 205.256 -381.063 160.624 -342.72 122.28C-304.376 83.9367 -259.744 53.8034 -210.046 32.8411C-158.513 11.0927 -103.836 0 -47.5 0C8.8363 0 63.5132 11.0053 115.046 32.8411C164.744 53.8908 209.376 83.9367 247.72 122.28C286.063 160.624 316.197 205.256 337.159 254.954C358.907 306.487 370 361.164 370 417.5C370 473.836 358.995 528.513 337.159 580.046C316.109 629.744 286.063 674.376 247.72 712.72C209.376 751.063 164.744 781.197 115.046 802.159C63.5132 823.995 8.8363 835 -47.5 835ZM-47.5 43.5841C-253.63 43.5841 -421.328 211.283 -421.328 417.413C-421.328 623.542 -253.63 791.241 -47.5 791.241C158.63 791.241 326.328 623.542 326.328 417.413C326.328 211.37 158.63 43.5841 -47.5 43.5841Z" fill="#B9E4A8"/>
</svg>
