<svg width="24" height="26" viewBox="0 0 24 26" fill="none" xmlns="http://www.w3.org/2000/svg">
<path d="M2.51776 16.1604L3.00482 15.6844C3.16197 15.5307 3.25045 15.3224 3.25045 15.1052V10.5556C3.25045 5.83046 7.16937 2.00001 12.0036 2C16.8378 1.99999 20.7567 5.83044 20.7567 10.5556V15.1052C20.7567 15.3224 20.845 15.5307 21.0022 15.6844L21.4893 16.1605C21.6384 16.3063 21.7132 16.3792 21.7726 16.4601C21.885 16.613 21.9595 16.7893 21.9907 16.9751C22.0072 17.0734 22.0074 17.1765 22.0074 17.3827C22.0074 17.8539 22.0074 18.0895 21.9418 18.2796C21.817 18.6412 21.5266 18.925 21.1566 19.047C20.9621 19.1111 20.7207 19.1111 20.2386 19.1111H3.76821C3.28611 19.1111 3.04497 19.1111 2.85052 19.047C2.48056 18.925 2.19038 18.6412 2.06559 18.2796C2 18.0895 2 17.8539 2 17.3827C2 17.1765 2 17.0734 2.01651 16.9751C2.0477 16.7893 2.12211 16.613 2.23446 16.4601C2.29391 16.3792 2.36858 16.3062 2.51776 16.1604ZM15.7549 19.1111V20.3333C15.7549 22.3584 14.0754 24 12.0036 24C9.93178 24 8.25224 22.3584 8.25224 20.3333V19.1111H15.7549Z" stroke="black" stroke-width="4" stroke-linecap="round" stroke-linejoin="round"/>
</svg>
