<svg width="21" height="23" viewBox="0 0 21 23" fill="none" xmlns="http://www.w3.org/2000/svg">
<path d="M1.47552 14.814L1.92283 14.3776C2.06716 14.2368 2.14842 14.0458 2.14842 13.8467V9.67634C2.14842 5.34514 5.74759 1.83399 10.1874 1.83398C14.6272 1.83397 18.2263 5.34512 18.2263 9.67634V13.8467C18.2263 14.0458 18.3074 14.2368 18.4518 14.3776L18.8991 14.814C19.0361 14.9477 19.1048 15.0145 19.1594 15.0887C19.2625 15.2289 19.331 15.3904 19.3596 15.5607C19.3748 15.6508 19.375 15.7453 19.375 15.9343C19.375 16.3663 19.375 16.5823 19.3148 16.7565C19.2001 17.088 18.9334 17.3481 18.5936 17.4599C18.415 17.5187 18.1932 17.5187 17.7505 17.5187H2.62394C2.18117 17.5187 1.95971 17.5187 1.78113 17.4599C1.44135 17.3481 1.17485 17.0879 1.06024 16.7565C1 16.5823 1 16.3663 1 15.9344C1 15.7453 1 15.6508 1.01516 15.5607C1.04381 15.3904 1.11215 15.2289 1.21533 15.0887C1.26993 15.0145 1.33851 14.9476 1.47552 14.814ZM13.6326 17.5187V18.639C13.6326 20.4953 12.0901 22 10.1874 22C8.28461 22 6.74211 20.4953 6.74211 18.639V17.5187H13.6326Z" stroke="white" stroke-width="2" stroke-linecap="round" stroke-linejoin="round"/>
</svg>
