<svg width="39" height="36" viewBox="0 0 39 36" fill="none" xmlns="http://www.w3.org/2000/svg">
<path fill-rule="evenodd" clip-rule="evenodd" d="M8.7755 0C4.48693 0 0.978516 3.3224 0.978516 7.38373V28.6173C0.978516 32.6781 4.48693 36 8.7755 36H31.2023C35.4686 36 38.9638 32.712 38.9996 28.6798V7.32148C38.9638 3.28852 35.4686 0 31.2023 0H8.7755Z" fill="url(#paint0_linear_3932_11989)"/>
<path fill-rule="evenodd" clip-rule="evenodd" d="M35.6453 21.2717C35.6453 17.1217 31.3893 13.7637 26.14 13.7637C20.8905 13.7637 16.6348 17.1217 16.6348 21.2717C16.6348 25.4068 20.8905 28.7648 26.14 28.7797C27.2245 28.7648 28.2718 28.6181 29.2578 28.3466C29.3308 28.328 29.3248 28.3288 29.5161 28.2932C29.7074 28.2576 29.8738 28.3466 30.0182 28.4188L32.0713 29.5738C32.1658 29.6219 32.2217 29.646 32.2994 29.646C32.4659 29.646 32.6073 29.5117 32.6036 29.3573C32.6073 29.2719 32.5786 29.2041 32.5563 29.1327C32.534 29.0612 32.2793 28.1805 32.1474 27.6246C32.1287 27.5459 32.1185 27.5006 32.1185 27.3516C32.1185 27.2026 32.1998 27.0426 32.3755 26.9027C34.3646 25.5586 35.6453 23.524 35.6453 21.2717ZM23.3099 20.1176C22.7263 20.1176 22.2255 19.6437 22.2255 19.0267C22.2255 18.4742 22.7263 18 23.3099 18C23.9616 18 24.462 18.4742 24.462 19.0267C24.462 19.6437 23.9616 20.1176 23.3099 20.1176ZM28.9032 20.1176C28.3197 20.1176 27.8188 19.6437 27.8188 19.0267C27.8188 18.4742 28.3197 18 28.9032 18C29.555 18 30.0554 18.4742 30.0554 19.0267C30.0554 19.6437 29.555 20.1176 28.9032 20.1176Z" fill="white"/>
<path fill-rule="evenodd" clip-rule="evenodd" d="M4.33398 15.3776C4.33398 18.0666 5.8497 20.5077 8.23666 22.1637C8.41248 22.2882 8.50655 22.4305 8.50648 22.6696C8.50655 22.7522 8.49147 22.841 8.46181 22.9578C8.26227 23.7433 8.04308 24.6422 8.0115 24.7626C7.97993 24.883 7.93017 24.9632 7.93645 25.0514C7.93017 25.2512 8.09772 25.4123 8.31171 25.4123C8.38651 25.4123 8.45316 25.383 8.53686 25.3401L11.0136 23.9685C11.1704 23.8772 11.3464 23.8302 11.4652 23.8302C11.584 23.8302 11.7823 23.8657 11.9142 23.8963C13.0624 24.1786 14.3022 24.3551 15.5917 24.3295C15.7935 24.3551 15.9994 24.35 16.1921 24.3295C15.9597 23.6388 15.8262 22.8994 15.8169 22.1637C15.8262 17.6016 20.4204 13.9261 26.0989 13.9337C26.2935 13.9261 26.4967 13.9322 26.6993 13.9337C25.8519 9.64188 21.1996 6.35352 15.5917 6.35352C9.37174 6.35352 4.33398 10.3836 4.33398 15.3776ZM11.6021 13.7663C10.6756 13.7663 9.92469 13.0554 9.92469 12.1781C9.92469 11.301 10.6756 10.5898 11.6021 10.5898C12.5286 10.5898 13.2795 11.301 13.2795 12.1781C13.2795 13.0554 12.5286 13.7663 11.6021 13.7663ZM19.4312 13.7663C18.5046 13.7663 17.7538 13.0554 17.7538 12.1781C17.7538 11.301 18.5046 10.5898 19.4312 10.5898C20.3575 10.5898 21.1086 11.301 21.1086 12.1781C21.1086 13.0554 20.3575 13.7663 19.4312 13.7663Z" fill="white"/>
<defs>
<linearGradient id="paint0_linear_3932_11989" x1="0.978516" y1="0" x2="0.978516" y2="36" gradientUnits="userSpaceOnUse">
<stop stop-color="#20D329"/>
<stop offset="1" stop-color="#1BB623"/>
</linearGradient>
</defs>
</svg>
