<svg width="51" height="48" viewBox="0 0 51 48" fill="none" xmlns="http://www.w3.org/2000/svg">
<path d="M3 45H48M3 12.3333V14.6667C3 16.5232 3.79018 18.3037 5.1967 19.6164C6.60322 20.9292 8.51088 21.6667 10.5 21.6667C12.4891 21.6667 14.3968 20.9292 15.8033 19.6164C17.2098 18.3037 18 16.5232 18 14.6667M3 12.3333H48M3 12.3333L8 3H43L48 12.3333M18 14.6667V12.3333M18 14.6667C18 16.5232 18.7902 18.3037 20.1967 19.6164C21.6032 20.9292 23.5109 21.6667 25.5 21.6667C27.4891 21.6667 29.3968 20.9292 30.8033 19.6164C32.2098 18.3037 33 16.5232 33 14.6667M33 14.6667V12.3333M33 14.6667C33 16.5232 33.7902 18.3037 35.1967 19.6164C36.6032 20.9292 38.5109 21.6667 40.5 21.6667C42.4891 21.6667 44.3968 20.9292 45.8033 19.6164C47.2098 18.3037 48 16.5232 48 14.6667V12.3333M8 45V21.3167M43 45V21.3167M18 45V35.6667C18 34.429 18.5268 33.242 19.4645 32.3668C20.4021 31.4917 21.6739 31 23 31H28C29.3261 31 30.5979 31.4917 31.5355 32.3668C32.4732 33.242 33 34.429 33 35.6667V45" stroke="black" stroke-width="5" stroke-linecap="round" stroke-linejoin="round"/>
</svg>
