<svg width="51" height="48" viewBox="0 0 51 48" fill="none" xmlns="http://www.w3.org/2000/svg">
<path d="M28.9615 45H6.46154C5.54348 45 4.66303 44.6596 4.01386 44.0537C3.3647 43.4478 3 42.6261 3 41.7692V6.23077C3 5.37392 3.3647 4.55216 4.01386 3.94627C4.66303 3.34038 5.54348 3 6.46154 3H32.4231M37.6154 32.0769H48M13.3846 3V45M22.0385 14.3077H28.9615M37.6154 12.6923L42.8077 3L48 12.6923V40.1538C48 41.4391 47.453 42.6718 46.4792 43.5806C45.5055 44.4894 44.1848 45 42.8077 45C41.4306 45 40.1099 44.4894 39.1362 43.5806C38.1624 42.6718 37.6154 41.4391 37.6154 40.1538V12.6923Z" stroke="black" stroke-width="5" stroke-linecap="round" stroke-linejoin="round"/>
</svg>
