<svg xmlns="http://www.w3.org/2000/svg" width="33" height="35" viewBox="0 0 33 35" fill="none">
<path d="M29.0125 18.2293L30.9375 20.2856L21.9587 29.896L17.1875 24.7918L19.1125 22.7356L21.9587 25.7689L29.0125 18.2293ZM13.75 24.7918L17.875 29.1668H4.125V26.2502C4.125 23.0272 9.0475 20.4168 15.125 20.4168L17.7238 20.5772L13.75 24.7918ZM15.125 5.8335C16.5837 5.8335 17.9826 6.44808 19.0141 7.54204C20.0455 8.636 20.625 10.1197 20.625 11.6668C20.625 13.2139 20.0455 14.6977 19.0141 15.7916C17.9826 16.8856 16.5837 17.5002 15.125 17.5002C13.6663 17.5002 12.2674 16.8856 11.2359 15.7916C10.2045 14.6977 9.625 13.2139 9.625 11.6668C9.625 10.1197 10.2045 8.636 11.2359 7.54204C12.2674 6.44808 13.6663 5.8335 15.125 5.8335Z" fill="black"/>
</svg>