<svg width="49" height="46" viewBox="0 0 49 46" fill="none" xmlns="http://www.w3.org/2000/svg">
<path d="M13.8421 44C13.8421 41.6549 14.8402 39.4059 16.6169 37.7477C18.3935 36.0895 20.8032 35.1579 23.3158 35.1579V32.9474C20.5858 32.9479 17.9395 32.0681 15.8247 30.4568C13.7099 28.8455 12.2565 26.6018 11.7105 24.1053H9.10526C7.22083 24.1053 5.41358 23.4066 4.08108 22.1629C2.74859 20.9193 2 19.2325 2 17.4737V6.42105H6.73684C8.56053 6.42105 10.2184 7.06211 11.4737 8.10105V2H37.5263V8.10105C38.7816 7.06211 40.4395 6.42105 42.2632 6.42105H47V17.4737C47 19.2325 46.2514 20.9193 44.9189 22.1629C43.5864 23.4066 41.7792 24.1053 39.8947 24.1053H37.2895C36.7435 26.6018 35.2901 28.8455 33.1753 30.4568C31.0605 32.0681 28.4142 32.9479 25.6842 32.9474V35.1579C28.1968 35.1579 30.6065 36.0895 32.3831 37.7477C34.1598 39.4059 35.1579 41.6549 35.1579 44H13.8421ZM25.6842 37.3684H23.3158C20.2132 37.3684 17.5842 39.2032 16.6132 41.7895H32.3868C31.8999 40.4942 30.9928 39.3725 29.7917 38.5803C28.5906 37.788 27.155 37.3644 25.6842 37.3684ZM35.1579 4.21053H13.8421V21.8947C13.8421 24.2398 14.8402 26.4888 16.6169 28.147C18.3935 29.8053 20.8032 30.7368 23.3158 30.7368H25.6842C28.1968 30.7368 30.6065 29.8053 32.3831 28.147C34.1598 26.4888 35.1579 24.2398 35.1579 21.8947V4.21053ZM44.6316 17.4737V8.63158H42.2632C41.0069 8.63158 39.802 9.09737 38.9137 9.92647C38.0254 10.7556 37.5263 11.8801 37.5263 13.0526V21.8947H39.8947C41.151 21.8947 42.3559 21.4289 43.2442 20.5998C44.1325 19.7707 44.6316 18.6462 44.6316 17.4737ZM4.36842 17.4737C4.36842 18.6462 4.86748 19.7707 5.75581 20.5998C6.64414 21.4289 7.84897 21.8947 9.10526 21.8947H11.4737V13.0526C11.4737 11.8801 10.9746 10.7556 10.0863 9.92647C9.19796 9.09737 7.99313 8.63158 6.73684 8.63158H4.36842V17.4737Z" stroke="black" stroke-width="3"/>
</svg>
