<svg width="59" height="56" viewBox="0 0 59 56" fill="none" xmlns="http://www.w3.org/2000/svg">
<g filter="url(#filter0_d_2358_7028)">
<path d="M7.07501 35.6324L13.0696 6.49433C13.1819 5.94753 13.4188 5.42504 13.7667 4.95672C14.1146 4.48839 14.5668 4.08339 15.0973 3.76486C15.6279 3.44633 16.2265 3.2205 16.8589 3.10028C17.4913 2.98006 18.1452 2.9678 18.7832 3.0642L47.9253 7.47074C49.2133 7.66556 50.3583 8.29091 51.1084 9.20924C51.8585 10.1276 52.1522 11.2637 51.925 12.3676L45.9304 41.5057C45.8181 42.0525 45.5812 42.575 45.2333 43.0433C44.8854 43.5116 44.4332 43.9166 43.9027 44.2351C43.3721 44.5537 42.7735 44.7795 42.1411 44.8997C41.5087 45.0199 40.8548 45.0322 40.2169 44.9358L11.0747 40.5293C9.78669 40.3344 8.6417 39.7091 7.89162 38.7908C7.14154 37.8724 6.8478 36.7363 7.07501 35.6324Z" stroke="black" stroke-width="5"/>
<path d="M22.3721 14.1992L41.5 17.0893M20.6848 22.3951L39.8127 25.2873M19 30.5911L30.954 32.3992" stroke="black" stroke-width="5" stroke-linecap="round"/>
</g>
<defs>
<filter id="filter0_d_2358_7028" x="0.5" y="0.5" width="58" height="55" filterUnits="userSpaceOnUse" color-interpolation-filters="sRGB">
<feFlood flood-opacity="0" result="BackgroundImageFix"/>
<feColorMatrix in="SourceAlpha" type="matrix" values="0 0 0 0 0 0 0 0 0 0 0 0 0 0 0 0 0 0 127 0" result="hardAlpha"/>
<feOffset dy="4"/>
<feGaussianBlur stdDeviation="2"/>
<feComposite in2="hardAlpha" operator="out"/>
<feColorMatrix type="matrix" values="0 0 0 0 0 0 0 0 0 0 0 0 0 0 0 0 0 0 0.25 0"/>
<feBlend mode="normal" in2="BackgroundImageFix" result="effect1_dropShadow_2358_7028"/>
<feBlend mode="normal" in="SourceGraphic" in2="effect1_dropShadow_2358_7028" result="shape"/>
</filter>
</defs>
</svg>
