<svg width="35" height="37" viewBox="0 0 35 37" fill="none" xmlns="http://www.w3.org/2000/svg">
<path fill-rule="evenodd" clip-rule="evenodd" d="M17.7437 2C12.428 2 8.11881 6.30928 8.11881 11.625C8.11881 14.9316 9.78614 17.8487 12.3259 19.5815C6.43795 21.7383 2.19668 27.3101 2.00059 33.8985C1.97903 34.623 2.54891 35.2279 3.27347 35.2494C3.99802 35.271 4.60287 34.7011 4.62443 33.9765C4.83467 26.9126 10.628 21.25 17.7435 21.25C24.859 21.25 30.6523 26.9126 30.8626 33.9765C30.8842 34.7011 31.489 35.271 32.2136 35.2494C32.9381 35.2279 33.508 34.623 33.4864 33.8985C33.2903 27.3102 29.0492 21.7385 23.1613 19.5816C25.7012 17.8488 27.3685 14.9316 27.3685 11.625C27.3685 6.30928 23.0594 2 17.7437 2ZM10.7438 11.625C10.7438 7.75899 13.8778 4.625 17.7437 4.625C21.6096 4.625 24.7435 7.75899 24.7435 11.625C24.7435 15.491 21.6096 18.625 17.7437 18.625C13.8778 18.625 10.7438 15.491 10.7438 11.625Z" fill="black" stroke="black" stroke-width="3" stroke-linecap="round"/>
</svg>
