<svg width="49" height="54" viewBox="0 0 49 54" fill="none" xmlns="http://www.w3.org/2000/svg">
<path d="M47.8892 43.4503C46.9451 37.7705 45.0435 32.3097 42.2726 27.3206C39.5535 22.3061 36.017 17.8234 31.8217 14.0733L31.5423 13.8403C31.4867 13.785 31.4509 13.7116 31.4407 13.6322C31.4305 13.5528 31.4467 13.4722 31.4864 13.4036L35.65 5.86284C35.9246 5.36712 36.0692 4.8048 36.0692 4.2324C36.0692 3.66 35.9246 3.09768 35.65 2.60196C35.3779 2.10593 34.9826 1.69544 34.5056 1.41365C34.0287 1.13187 33.4876 0.989193 32.9394 1.00064H16.0616C15.5138 0.991664 14.9737 1.13539 14.4971 1.41693C14.0206 1.69847 13.6249 2.10759 13.351 2.60196C13.0763 3.09768 12.9317 3.66 12.9317 4.2324C12.9317 4.8048 13.0763 5.36712 13.351 5.86284L17.5426 13.4036C17.5775 13.4757 17.5882 13.5579 17.573 13.6371C17.5578 13.7162 17.5176 13.7878 17.4587 13.8403L17.2072 14.0733C8.75712 21.6438 3.07219 32.0197 1.11177 43.4503C1.04795 43.9134 1.01062 44.3801 1 44.8478C1 47.0099 1.82433 49.0834 3.29165 50.6123C4.75897 52.1411 6.74908 53 8.82418 53H40.2048C41.3386 53.0009 42.4588 52.7433 43.487 52.2454C44.5152 51.7475 45.4264 51.0212 46.1567 50.1176C46.8907 49.2027 47.4257 48.1329 47.7248 46.9819C48.0239 45.8309 48.08 44.626 47.8892 43.4503ZM15.7821 4.40709C15.7458 4.35669 15.7262 4.2954 15.7262 4.2324C15.7262 4.1694 15.7458 4.10811 15.7821 4.05771C15.811 4.00873 15.8525 3.96914 15.9019 3.94342C15.9513 3.9177 16.0066 3.90686 16.0616 3.91214H32.9394C32.9978 3.91156 33.0555 3.92429 33.1086 3.94944C33.1617 3.97458 33.2089 4.01154 33.2468 4.05771C33.2895 4.16993 33.2895 4.29487 33.2468 4.40709L28.8038 12.5593H20.1972L15.7821 4.40709ZM30.0054 16.286C37.9363 23.4339 43.2809 33.1944 45.1507 43.9452C45.2729 44.7004 45.2362 45.4742 45.0432 46.2131C44.8502 46.9521 44.5055 47.6386 44.033 48.2251C43.5645 48.8086 42.9789 49.2778 42.3175 49.5998C41.656 49.9217 40.9348 50.0886 40.2048 50.0885H8.82418C7.49132 50.0847 6.21411 49.5313 5.27163 48.5493C4.32915 47.5673 3.79804 46.2365 3.79435 44.8478C3.79455 44.5448 3.82262 44.2426 3.87818 43.9452C5.71551 33.1821 11.0659 23.411 19.0236 16.286L19.9178 15.4708H29.0832L30.0054 16.286Z" fill="black" stroke="black" stroke-width="1.5"/>
<path d="M18.418 38.5312L20.1172 31.0664H21.0958L21.4825 31.9922L19.6719 39.5977H18.5997L18.418 38.5312ZM17.7559 31.0664L19.1797 38.5664L18.9337 39.5977H17.7149L15.8633 31.0664H17.7559ZM22.6954 38.5254L24.1016 31.0664H25.9883L24.1368 39.5977H22.9297L22.6954 38.5254ZM21.7344 31.0664L23.4571 38.5723L23.2579 39.5977H22.1915L20.3516 31.9863L20.7559 31.0664H21.7344ZM31.2911 37.3477C31.2911 37.2031 31.2696 37.0742 31.2266 36.9609C31.1837 36.8438 31.1055 36.7363 30.9922 36.6387C30.879 36.541 30.7188 36.4434 30.5118 36.3457C30.3047 36.2441 30.0333 36.1406 29.6973 36.0352C29.3145 35.9102 28.9493 35.7695 28.6016 35.6133C28.2579 35.4531 27.9512 35.2676 27.6817 35.0566C27.4122 34.8457 27.1993 34.5996 27.043 34.3184C26.8907 34.0371 26.8145 33.709 26.8145 33.334C26.8145 32.9707 26.8946 32.6426 27.0547 32.3496C27.2149 32.0566 27.4395 31.8066 27.7286 31.5996C28.0176 31.3887 28.3575 31.2285 28.7481 31.1191C29.1387 31.0059 29.5684 30.9492 30.0372 30.9492C30.6622 30.9492 31.211 31.0605 31.6837 31.2832C32.1602 31.502 32.5313 31.8105 32.7969 32.209C33.0626 32.6035 33.1954 33.0625 33.1954 33.5859H31.2969C31.2969 33.3555 31.2481 33.1523 31.1504 32.9766C31.0567 32.7969 30.9122 32.6562 30.7169 32.5547C30.5254 32.4531 30.2852 32.4023 29.9962 32.4023C29.7149 32.4023 29.4786 32.4453 29.2872 32.5312C29.0997 32.6133 28.9571 32.7266 28.8594 32.8711C28.7657 33.0156 28.7188 33.1738 28.7188 33.3457C28.7188 33.4824 28.754 33.6074 28.8243 33.7207C28.8985 33.8301 29.004 33.9336 29.1407 34.0312C29.2813 34.125 29.4532 34.2148 29.6563 34.3008C29.8594 34.3867 30.0919 34.4688 30.3536 34.5469C30.8106 34.6914 31.2149 34.8516 31.5665 35.0273C31.9219 35.2031 32.2208 35.4023 32.4629 35.625C32.7051 35.8477 32.8868 36.0996 33.0079 36.3809C33.1329 36.6621 33.1954 36.9805 33.1954 37.3359C33.1954 37.7148 33.1212 38.0508 32.9727 38.3438C32.8282 38.6367 32.6172 38.8867 32.3399 39.0938C32.0665 39.2969 31.7383 39.4512 31.3555 39.5566C30.9727 39.6621 30.545 39.7148 30.0723 39.7148C29.6426 39.7148 29.2188 39.6602 28.8008 39.5508C28.3829 39.4375 28.004 39.2656 27.6641 39.0352C27.3282 38.8047 27.0587 38.5117 26.8555 38.1562C26.6563 37.7969 26.5567 37.3711 26.5567 36.8789H28.4669C28.4669 37.1367 28.504 37.3555 28.5782 37.5352C28.6524 37.7109 28.7579 37.8535 28.8946 37.9629C29.0352 38.0723 29.2051 38.1504 29.4044 38.1973C29.6036 38.2441 29.8262 38.2676 30.0723 38.2676C30.3575 38.2676 30.5879 38.2285 30.7637 38.1504C30.9434 38.0684 31.0762 37.957 31.1622 37.8164C31.2481 37.6758 31.2911 37.5195 31.2911 37.3477Z" fill="black"/>
</svg>
