<svg width="27" height="25" viewBox="0 0 27 25" fill="none" xmlns="http://www.w3.org/2000/svg">
<path d="M25.0125 13.2293L26.9375 15.2856L17.9588 24.896L13.1875 19.7918L15.1125 17.7356L17.9588 20.7689L25.0125 13.2293ZM9.75 19.7918L13.875 24.1668H0.125V21.2502C0.125 18.0272 5.0475 15.4168 11.125 15.4168L13.7238 15.5772L9.75 19.7918ZM11.125 0.833496C12.5837 0.833496 13.9826 1.44808 15.0141 2.54204C16.0455 3.636 16.625 5.11973 16.625 6.66683C16.625 8.21393 16.0455 9.69766 15.0141 10.7916C13.9826 11.8856 12.5837 12.5002 11.125 12.5002C9.66631 12.5002 8.26736 11.8856 7.23591 10.7916C6.20446 9.69766 5.625 8.21393 5.625 6.66683C5.625 5.11973 6.20446 3.636 7.23591 2.54204C8.26736 1.44808 9.66631 0.833496 11.125 0.833496Z" fill="black"/>
</svg>
