<svg width="19" height="17" viewBox="0 0 19 17" fill="none" xmlns="http://www.w3.org/2000/svg">
<path d="M12.5229 9.99766C12.1004 9.64197 11.4696 9.69614 11.1139 10.1186C10.7582 10.5411 10.8124 11.172 11.2349 11.5277L12.5229 9.99766ZM16.4868 15.949C16.9093 16.3047 17.5402 16.2506 17.8959 15.8281C18.2515 15.4056 18.1974 14.7747 17.7749 14.419L16.4868 15.949ZM7.50228 11.2365C4.50234 11.2365 2.375 9.22033 2.375 7.07819H0.375C0.375 10.6337 3.73422 13.2365 7.50228 13.2365V11.2365ZM2.375 7.07819C2.375 4.93604 4.50234 2.91992 7.50228 2.91992V0.919922C3.73422 0.919922 0.375 3.52267 0.375 7.07819H2.375ZM7.50228 2.91992C10.5022 2.91992 12.6296 4.93604 12.6296 7.07819H14.6296C14.6296 3.52267 11.2703 0.919922 7.50228 0.919922V2.91992ZM12.6296 7.07819C12.6296 9.22033 10.5022 11.2365 7.50228 11.2365V13.2365C11.2703 13.2365 14.6296 10.6337 14.6296 7.07819H12.6296ZM11.2349 11.5277L16.4868 15.949L17.7749 14.419L12.5229 9.99766L11.2349 11.5277Z" fill="white"/>
</svg>
