<svg width="102" height="105" viewBox="0 0 102 105" fill="none" xmlns="http://www.w3.org/2000/svg">
<path d="M35.3916 45.1768V58H32.8604V48.0947L29.8193 49.0615V47.0664L35.1191 45.1768H35.3916ZM48.1709 50.4766V52.6914C48.1709 53.6523 48.0684 54.4814 47.8633 55.1787C47.6582 55.8701 47.3623 56.4385 46.9756 56.8838C46.5947 57.3232 46.1406 57.6484 45.6133 57.8594C45.0859 58.0703 44.5 58.1758 43.8555 58.1758C43.3398 58.1758 42.8594 58.1113 42.4141 57.9824C41.9688 57.8477 41.5674 57.6396 41.21 57.3584C40.8584 57.0771 40.5537 56.7227 40.2959 56.2949C40.0439 55.8613 39.8506 55.3457 39.7158 54.748C39.5811 54.1504 39.5137 53.4648 39.5137 52.6914V50.4766C39.5137 49.5156 39.6162 48.6924 39.8213 48.0068C40.0322 47.3154 40.3281 46.75 40.709 46.3105C41.0957 45.8711 41.5527 45.5488 42.0801 45.3438C42.6074 45.1328 43.1934 45.0273 43.8379 45.0273C44.3535 45.0273 44.8311 45.0947 45.2705 45.2295C45.7158 45.3584 46.1172 45.5605 46.4746 45.8359C46.832 46.1113 47.1367 46.4658 47.3887 46.8994C47.6406 47.3271 47.834 47.8398 47.9688 48.4375C48.1035 49.0293 48.1709 49.709 48.1709 50.4766ZM45.6309 53.0254V50.1338C45.6309 49.6709 45.6045 49.2666 45.5518 48.9209C45.5049 48.5752 45.4316 48.2822 45.332 48.042C45.2324 47.7959 45.1094 47.5967 44.9629 47.4443C44.8164 47.292 44.6494 47.1807 44.4619 47.1104C44.2744 47.04 44.0664 47.0049 43.8379 47.0049C43.5508 47.0049 43.2959 47.0605 43.0732 47.1719C42.8564 47.2832 42.6719 47.4619 42.5195 47.708C42.3672 47.9482 42.25 48.2705 42.168 48.6748C42.0918 49.0732 42.0537 49.5596 42.0537 50.1338V53.0254C42.0537 53.4883 42.0771 53.8955 42.124 54.2471C42.1768 54.5986 42.2529 54.9004 42.3525 55.1523C42.458 55.3984 42.5811 55.6006 42.7217 55.7588C42.8682 55.9111 43.0352 56.0225 43.2227 56.0928C43.416 56.1631 43.627 56.1982 43.8555 56.1982C44.1367 56.1982 44.3857 56.1426 44.6025 56.0312C44.8252 55.9141 45.0127 55.7324 45.165 55.4863C45.3232 55.2344 45.4404 54.9062 45.5166 54.502C45.5928 54.0977 45.6309 53.6055 45.6309 53.0254ZM58.5068 50.4766V52.6914C58.5068 53.6523 58.4043 54.4814 58.1992 55.1787C57.9941 55.8701 57.6982 56.4385 57.3115 56.8838C56.9307 57.3232 56.4766 57.6484 55.9492 57.8594C55.4219 58.0703 54.8359 58.1758 54.1914 58.1758C53.6758 58.1758 53.1953 58.1113 52.75 57.9824C52.3047 57.8477 51.9033 57.6396 51.5459 57.3584C51.1943 57.0771 50.8896 56.7227 50.6318 56.2949C50.3799 55.8613 50.1865 55.3457 50.0518 54.748C49.917 54.1504 49.8496 53.4648 49.8496 52.6914V50.4766C49.8496 49.5156 49.9521 48.6924 50.1572 48.0068C50.3682 47.3154 50.6641 46.75 51.0449 46.3105C51.4316 45.8711 51.8887 45.5488 52.416 45.3438C52.9434 45.1328 53.5293 45.0273 54.1738 45.0273C54.6895 45.0273 55.167 45.0947 55.6064 45.2295C56.0518 45.3584 56.4531 45.5605 56.8105 45.8359C57.168 46.1113 57.4727 46.4658 57.7246 46.8994C57.9766 47.3271 58.1699 47.8398 58.3047 48.4375C58.4395 49.0293 58.5068 49.709 58.5068 50.4766ZM55.9668 53.0254V50.1338C55.9668 49.6709 55.9404 49.2666 55.8877 48.9209C55.8408 48.5752 55.7676 48.2822 55.668 48.042C55.5684 47.7959 55.4453 47.5967 55.2988 47.4443C55.1523 47.292 54.9854 47.1807 54.7979 47.1104C54.6104 47.04 54.4023 47.0049 54.1738 47.0049C53.8867 47.0049 53.6318 47.0605 53.4092 47.1719C53.1924 47.2832 53.0078 47.4619 52.8555 47.708C52.7031 47.9482 52.5859 48.2705 52.5039 48.6748C52.4277 49.0732 52.3896 49.5596 52.3896 50.1338V53.0254C52.3896 53.4883 52.4131 53.8955 52.46 54.2471C52.5127 54.5986 52.5889 54.9004 52.6885 55.1523C52.7939 55.3984 52.917 55.6006 53.0576 55.7588C53.2041 55.9111 53.3711 56.0225 53.5586 56.0928C53.752 56.1631 53.9629 56.1982 54.1914 56.1982C54.4727 56.1982 54.7217 56.1426 54.9385 56.0312C55.1611 55.9141 55.3486 55.7324 55.501 55.4863C55.6592 55.2344 55.7764 54.9062 55.8525 54.502C55.9287 54.0977 55.9668 53.6055 55.9668 53.0254ZM60.1943 48.3408V47.6641C60.1943 47.1777 60.2998 46.7354 60.5107 46.3369C60.7217 45.9385 61.0322 45.6191 61.4424 45.3789C61.8525 45.1387 62.3564 45.0186 62.9541 45.0186C63.5693 45.0186 64.082 45.1387 64.4922 45.3789C64.9082 45.6191 65.2188 45.9385 65.4238 46.3369C65.6348 46.7354 65.7402 47.1777 65.7402 47.6641V48.3408C65.7402 48.8154 65.6348 49.252 65.4238 49.6504C65.2188 50.0488 64.9111 50.3682 64.501 50.6084C64.0908 50.8486 63.584 50.9688 62.9805 50.9688C62.3711 50.9688 61.8584 50.8486 61.4424 50.6084C61.0322 50.3682 60.7217 50.0488 60.5107 49.6504C60.2998 49.252 60.1943 48.8154 60.1943 48.3408ZM61.873 47.6641V48.3408C61.873 48.5459 61.9111 48.7422 61.9873 48.9297C62.0693 49.1113 62.1924 49.2607 62.3564 49.3779C62.5264 49.4893 62.7314 49.5449 62.9717 49.5449C63.2236 49.5449 63.4287 49.4893 63.5869 49.3779C63.7451 49.2607 63.8623 49.1113 63.9385 48.9297C64.0146 48.7422 64.0527 48.5459 64.0527 48.3408V47.6641C64.0527 47.4473 64.0117 47.248 63.9297 47.0664C63.8535 46.8789 63.7334 46.7295 63.5693 46.6182C63.4111 46.501 63.2061 46.4424 62.9541 46.4424C62.7197 46.4424 62.5205 46.501 62.3564 46.6182C62.1924 46.7295 62.0693 46.8789 61.9873 47.0664C61.9111 47.248 61.873 47.4473 61.873 47.6641ZM66.3115 55.5391V54.8623C66.3115 54.3818 66.417 53.9424 66.6279 53.5439C66.8447 53.1455 67.1582 52.8262 67.5684 52.5859C67.9844 52.3457 68.4941 52.2256 69.0977 52.2256C69.707 52.2256 70.2168 52.3457 70.627 52.5859C71.0371 52.8262 71.3477 53.1455 71.5586 53.5439C71.7695 53.9424 71.875 54.3818 71.875 54.8623V55.5391C71.875 56.0195 71.7695 56.459 71.5586 56.8574C71.3535 57.2559 71.0459 57.5752 70.6357 57.8154C70.2256 58.0557 69.7188 58.1758 69.1152 58.1758C68.5059 58.1758 67.9932 58.0557 67.5771 57.8154C67.1611 57.5752 66.8447 57.2559 66.6279 56.8574C66.417 56.459 66.3115 56.0195 66.3115 55.5391ZM67.999 54.8623V55.5391C67.999 55.75 68.0459 55.9492 68.1396 56.1367C68.2334 56.3242 68.3623 56.4736 68.5264 56.585C68.6963 56.6963 68.8926 56.752 69.1152 56.752C69.3965 56.752 69.6162 56.6963 69.7744 56.585C69.9326 56.4736 70.041 56.3242 70.0996 56.1367C70.1641 55.9492 70.1963 55.75 70.1963 55.5391V54.8623C70.1963 54.6514 70.1553 54.4551 70.0732 54.2734C69.9912 54.0859 69.8682 53.9365 69.7041 53.8252C69.5459 53.708 69.3438 53.6494 69.0977 53.6494C68.8516 53.6494 68.6465 53.708 68.4824 53.8252C68.3242 53.9365 68.2041 54.0859 68.1221 54.2734C68.04 54.4551 67.999 54.6514 67.999 54.8623ZM69.7217 47.0312L63.4727 57.0332L62.2422 56.3828L68.4912 46.3809L69.7217 47.0312Z" fill="black"/>
<path d="M100.942 48.1184C101.69 57.4067 100.046 66.7347 96.1767 75.144C92.3078 83.5533 86.3542 90.7406 78.9274 95.9677C71.5007 101.195 62.8686 104.273 53.918 104.886C44.9675 105.499 36.0212 103.626 27.9983 99.457C19.9754 95.2884 13.1651 88.9755 8.26717 81.1668C3.36924 73.3582 0.560254 64.3353 0.128794 55.0253C-0.302667 45.7152 1.65896 36.4536 5.81213 28.1921C9.96531 19.9305 16.1603 12.9668 23.7606 8.01647L27.5102 14.2325C20.972 18.4911 15.6426 24.4817 12.0698 31.5888C8.497 38.6959 6.80949 46.6633 7.18066 54.6724C7.55183 62.6815 9.9683 70.4435 14.1818 77.161C18.3953 83.8785 24.2539 89.3093 31.1557 92.8953C38.0576 96.4814 45.7537 98.0935 53.4536 97.566C61.1534 97.0384 68.5793 94.3903 74.9682 89.8937C81.3572 85.397 86.4789 79.214 89.8071 71.9798C93.1354 64.7456 94.5502 56.7211 93.9062 48.7307L100.942 48.1184Z" fill="url(#paint0_linear_2466_9462)"/>
<path d="M100.871 48.1184C100.148 39.1444 97.2153 30.5145 92.3552 23.0584C87.4951 15.6023 80.871 9.57056 73.1196 5.54304C65.3681 1.51552 56.75 -0.372396 48.0936 0.0607681C39.4371 0.493933 31.0334 3.23361 23.6903 8.01646L27.6021 14.5012C33.8747 10.4156 41.0533 8.07533 48.4478 7.70531C55.8423 7.3353 63.2041 8.94799 69.8256 12.3884C76.447 15.8288 82.1055 20.9812 86.2571 27.3504C90.4087 33.7195 92.9138 41.0913 93.5316 48.7571L100.871 48.1184Z" fill="url(#paint1_linear_2466_9462)"/>
<defs>
<linearGradient id="paint0_linear_2466_9462" x1="50.5941" y1="0" x2="50.5941" y2="105" gradientUnits="userSpaceOnUse">
<stop stop-color="#FF2C15"/>
<stop offset="1" stop-color="#FA9317"/>
</linearGradient>
<linearGradient id="paint1_linear_2466_9462" x1="-8.0838" y1="-6.4951e-07" x2="146.566" y2="77.987" gradientUnits="userSpaceOnUse">
<stop stop-color="#FF2C15"/>
<stop offset="0.824926" stop-color="#FA931A"/>
</linearGradient>
</defs>
</svg>
