<svg width="20" height="19" viewBox="0 0 20 19" fill="none" xmlns="http://www.w3.org/2000/svg">
<path d="M14 5.09696H18C18.5523 5.09696 19 5.57542 19 6.16564V17.9211L15.6665 14.9617C15.487 14.8023 15.2612 14.715 15.0278 14.715H7C6.44771 14.715 6 14.2366 6 13.6464V10.4403M13 0.822266C13.5523 0.822266 14 1.30073 14 1.89094V9.37166C14 9.96187 13.5523 10.4403 13 10.4403H4.97217C4.73875 10.4403 4.51304 10.5276 4.3335 10.687L1 13.6464V1.89094C1 1.30073 1.44772 0.822266 2 0.822266H13Z" stroke="black" stroke-linecap="round" stroke-linejoin="round"/>
</svg>
