<svg width="118" height="20" viewBox="0 0 118 20" fill="none" xmlns="http://www.w3.org/2000/svg">
<path d="M10.1634 0.745838L13.2216 5.23926L13.3147 5.37608L13.4762 5.41251L19.0282 6.66501L15.3646 10.6355L15.2402 10.7703L15.2546 10.9531L15.6672 16.1739L10.3095 14.1836L10.1634 14.1293L10.0173 14.1836L4.65962 16.1739L5.07213 10.9531L5.08658 10.7703L4.96221 10.6355L1.29859 6.66501L6.85062 5.41251L7.01207 5.37608L7.10519 5.23926L10.1634 0.745838Z" stroke="black" stroke-width="0.839286"/>
<path d="M34.4876 0.745838L37.5458 5.23926L37.6389 5.37608L37.8004 5.41251L43.3524 6.66501L39.6888 10.6355L39.5644 10.7703L39.5789 10.9531L39.9914 16.1739L34.6337 14.1836L34.4876 14.1293L34.3415 14.1836L28.9838 16.1739L29.3964 10.9531L29.4108 10.7703L29.2864 10.6355L25.6228 6.66501L31.1748 5.41251L31.3363 5.37608L31.4294 5.23926L34.4876 0.745838Z" stroke="black" stroke-width="0.839286"/>
<path d="M58.8099 0.745838L61.8681 5.23926L61.9612 5.37608L62.1226 5.41251L67.6747 6.66501L64.0111 10.6355L63.8867 10.7703L63.9011 10.9531L64.3136 16.1739L58.956 14.1836L58.8099 14.1293L58.6637 14.1836L53.3061 16.1739L53.7186 10.9531L53.7331 10.7703L53.6087 10.6355L49.9451 6.66501L55.4971 5.41251L55.6586 5.37608L55.7517 5.23926L58.8099 0.745838Z" stroke="black" stroke-width="0.839286"/>
<path d="M83.1341 1.66258L86.1259 6.0584L86.2368 6.22142L86.4292 6.26482L91.8455 7.4867L88.2762 11.3549L88.128 11.5155L88.1452 11.7334L88.5478 16.8286L83.3082 14.8822L83.1341 14.8175L82.96 14.8822L77.7203 16.8286L78.1229 11.7334L78.1402 11.5155L77.992 11.3549L74.4227 7.4867L79.839 6.26482L80.0314 6.22142L80.1423 6.0584L83.1341 1.66258Z" stroke="black"/>
<path d="M107.458 1.66258L110.45 6.0584L110.561 6.22142L110.753 6.26482L116.17 7.4867L112.6 11.3549L112.452 11.5155L112.469 11.7334L112.872 16.8286L107.632 14.8822L107.458 14.8175L107.284 14.8822L102.045 16.8286L102.447 11.7334L102.464 11.5155L102.316 11.3549L98.7469 7.4867L104.163 6.26482L104.356 6.22142L104.467 6.0584L107.458 1.66258Z" stroke="black"/>
</svg>
