<svg width="119" height="20" viewBox="0 0 119 20" fill="none" xmlns="http://www.w3.org/2000/svg">
<path d="M10.888 0.566406L14.2931 5.56956L20.554 6.98197L16.3976 11.4865L16.8619 17.3626L10.888 15.1434L4.91411 17.3626L5.3784 11.4865L1.22204 6.98197L7.48288 5.56956L10.888 0.566406Z" fill="#FF8A00"/>
<path d="M35.2122 0.566406L38.6173 5.56956L44.8782 6.98197L40.7218 11.4865L41.1861 17.3626L35.2122 15.1434L29.2383 17.3626L29.7026 11.4865L25.5463 6.98197L31.8071 5.56956L35.2122 0.566406Z" fill="#FF8A00"/>
<path d="M59.5345 0.566406L62.9396 5.56956L69.2004 6.98197L65.0441 11.4865L65.5084 17.3626L59.5345 15.1434L53.5606 17.3626L54.0249 11.4865L49.8685 6.98197L56.1294 5.56956L59.5345 0.566406Z" fill="#FF8A00"/>
<path d="M83.8587 2.2285L86.8505 6.62432L86.9614 6.78734L87.1538 6.83074L92.5701 8.05262L89.0008 11.9209L88.8526 12.0815L88.8699 12.2993L89.2725 17.3945L84.0328 15.4481L83.8587 15.3834L83.6846 15.4481L78.445 17.3945L78.8476 12.2993L78.8648 12.0815L78.7166 11.9209L75.1473 8.05262L80.5636 6.83074L80.756 6.78734L80.8669 6.62432L83.8587 2.2285Z" stroke="white"/>
<path d="M108.183 2.2285L111.175 6.62432L111.286 6.78734L111.478 6.83074L116.894 8.05262L113.325 11.9209L113.177 12.0815L113.194 12.2993L113.597 17.3945L108.357 15.4481L108.183 15.3834L108.009 15.4481L102.769 17.3945L103.172 12.2993L103.189 12.0815L103.041 11.9209L99.4715 8.05262L104.888 6.83074L105.08 6.78734L105.191 6.62432L108.183 2.2285Z" stroke="white"/>
</svg>
