<svg width="34" height="35" viewBox="0 0 34 35" fill="none" xmlns="http://www.w3.org/2000/svg">
<path fill-rule="evenodd" clip-rule="evenodd" d="M16.7437 1C11.428 1 7.11881 5.30928 7.11881 10.625C7.11881 13.9316 8.78614 16.8487 11.3259 18.5815C5.43795 20.7383 1.19668 26.3101 1.00059 32.8985C0.979028 33.623 1.54891 34.2279 2.27347 34.2494C2.99802 34.271 3.60287 33.7011 3.62443 32.9765C3.83467 25.9126 9.62805 20.25 16.7435 20.25C23.859 20.25 29.6523 25.9126 29.8626 32.9765C29.8842 33.7011 30.489 34.271 31.2136 34.2494C31.9381 34.2279 32.508 33.623 32.4864 32.8985C32.2903 26.3102 28.0492 20.7385 22.1613 18.5816C24.7012 16.8488 26.3685 13.9316 26.3685 10.625C26.3685 5.30928 22.0594 1 16.7437 1ZM9.74381 10.625C9.74381 6.75899 12.8778 3.625 16.7437 3.625C20.6096 3.625 23.7435 6.75899 23.7435 10.625C23.7435 14.491 20.6096 17.625 16.7437 17.625C12.8778 17.625 9.74381 14.491 9.74381 10.625Z" fill="black" stroke="black" stroke-width="1.5" stroke-linecap="round"/>
</svg>
