<svg width="36" height="42" viewBox="0 0 36 42" fill="none" xmlns="http://www.w3.org/2000/svg">
<path d="M35.1556 33.3001C34.4679 28.9784 33.0829 24.8233 31.0645 21.0271C29.084 17.2117 26.508 13.8008 23.4522 10.9473L23.2487 10.7701C23.2082 10.728 23.1821 10.6722 23.1747 10.6118C23.1673 10.5513 23.179 10.49 23.208 10.4378L26.2407 4.7001C26.4407 4.32291 26.5461 3.89505 26.5461 3.45951C26.5461 3.02397 26.4407 2.59611 26.2407 2.21892C26.0425 1.8415 25.7546 1.52916 25.4072 1.31475C25.0597 1.10034 24.6657 0.991777 24.2663 1.00049H11.9727C11.5737 0.993658 11.1803 1.10301 10.8331 1.31724C10.486 1.53146 10.1978 1.84276 9.99833 2.21892C9.79825 2.59611 9.69292 3.02397 9.69292 3.45951C9.69292 3.89505 9.79825 4.32291 9.99833 4.7001L13.0514 10.4378C13.0768 10.4927 13.0846 10.5552 13.0736 10.6154C13.0625 10.6757 13.0332 10.7301 12.9903 10.7701L12.8072 10.9473C6.65217 16.7077 2.51132 24.6027 1.08337 33.3001C1.03688 33.6525 1.00969 34.0076 1.00195 34.3635C1.00195 36.0086 1.60239 37.5863 2.67117 38.7496C3.73995 39.9129 5.18953 40.5664 6.70102 40.5664H29.5583C30.3842 40.5671 31.2002 40.3711 31.9491 39.9922C32.698 39.6134 33.3617 39.0608 33.8937 38.3732C34.4283 37.6771 34.818 36.8631 35.0359 35.9873C35.2537 35.1115 35.2946 34.1947 35.1556 33.3001ZM11.7691 3.59243C11.7427 3.55408 11.7284 3.50744 11.7284 3.45951C11.7284 3.41158 11.7427 3.36494 11.7691 3.32659C11.7902 3.28932 11.8204 3.2592 11.8564 3.23962C11.8923 3.22005 11.9326 3.21181 11.9727 3.21582H24.2663C24.3088 3.21538 24.3509 3.22507 24.3896 3.2442C24.4282 3.26334 24.4626 3.29146 24.4902 3.32659C24.5213 3.41198 24.5213 3.50704 24.4902 3.59243L21.254 9.79537H14.985L11.7691 3.59243ZM22.1292 12.631C27.9061 18.0698 31.799 25.4964 33.161 33.6767C33.2499 34.2513 33.2232 34.8401 33.0826 35.4023C32.942 35.9646 32.691 36.4869 32.3468 36.9333C32.0056 37.3772 31.579 37.7342 31.0972 37.9792C30.6154 38.2242 30.0901 38.3511 29.5583 38.3511H6.70102C5.73017 38.3481 4.79986 37.9271 4.11337 37.1799C3.42688 36.4327 3.04002 35.4201 3.03733 34.3635C3.03748 34.1329 3.05792 33.903 3.09839 33.6767C4.43669 25.4871 8.33384 18.0523 14.1302 12.631L14.7815 12.0107H21.4575L22.1292 12.631Z" fill="white" stroke="white" stroke-width="1.5"/>
<path d="M11.9961 31.9336L13.6953 24.4688H14.6738L15.0605 25.3945L13.25 33H12.1777L11.9961 31.9336ZM11.334 24.4688L12.7578 31.9688L12.5117 33H11.293L9.44141 24.4688H11.334ZM16.2734 31.9277L17.6797 24.4688H19.5664L17.7148 33H16.5078L16.2734 31.9277ZM15.3125 24.4688L17.0352 31.9746L16.8359 33H15.7695L13.9297 25.3887L14.334 24.4688H15.3125ZM24.8691 30.75C24.8691 30.6055 24.8477 30.4766 24.8047 30.3633C24.7617 30.2461 24.6836 30.1387 24.5703 30.041C24.457 29.9434 24.2969 29.8457 24.0898 29.748C23.8828 29.6465 23.6113 29.543 23.2754 29.4375C22.8926 29.3125 22.5273 29.1719 22.1797 29.0156C21.8359 28.8555 21.5293 28.6699 21.2598 28.459C20.9902 28.248 20.7773 28.002 20.6211 27.7207C20.4688 27.4395 20.3926 27.1113 20.3926 26.7363C20.3926 26.373 20.4727 26.0449 20.6328 25.752C20.793 25.459 21.0176 25.209 21.3066 25.002C21.5957 24.791 21.9355 24.6309 22.3262 24.5215C22.7168 24.4082 23.1465 24.3516 23.6152 24.3516C24.2402 24.3516 24.7891 24.4629 25.2617 24.6855C25.7383 24.9043 26.1094 25.2129 26.375 25.6113C26.6406 26.0059 26.7734 26.4648 26.7734 26.9883H24.875C24.875 26.7578 24.8262 26.5547 24.7285 26.3789C24.6348 26.1992 24.4902 26.0586 24.2949 25.957C24.1035 25.8555 23.8633 25.8047 23.5742 25.8047C23.293 25.8047 23.0566 25.8477 22.8652 25.9336C22.6777 26.0156 22.5352 26.1289 22.4375 26.2734C22.3438 26.418 22.2969 26.5762 22.2969 26.748C22.2969 26.8848 22.332 27.0098 22.4023 27.123C22.4766 27.2324 22.582 27.3359 22.7188 27.4336C22.8594 27.5273 23.0312 27.6172 23.2344 27.7031C23.4375 27.7891 23.6699 27.8711 23.9316 27.9492C24.3887 28.0938 24.793 28.2539 25.1445 28.4297C25.5 28.6055 25.7988 28.8047 26.041 29.0273C26.2832 29.25 26.4648 29.502 26.5859 29.7832C26.7109 30.0645 26.7734 30.3828 26.7734 30.7383C26.7734 31.1172 26.6992 31.4531 26.5508 31.7461C26.4062 32.0391 26.1953 32.2891 25.918 32.4961C25.6445 32.6992 25.3164 32.8535 24.9336 32.959C24.5508 33.0645 24.123 33.1172 23.6504 33.1172C23.2207 33.1172 22.7969 33.0625 22.3789 32.9531C21.9609 32.8398 21.582 32.668 21.2422 32.4375C20.9062 32.207 20.6367 31.9141 20.4336 31.5586C20.2344 31.1992 20.1348 30.7734 20.1348 30.2812H22.0449C22.0449 30.5391 22.082 30.7578 22.1562 30.9375C22.2305 31.1133 22.3359 31.2559 22.4727 31.3652C22.6133 31.4746 22.7832 31.5527 22.9824 31.5996C23.1816 31.6465 23.4043 31.6699 23.6504 31.6699C23.9355 31.6699 24.166 31.6309 24.3418 31.5527C24.5215 31.4707 24.6543 31.3594 24.7402 31.2188C24.8262 31.0781 24.8691 30.9219 24.8691 30.75Z" fill="white"/>
</svg>
