<svg xmlns="http://www.w3.org/2000/svg" width="23" height="24" viewBox="0 0 23 24" fill="none">
  <path d="M1.53241 15.1604L2.01947 14.6844C2.17662 14.5307 2.2651 14.3224 2.2651 14.1052V9.55556C2.2651 4.83046 6.18402 1.00001 11.0182 1C15.8525 0.999988 19.7714 4.83045 19.7714 9.55556V14.1052C19.7714 14.3224 19.8597 14.5307 20.0168 14.6844L20.5039 15.1605C20.6531 15.3063 20.7278 15.3792 20.7873 15.4601C20.8996 15.613 20.9741 15.7893 21.0053 15.9751C21.0218 16.0734 21.0221 16.1765 21.0221 16.3827C21.0221 16.8539 21.0221 17.0895 20.9565 17.2796C20.8317 17.6412 20.5412 17.925 20.1712 18.047C19.9768 18.1111 19.7353 18.1111 19.2532 18.1111H2.78286C2.30075 18.1111 2.05962 18.1111 1.86517 18.047C1.49521 17.925 1.20503 17.6412 1.08024 17.2796C1.01465 17.0895 1.01465 16.8539 1.01465 16.3827C1.01465 16.1765 1.01465 16.0734 1.03115 15.9751C1.06235 15.7893 1.13676 15.613 1.24911 15.4601C1.30856 15.3792 1.38323 15.3062 1.53241 15.1604ZM14.7696 18.1111V19.3333C14.7696 21.3584 13.09 23 11.0182 23C8.94642 23 7.26689 21.3584 7.26689 19.3333V18.1111H14.7696Z" stroke="white" stroke-width="2" stroke-linecap="round" stroke-linejoin="round"/>
</svg>