<svg xmlns="http://www.w3.org/2000/svg" width="119" height="20" viewBox="0 0 119 20" fill="none">
  <path d="M10.887 0.566406L14.2921 5.56956L20.553 6.98197L16.3966 11.4865L16.8609 17.3626L10.887 15.1434L4.91313 17.3626L5.37743 11.4865L1.22106 6.98197L7.48191 5.56956L10.887 0.566406Z" fill="#FF8A00"/>
  <path d="M35.2103 0.566406L38.6154 5.56956L44.8762 6.98197L40.7199 11.4865L41.1842 17.3626L35.2103 15.1434L29.2364 17.3626L29.7007 11.4865L25.5443 6.98197L31.8051 5.56956L35.2103 0.566406Z" fill="#FF8A00"/>
  <path d="M59.5345 0.566406L62.9396 5.56956L69.2004 6.98197L65.0441 11.4865L65.5084 17.3626L59.5345 15.1434L53.5606 17.3626L54.0249 11.4865L49.8685 6.98197L56.1294 5.56956L59.5345 0.566406Z" fill="#FF8A00"/>
  <path d="M83.8577 2.22899L86.8495 6.6248L86.9604 6.78783L87.1528 6.83122L92.5691 8.05311L88.9999 11.9214L88.8517 12.082L88.8689 12.2998L89.2715 17.395L84.0318 15.4486L83.8577 15.3839L83.6836 15.4486L78.444 17.395L78.8466 12.2998L78.8638 12.082L78.7156 11.9214L75.1463 8.05311L80.5626 6.83122L80.755 6.78783L80.866 6.6248L83.8577 2.22899Z" stroke="white"/>
  <path d="M108.182 2.22899L111.174 6.6248L111.285 6.78783L111.477 6.83122L116.893 8.05311L113.324 11.9214L113.176 12.082L113.193 12.2998L113.596 17.395L108.356 15.4486L108.182 15.3839L108.008 15.4486L102.768 17.395L103.171 12.2998L103.188 12.082L103.04 11.9214L99.4706 8.05311L104.887 6.83122L105.079 6.78783L105.19 6.6248L108.182 2.22899Z" stroke="white"/>
</svg>