<svg width="39" height="36" viewBox="0 0 39 36" fill="none" xmlns="http://www.w3.org/2000/svg">
<g id="App Icon">
<path id="Fill 1" fill-rule="evenodd" clip-rule="evenodd" d="M8.77647 0C4.48791 0 0.979492 3.3224 0.979492 7.38373V28.6173C0.979492 32.6781 4.48791 36 8.77647 36H31.2033C35.4696 36 38.9648 32.712 39.0005 28.6798V7.32148C38.9648 3.28852 35.4696 0 31.2033 0H8.77647Z" fill="url(#paint0_linear_4572_5826)"/>
<path id="Fill 4" fill-rule="evenodd" clip-rule="evenodd" d="M35.6453 21.2717C35.6453 17.1217 31.3893 13.7637 26.14 13.7637C20.8905 13.7637 16.6348 17.1217 16.6348 21.2717C16.6348 25.4068 20.8905 28.7648 26.14 28.7797C27.2245 28.7648 28.2718 28.6181 29.2578 28.3466C29.3308 28.328 29.3248 28.3288 29.5161 28.2932C29.7074 28.2576 29.8738 28.3466 30.0182 28.4188L32.0713 29.5738C32.1658 29.6219 32.2217 29.646 32.2994 29.646C32.4659 29.646 32.6073 29.5117 32.6036 29.3573C32.6073 29.2719 32.5786 29.2041 32.5563 29.1327C32.534 29.0612 32.2793 28.1805 32.1474 27.6246C32.1287 27.5459 32.1185 27.5006 32.1185 27.3516C32.1185 27.2026 32.1998 27.0426 32.3755 26.9027C34.3646 25.5586 35.6453 23.524 35.6453 21.2717ZM23.3099 20.1176C22.7263 20.1176 22.2255 19.6437 22.2255 19.0267C22.2255 18.4742 22.7263 18 23.3099 18C23.9616 18 24.462 18.4742 24.462 19.0267C24.462 19.6437 23.9616 20.1176 23.3099 20.1176ZM28.9032 20.1176C28.3197 20.1176 27.8188 19.6437 27.8188 19.0267C27.8188 18.4742 28.3197 18 28.9032 18C29.555 18 30.0554 18.4742 30.0554 19.0267C30.0554 19.6437 29.555 20.1176 28.9032 20.1176Z" fill="white"/>
<path id="Fill 6" fill-rule="evenodd" clip-rule="evenodd" d="M4.33447 15.3766C4.33447 18.0657 5.85019 20.5067 8.23715 22.1627C8.41296 22.2872 8.50704 22.4296 8.50697 22.6686C8.50704 22.7512 8.49196 22.8401 8.4623 22.9568C8.26276 23.7423 8.04356 24.6412 8.01199 24.7616C7.98042 24.882 7.93065 24.9623 7.93694 25.0504C7.93065 25.2503 8.0982 25.4114 8.3122 25.4114C8.387 25.4114 8.45365 25.3821 8.53735 25.3392L11.014 23.9675C11.1709 23.8762 11.3469 23.8292 11.4657 23.8292C11.5845 23.8292 11.7828 23.8647 11.9147 23.8953C13.0629 24.1776 14.3027 24.3541 15.5922 24.3285C15.794 24.3541 15.9998 24.349 16.1926 24.3285C15.9602 23.6378 15.8267 22.8984 15.8173 22.1627C15.8267 17.6006 20.4209 13.9251 26.0994 13.9328C26.294 13.9251 26.4972 13.9313 26.6998 13.9328C25.8524 9.6409 21.2001 6.35254 15.5922 6.35254C9.37223 6.35254 4.33447 10.3826 4.33447 15.3766ZM11.6026 13.7653C10.676 13.7653 9.92518 13.0544 9.92518 12.1771C9.92518 11.3 10.676 10.5889 11.6026 10.5889C12.5291 10.5889 13.28 11.3 13.28 12.1771C13.28 13.0544 12.5291 13.7653 11.6026 13.7653ZM19.4317 13.7653C18.5051 13.7653 17.7543 13.0544 17.7543 12.1771C17.7543 11.3 18.5051 10.5889 19.4317 10.5889C20.358 10.5889 21.1091 11.3 21.1091 12.1771C21.1091 13.0544 20.358 13.7653 19.4317 13.7653Z" fill="white"/>
</g>
<defs>
<linearGradient id="paint0_linear_4572_5826" x1="0.979492" y1="0" x2="0.979492" y2="36" gradientUnits="userSpaceOnUse">
<stop stop-color="#20D329"/>
<stop offset="1" stop-color="#1BB623"/>
</linearGradient>
</defs>
</svg>
