<svg viewBox="0 0 16 16" fill="none" xmlns="http://www.w3.org/2000/svg">
<path d="M8.03735 10.5875H8.53735C8.53735 10.3113 8.3135 10.0875 8.03735 10.0875V10.5875ZM8.03735 10.6625L8.03723 11.1625C8.16986 11.1625 8.29707 11.1098 8.39086 11.0161C8.48466 10.9223 8.53735 10.7951 8.53735 10.6625H8.03735ZM7.96265 10.6624H7.46265C7.46265 10.9385 7.68643 11.1624 7.96252 11.1624L7.96265 10.6624ZM7.96265 10.5875V10.0875C7.6865 10.0875 7.46265 10.3113 7.46265 10.5875H7.96265ZM8.5 5.33746C8.5 5.06132 8.27614 4.83746 8 4.83746C7.72386 4.83746 7.5 5.06132 7.5 5.33746H8.5ZM7.5 8.33746C7.5 8.61361 7.72386 8.83746 8 8.83746C8.27614 8.83746 8.5 8.61361 8.5 8.33746H7.5ZM8 14.25C4.54822 14.25 1.75 11.4518 1.75 8H0.75C0.75 12.0041 3.99594 15.25 8 15.25V14.25ZM1.75 8C1.75 4.54822 4.54822 1.75 8 1.75V0.75C3.99594 0.75 0.75 3.99594 0.75 8H1.75ZM8 1.75C11.4518 1.75 14.25 4.54822 14.25 8H15.25C15.25 3.99594 12.0041 0.75 8 0.75V1.75ZM14.25 8C14.25 11.4518 11.4518 14.25 8 14.25V15.25C12.0041 15.25 15.25 12.0041 15.25 8H14.25ZM7.53735 10.5875V10.6625H8.53735V10.5875H7.53735ZM8.03748 10.1625L7.96277 10.1624L7.96252 11.1624L8.03723 11.1625L8.03748 10.1625ZM8.46265 10.6624V10.5875H7.46265V10.6624H8.46265ZM7.96265 11.0875H8.03735V10.0875H7.96265V11.0875ZM7.5 5.33746V8.33746H8.5V5.33746H7.5Z"/>
</svg>
