<svg width="19" height="18" viewBox="0 0 19 18" fill="none" xmlns="http://www.w3.org/2000/svg">
<path d="M12.5567 10.8964C12.3614 10.7012 12.0448 10.7012 11.8496 10.8964C11.6543 11.0917 11.6543 11.4083 11.8496 11.6036L12.5567 10.8964ZM16.3496 16.1036C16.5448 16.2988 16.8614 16.2988 17.0567 16.1036C17.2519 15.9083 17.2519 15.5917 17.0567 15.3964L16.3496 16.1036ZM8.45312 12.25C5.82977 12.25 3.70312 10.1234 3.70312 7.5H2.70312C2.70312 10.6756 5.27749 13.25 8.45312 13.25V12.25ZM3.70312 7.5C3.70312 4.87665 5.82977 2.75 8.45312 2.75V1.75C5.27749 1.75 2.70312 4.32436 2.70312 7.5H3.70312ZM8.45312 2.75C11.0765 2.75 13.2031 4.87665 13.2031 7.5H14.2031C14.2031 4.32436 11.6288 1.75 8.45312 1.75V2.75ZM13.2031 7.5C13.2031 10.1234 11.0765 12.25 8.45312 12.25V13.25C11.6288 13.25 14.2031 10.6756 14.2031 7.5H13.2031ZM11.8496 11.6036L16.3496 16.1036L17.0567 15.3964L12.5567 10.8964L11.8496 11.6036Z" fill="black"/>
</svg>
