<svg  viewBox="0 0 244 75" xmlns="http://www.w3.org/2000/svg">
<path d="M12.4035 45.9531L2.4915 16.5531H5.6835L14.9655 44.2311H13.3695L22.9455 16.5531H25.8015L35.2515 44.2311H33.7395L43.1055 16.5531H46.0875L36.1755 45.9531H32.8995L23.8695 19.7031H24.7095L15.6375 45.9531H12.4035ZM58.4624 46.1631C56.3344 46.1631 54.4164 45.6871 52.7084 44.7351C51.0284 43.7551 49.6984 42.4251 48.7184 40.7451C47.7384 39.0371 47.2484 37.0911 47.2484 34.9071C47.2484 32.6951 47.7384 30.7491 48.7184 29.0691C49.6984 27.3891 51.0284 26.0731 52.7084 25.1211C54.3884 24.1691 56.3064 23.6931 58.4624 23.6931C60.6464 23.6931 62.5784 24.1691 64.2584 25.1211C65.9664 26.0731 67.2964 27.3891 68.2484 29.0691C69.2284 30.7491 69.7184 32.6951 69.7184 34.9071C69.7184 37.0911 69.2284 39.0371 68.2484 40.7451C67.2964 42.4251 65.9664 43.7551 64.2584 44.7351C62.5504 45.6871 60.6184 46.1631 58.4624 46.1631ZM58.4624 43.5171C60.0584 43.5171 61.4724 43.1671 62.7044 42.4671C63.9364 41.7391 64.9024 40.7311 65.6024 39.4431C66.3304 38.1271 66.6944 36.6151 66.6944 34.9071C66.6944 33.1711 66.3304 31.6591 65.6024 30.3711C64.9024 29.0831 63.9364 28.0891 62.7044 27.3891C61.4724 26.6611 60.0724 26.2971 58.5044 26.2971C56.9364 26.2971 55.5364 26.6611 54.3044 27.3891C53.0724 28.0891 52.0924 29.0831 51.3644 30.3711C50.6364 31.6591 50.2724 33.1711 50.2724 34.9071C50.2724 36.6151 50.6364 38.1271 51.3644 39.4431C52.0924 40.7311 53.0724 41.7391 54.3044 42.4671C55.5364 43.1671 56.9224 43.5171 58.4624 43.5171ZM75.8064 45.9531V23.9031H78.6624V29.9091L78.3684 28.8591C78.9844 27.1791 80.0204 25.9051 81.4764 25.0371C82.9324 24.1411 84.7384 23.6931 86.8944 23.6931V26.5911C86.7824 26.5911 86.6704 26.5911 86.5584 26.5911C86.4464 26.5631 86.3344 26.5491 86.2224 26.5491C83.8984 26.5491 82.0784 27.2631 80.7624 28.6911C79.4464 30.0911 78.7884 32.0931 78.7884 34.6971V45.9531H75.8064ZM92.3357 45.9531V14.7891H95.3177V45.9531H92.3357ZM112.393 46.1631C110.293 46.1631 108.403 45.6871 106.723 44.7351C105.071 43.7831 103.769 42.4671 102.817 40.7871C101.865 39.0791 101.389 37.1191 101.389 34.9071C101.389 32.6671 101.865 30.7071 102.817 29.0271C103.769 27.3471 105.071 26.0451 106.723 25.1211C108.403 24.1691 110.293 23.6931 112.393 23.6931C114.325 23.6931 116.047 24.1271 117.559 24.9951C119.099 25.8631 120.317 27.1371 121.213 28.8171C122.137 30.4691 122.599 32.4991 122.599 34.9071C122.599 37.2871 122.151 39.3171 121.255 40.9971C120.359 42.6771 119.141 43.9651 117.601 44.8611C116.089 45.7291 114.353 46.1631 112.393 46.1631ZM112.603 43.5171C114.171 43.5171 115.571 43.1671 116.803 42.4671C118.063 41.7391 119.043 40.7311 119.743 39.4431C120.471 38.1271 120.835 36.6151 120.835 34.9071C120.835 33.1711 120.471 31.6591 119.743 30.3711C119.043 29.0831 118.063 28.0891 116.803 27.3891C115.571 26.6611 114.171 26.2971 112.603 26.2971C111.063 26.2971 109.677 26.6611 108.445 27.3891C107.213 28.0891 106.233 29.0831 105.505 30.3711C104.777 31.6591 104.413 33.1711 104.413 34.9071C104.413 36.6151 104.777 38.1271 105.505 39.4431C106.233 40.7311 107.213 41.7391 108.445 42.4671C109.677 43.1671 111.063 43.5171 112.603 43.5171ZM120.919 45.9531V39.3171L121.213 34.8651L120.793 30.4131V14.7891H123.775V45.9531H120.919ZM151.808 46.2051C149.624 46.2051 147.524 45.8551 145.508 45.1551C143.52 44.4271 141.98 43.5031 140.888 42.3831L142.106 39.9891C143.142 40.9971 144.528 41.8511 146.264 42.5511C148.028 43.2231 149.876 43.5591 151.808 43.5591C153.656 43.5591 155.154 43.3351 156.302 42.8871C157.478 42.4111 158.332 41.7811 158.864 40.9971C159.424 40.2131 159.704 39.3451 159.704 38.3931C159.704 37.2451 159.368 36.3211 158.696 35.6211C158.052 34.9211 157.198 34.3751 156.134 33.9831C155.07 33.5631 153.894 33.1991 152.606 32.8911C151.318 32.5831 150.03 32.2611 148.742 31.9251C147.454 31.5611 146.264 31.0851 145.172 30.4971C144.108 29.9091 143.24 29.1391 142.568 28.1871C141.924 27.2071 141.602 25.9331 141.602 24.3651C141.602 22.9091 141.98 21.5791 142.736 20.3751C143.52 19.1431 144.71 18.1631 146.306 17.4351C147.902 16.6791 149.946 16.3011 152.438 16.3011C154.09 16.3011 155.728 16.5391 157.352 17.0151C158.976 17.4631 160.376 18.0931 161.552 18.9051L160.502 21.3831C159.242 20.5431 157.898 19.9271 156.47 19.5351C155.07 19.1431 153.712 18.9471 152.396 18.9471C150.632 18.9471 149.176 19.1851 148.028 19.6611C146.88 20.1371 146.026 20.7811 145.466 21.5931C144.934 22.3771 144.668 23.2731 144.668 24.2811C144.668 25.4291 144.99 26.3531 145.634 27.0531C146.306 27.7531 147.174 28.2991 148.238 28.6911C149.33 29.0831 150.52 29.4331 151.808 29.7411C153.096 30.0491 154.37 30.3851 155.63 30.7491C156.918 31.1131 158.094 31.5891 159.158 32.1771C160.25 32.7371 161.118 33.4931 161.762 34.4451C162.434 35.3971 162.77 36.6431 162.77 38.1831C162.77 39.6111 162.378 40.9411 161.594 42.1731C160.81 43.3771 159.606 44.3571 157.982 45.1131C156.386 45.8411 154.328 46.2051 151.808 46.2051ZM175.884 46.1631C173.812 46.1631 172.216 45.6031 171.096 44.4831C169.976 43.3631 169.416 41.7811 169.416 39.7371V19.0311H172.398V39.5691C172.398 40.8571 172.72 41.8511 173.364 42.5511C174.036 43.2511 174.988 43.6011 176.22 43.6011C177.536 43.6011 178.628 43.2231 179.496 42.4671L180.546 44.6091C179.958 45.1411 179.244 45.5331 178.404 45.7851C177.592 46.0371 176.752 46.1631 175.884 46.1631ZM165.468 26.3811V23.9031H179.118V26.3811H165.468ZM199.792 45.9531V41.0811L199.666 40.2831V32.1351C199.666 30.2591 199.134 28.8171 198.07 27.8091C197.034 26.8011 195.48 26.2971 193.408 26.2971C191.98 26.2971 190.622 26.5351 189.334 27.0111C188.046 27.4871 186.954 28.1171 186.058 28.9011L184.714 26.6751C185.834 25.7231 187.178 24.9951 188.746 24.4911C190.314 23.9591 191.966 23.6931 193.702 23.6931C196.558 23.6931 198.756 24.4071 200.296 25.8351C201.864 27.2351 202.648 29.3771 202.648 32.2611V45.9531H199.792ZM192.19 46.1631C190.538 46.1631 189.096 45.8971 187.864 45.3651C186.66 44.8051 185.736 44.0491 185.092 43.0971C184.448 42.1171 184.126 40.9971 184.126 39.7371C184.126 38.5891 184.392 37.5531 184.924 36.6291C185.484 35.6771 186.38 34.9211 187.612 34.3611C188.872 33.7731 190.552 33.4791 192.652 33.4791H200.254V35.7051H192.736C190.608 35.7051 189.124 36.0831 188.284 36.8391C187.472 37.5951 187.066 38.5331 187.066 39.6531C187.066 40.9131 187.556 41.9211 188.536 42.6771C189.516 43.4331 190.888 43.8111 192.652 43.8111C194.332 43.8111 195.774 43.4331 196.978 42.6771C198.21 41.8931 199.106 40.7731 199.666 39.3171L200.338 41.3751C199.778 42.8311 198.798 43.9931 197.398 44.8611C196.026 45.7291 194.29 46.1631 192.19 46.1631ZM210.748 45.9531V23.9031H213.604V29.9091L213.31 28.8591C213.926 27.1791 214.962 25.9051 216.418 25.0371C217.874 24.1411 219.68 23.6931 221.836 23.6931V26.5911C221.724 26.5911 221.612 26.5911 221.5 26.5911C221.388 26.5631 221.276 26.5491 221.164 26.5491C218.84 26.5491 217.02 27.2631 215.704 28.6911C214.388 30.0911 213.73 32.0931 213.73 34.6971V45.9531H210.748ZM233.445 46.1631C231.625 46.1631 229.903 45.9111 228.279 45.4071C226.655 44.8751 225.381 44.2171 224.457 43.4331L225.801 41.0811C226.697 41.7531 227.845 42.3411 229.245 42.8451C230.645 43.3211 232.115 43.5591 233.655 43.5591C235.755 43.5591 237.267 43.2371 238.191 42.5931C239.115 41.9211 239.577 41.0391 239.577 39.9471C239.577 39.1351 239.311 38.5051 238.779 38.0571C238.275 37.5811 237.603 37.2311 236.763 37.0071C235.923 36.7551 234.985 36.5451 233.949 36.3771C232.913 36.2091 231.877 36.0131 230.841 35.7891C229.833 35.5651 228.909 35.2431 228.069 34.8231C227.229 34.3751 226.543 33.7731 226.011 33.0171C225.507 32.2611 225.255 31.2531 225.255 29.9931C225.255 28.7891 225.591 27.7111 226.263 26.7591C226.935 25.8071 227.915 25.0651 229.203 24.5331C230.519 23.9731 232.115 23.6931 233.991 23.6931C235.419 23.6931 236.847 23.8891 238.275 24.2811C239.703 24.6451 240.879 25.1351 241.803 25.7511L240.501 28.1451C239.521 27.4731 238.471 26.9971 237.351 26.7171C236.231 26.4091 235.111 26.2551 233.991 26.2551C232.003 26.2551 230.533 26.6051 229.581 27.3051C228.657 27.9771 228.195 28.8451 228.195 29.9091C228.195 30.7491 228.447 31.4071 228.951 31.8831C229.483 32.3591 230.169 32.7371 231.009 33.0171C231.877 33.2691 232.815 33.4791 233.823 33.6471C234.859 33.8151 235.881 34.0251 236.889 34.2771C237.925 34.5011 238.863 34.8231 239.703 35.2431C240.571 35.6351 241.257 36.2091 241.761 36.9651C242.293 37.6931 242.559 38.6591 242.559 39.8631C242.559 41.1511 242.195 42.2711 241.467 43.2231C240.767 44.1471 239.731 44.8751 238.359 45.4071C237.015 45.9111 235.377 46.1631 233.445 46.1631Z"/>
<path d="M3.53982 67.3828V56.4549H5.03851L9.9925 64.8434H9.36805L14.4053 56.4549H15.7791V67.3828H14.4261V58.1409L14.6967 58.2658L9.9925 66.0506H9.32642L4.58058 58.1825L4.89281 58.1201V67.3828H3.53982ZM19.9846 67.3828V56.4549H21.4624V65.1348L28.7685 56.4549H30.0799V67.3828H28.602V58.6821L21.3167 67.3828H19.9846ZM39.9562 67.4869C39.0125 67.4869 38.1591 67.2718 37.3959 66.8416C36.6327 66.3976 36.0221 65.7662 35.5642 64.9474C35.1201 64.1148 34.8981 63.1018 34.8981 61.9084C34.8981 60.715 35.1201 59.709 35.5642 58.8903C36.0082 58.0576 36.6119 57.4263 37.3751 56.9961C38.1383 56.5659 38.9987 56.3508 39.9562 56.3508C40.9969 56.3508 41.9267 56.5867 42.7454 57.0585C43.578 57.5165 44.2302 58.1687 44.702 59.0151C45.1738 59.8477 45.4097 60.8122 45.4097 61.9084C45.4097 63.0186 45.1738 63.99 44.702 64.8226C44.2302 65.6552 43.578 66.3074 42.7454 66.7792C41.9267 67.251 40.9969 67.4869 39.9562 67.4869ZM34.3153 71.4209V56.4549H35.7307V59.7437L35.585 61.9293L35.7931 64.1357V71.4209H34.3153ZM39.8521 66.1755C40.6292 66.1755 41.323 66.0021 41.9336 65.6552C42.5442 65.2944 43.0299 64.7948 43.3907 64.1565C43.7514 63.5043 43.9318 62.7549 43.9318 61.9084C43.9318 61.062 43.7514 60.3196 43.3907 59.6812C43.0299 59.0429 42.5442 58.5433 41.9336 58.1825C41.323 57.8217 40.6292 57.6413 39.8521 57.6413C39.075 57.6413 38.3742 57.8217 37.7498 58.1825C37.1392 58.5433 36.6535 59.0429 36.2927 59.6812C35.9458 60.3196 35.7723 61.062 35.7723 61.9084C35.7723 62.7549 35.9458 63.5043 36.2927 64.1565C36.6535 64.7948 37.1392 65.2944 37.7498 65.6552C38.3742 66.0021 39.075 66.1755 39.8521 66.1755ZM53.0811 67.4869C52.0264 67.4869 51.0759 67.251 50.2294 66.7792C49.3968 66.2935 48.7376 65.6343 48.2519 64.8017C47.7663 63.9553 47.5234 62.9908 47.5234 61.9084C47.5234 60.8122 47.7663 59.8477 48.2519 59.0151C48.7376 58.1825 49.3968 57.5303 50.2294 57.0585C51.062 56.5867 52.0125 56.3508 53.0811 56.3508C54.1634 56.3508 55.1209 56.5867 55.9535 57.0585C56.8 57.5303 57.4592 58.1825 57.931 59.0151C58.4167 59.8477 58.6595 60.8122 58.6595 61.9084C58.6595 62.9908 58.4167 63.9553 57.931 64.8017C57.4592 65.6343 56.8 66.2935 55.9535 66.7792C55.1071 67.251 54.1496 67.4869 53.0811 67.4869ZM53.0811 66.1755C53.872 66.1755 54.5728 66.0021 55.1834 65.6552C55.794 65.2944 56.2727 64.7948 56.6196 64.1565C56.9804 63.5043 57.1608 62.7549 57.1608 61.9084C57.1608 61.0481 56.9804 60.2987 56.6196 59.6604C56.2727 59.0221 55.794 58.5295 55.1834 58.1825C54.5728 57.8217 53.879 57.6413 53.1019 57.6413C52.3248 57.6413 51.6309 57.8217 51.0204 58.1825C50.4098 58.5295 49.9241 59.0221 49.5633 59.6604C49.2025 60.2987 49.0221 61.0481 49.0221 61.9084C49.0221 62.7549 49.2025 63.5043 49.5633 64.1565C49.9241 64.7948 50.4098 65.2944 51.0204 65.6552C51.6309 66.0021 52.3178 66.1755 53.0811 66.1755ZM61.818 67.3828V56.4549H66.6471C67.8822 56.4549 68.8535 56.6908 69.5612 57.1626C70.2828 57.6344 70.6436 58.3282 70.6436 59.2441C70.6436 60.1322 70.3036 60.8191 69.6237 61.3048C68.9437 61.7766 68.0487 62.0125 66.9385 62.0125L67.23 61.5754C68.5344 61.5754 69.4919 61.8182 70.1024 62.3039C70.713 62.7896 71.0183 63.4904 71.0183 64.4063C71.0183 65.3499 70.6714 66.0853 69.9775 66.6127C69.2976 67.1261 68.236 67.3828 66.7928 67.3828H61.818ZM63.2543 66.2172H66.7304C67.6601 66.2172 68.3609 66.0715 68.8327 65.78C69.3184 65.4748 69.5612 64.9891 69.5612 64.323C69.5612 63.6569 69.3462 63.1712 68.916 62.8659C68.4858 62.5606 67.8058 62.408 66.8761 62.408H63.2543V66.2172ZM63.2543 61.3048H66.5431C67.3895 61.3048 68.0348 61.1452 68.4789 60.8261C68.9368 60.5069 69.1658 60.042 69.1658 59.4314C69.1658 58.8209 68.9368 58.3629 68.4789 58.0576C68.0348 57.7524 67.3895 57.5997 66.5431 57.5997H63.2543V61.3048ZM85.1392 67.3828V56.4549H86.6171V67.3828H85.1392ZM79.082 60.3057C80.4558 60.3196 81.5035 60.6248 82.2251 61.2215C82.9467 61.8182 83.3075 62.6786 83.3075 63.8026C83.3075 64.9683 82.919 65.8633 82.1419 66.4878C81.3648 67.1122 80.2546 67.4175 78.8114 67.4036L74.4819 67.3828V56.4549H75.9598V60.264L79.082 60.3057ZM78.7074 66.2796C79.7342 66.2935 80.5044 66.0923 81.0178 65.676C81.5452 65.2458 81.8088 64.6213 81.8088 63.8026C81.8088 62.9839 81.5521 62.3872 81.0387 62.0125C80.5252 61.624 79.7481 61.4228 78.7074 61.4089L75.9598 61.3672V66.238L78.7074 66.2796ZM95.5084 67.4869C94.3705 67.4869 93.3714 67.251 92.511 66.7792C91.6507 66.2935 90.9776 65.6343 90.492 64.8017C90.0063 63.9553 89.7634 62.9908 89.7634 61.9084C89.7634 60.8261 89.9924 59.8686 90.4503 59.036C90.9221 58.2034 91.5605 57.5511 92.3653 57.0793C93.184 56.5937 94.0999 56.3508 95.1129 56.3508C96.1398 56.3508 97.0487 56.5867 97.8397 57.0585C98.6445 57.5165 99.2759 58.1687 99.7339 59.0151C100.192 59.8477 100.421 60.8122 100.421 61.9084C100.421 61.9778 100.414 62.0541 100.4 62.1374C100.4 62.2068 100.4 62.2831 100.4 62.3664H90.8874V61.2632H99.609L99.0262 61.7003C99.0262 60.9093 98.8527 60.2085 98.5058 59.598C98.1727 58.9735 97.7148 58.4878 97.132 58.1409C96.5492 57.794 95.8761 57.6205 95.1129 57.6205C94.3636 57.6205 93.6905 57.794 93.0938 58.1409C92.4972 58.4878 92.0323 58.9735 91.6992 59.598C91.3662 60.2224 91.1997 60.9371 91.1997 61.7419V61.9709C91.1997 62.8035 91.3801 63.539 91.7409 64.1773C92.1155 64.8017 92.629 65.2944 93.2812 65.6552C93.9473 66.0021 94.7036 66.1755 95.55 66.1755C96.2161 66.1755 96.8336 66.0576 97.4026 65.8217C97.9854 65.5858 98.485 65.225 98.9013 64.7393L99.7339 65.6968C99.2482 66.2796 98.6376 66.7237 97.9021 67.029C97.1805 67.3342 96.3826 67.4869 95.5084 67.4869ZM112.075 67.5077C112.977 67.5077 113.789 67.3689 114.51 67.0914C115.246 66.8139 115.828 66.4323 116.259 65.9466C116.689 65.447 116.904 64.8711 116.904 64.2189C116.904 63.3863 116.55 62.7272 115.842 62.2415C115.148 61.7558 114.177 61.513 112.928 61.513L112.866 61.9084C113.573 61.9084 114.205 61.7974 114.76 61.5754C115.315 61.3534 115.759 61.0411 116.092 60.6387C116.425 60.2363 116.592 59.7645 116.592 59.2233C116.592 58.6127 116.383 58.0923 115.967 57.6622C115.551 57.2181 114.989 56.8781 114.281 56.6422C113.587 56.4063 112.803 56.3022 111.929 56.33C111.291 56.33 110.652 56.4202 110.014 56.6006C109.39 56.7671 108.758 57.0169 108.12 57.3499L108.536 58.4948C109.105 58.2034 109.681 57.9883 110.264 57.8495C110.847 57.6969 111.409 57.6136 111.95 57.5997C112.547 57.5997 113.081 57.6691 113.553 57.8079C114.024 57.9466 114.392 58.1548 114.656 58.4323C114.933 58.7099 115.072 59.0429 115.072 59.4314C115.072 59.7922 114.954 60.1045 114.718 60.3681C114.496 60.6318 114.177 60.833 113.761 60.9718C113.344 61.1105 112.866 61.1799 112.325 61.1799H110.555V62.2623H112.429C113.344 62.2623 114.066 62.4288 114.593 62.7619C115.121 63.081 115.384 63.532 115.384 64.1148C115.384 64.5173 115.246 64.8781 114.968 65.1972C114.691 65.5164 114.302 65.7662 113.802 65.9466C113.303 66.127 112.713 66.2241 112.033 66.238C111.353 66.238 110.666 66.1408 109.972 65.9466C109.279 65.7384 108.668 65.4401 108.141 65.0515L107.662 66.1547C108.259 66.6127 108.946 66.9526 109.723 67.1747C110.5 67.3967 111.284 67.5077 112.075 67.5077ZM120.259 67.3828V56.4549H125.088C126.323 56.4549 127.294 56.6908 128.002 57.1626C128.724 57.6344 129.084 58.3282 129.084 59.2441C129.084 60.1322 128.744 60.8191 128.065 61.3048C127.385 61.7766 126.49 62.0125 125.379 62.0125L125.671 61.5754C126.975 61.5754 127.933 61.8182 128.543 62.3039C129.154 62.7896 129.459 63.4904 129.459 64.4063C129.459 65.3499 129.112 66.0853 128.418 66.6127C127.738 67.1261 126.677 67.3828 125.234 67.3828H120.259ZM121.695 66.2172H125.171C126.101 66.2172 126.802 66.0715 127.274 65.78C127.759 65.4748 128.002 64.9891 128.002 64.323C128.002 63.6569 127.787 63.1712 127.357 62.8659C126.927 62.5606 126.247 62.408 125.317 62.408H121.695V66.2172ZM121.695 61.3048H124.984C125.83 61.3048 126.476 61.1452 126.92 60.8261C127.378 60.5069 127.607 60.042 127.607 59.4314C127.607 58.8209 127.378 58.3629 126.92 58.0576C126.476 57.7524 125.83 57.5997 124.984 57.5997H121.695V61.3048ZM137.606 67.4869C136.468 67.4869 135.469 67.251 134.609 66.7792C133.748 66.2935 133.075 65.6343 132.59 64.8017C132.104 63.9553 131.861 62.9908 131.861 61.9084C131.861 60.8261 132.09 59.8686 132.548 59.036C133.02 58.2034 133.658 57.5511 134.463 57.0793C135.282 56.5937 136.198 56.3508 137.211 56.3508C138.238 56.3508 139.146 56.5867 139.937 57.0585C140.742 57.5165 141.374 58.1687 141.832 59.0151C142.29 59.8477 142.518 60.8122 142.518 61.9084C142.518 61.9778 142.512 62.0541 142.498 62.1374C142.498 62.2068 142.498 62.2831 142.498 62.3664H132.985V61.2632H141.707L141.124 61.7003C141.124 60.9093 140.95 60.2085 140.603 59.598C140.27 58.9735 139.813 58.4878 139.23 58.1409C138.647 57.794 137.974 57.6205 137.211 57.6205C136.461 57.6205 135.788 57.794 135.192 58.1409C134.595 58.4878 134.13 58.9735 133.797 59.598C133.464 60.2224 133.297 60.9371 133.297 61.7419V61.9709C133.297 62.8035 133.478 63.539 133.839 64.1773C134.213 64.8017 134.727 65.2944 135.379 65.6552C136.045 66.0021 136.801 66.1755 137.648 66.1755C138.314 66.1755 138.931 66.0576 139.5 65.8217C140.083 65.5858 140.583 65.225 140.999 64.7393L141.832 65.6968C141.346 66.2796 140.735 66.7237 140 67.029C139.278 67.3342 138.48 67.4869 137.606 67.4869ZM148.42 67.5077C149.322 67.5077 150.134 67.3689 150.855 67.0914C151.591 66.8139 152.174 66.4323 152.604 65.9466C153.034 65.447 153.249 64.8711 153.249 64.2189C153.249 63.3863 152.895 62.7272 152.187 62.2415C151.494 61.7558 150.522 61.513 149.273 61.513L149.211 61.9084C149.919 61.9084 150.55 61.7974 151.105 61.5754C151.66 61.3534 152.104 61.0411 152.437 60.6387C152.77 60.2363 152.937 59.7645 152.937 59.2233C152.937 58.6127 152.729 58.0923 152.312 57.6622C151.896 57.2181 151.334 56.8781 150.626 56.6422C149.932 56.4063 149.148 56.3022 148.274 56.33C147.636 56.33 146.998 56.4202 146.359 56.6006C145.735 56.7671 145.103 57.0169 144.465 57.3499L144.881 58.4948C145.45 58.2034 146.026 57.9883 146.609 57.8495C147.192 57.6969 147.754 57.6136 148.295 57.5997C148.892 57.5997 149.426 57.6691 149.898 57.8079C150.37 57.9466 150.737 58.1548 151.001 58.4323C151.278 58.7099 151.417 59.0429 151.417 59.4314C151.417 59.7922 151.299 60.1045 151.063 60.3681C150.841 60.6318 150.522 60.833 150.106 60.9718C149.69 61.1105 149.211 61.1799 148.67 61.1799H146.9V62.2623H148.774C149.69 62.2623 150.411 62.4288 150.939 62.7619C151.466 63.081 151.729 63.532 151.729 64.1148C151.729 64.5173 151.591 64.8781 151.313 65.1972C151.036 65.5164 150.647 65.7662 150.148 65.9466C149.648 66.127 149.058 66.2241 148.378 66.238C147.698 66.238 147.011 66.1408 146.318 65.9466C145.624 65.7384 145.013 65.4401 144.486 65.0515L144.007 66.1547C144.604 66.6127 145.291 66.9526 146.068 67.1747C146.845 67.3967 147.629 67.5077 148.42 67.5077ZM164.097 66.6751V57.7454H158.831L158.706 60.1808C158.679 60.9163 158.63 61.6378 158.561 62.3456C158.505 63.0533 158.401 63.7055 158.248 64.3022C158.11 64.885 157.908 65.3637 157.645 65.7384C157.381 66.0992 157.041 66.3074 156.625 66.3629L155.147 66.0923C155.577 66.1062 155.931 65.9535 156.208 65.6343C156.486 65.3013 156.701 64.8503 156.854 64.2814C157.006 63.7124 157.117 63.0671 157.187 62.3456C157.256 61.6101 157.312 60.8607 157.353 60.0975L157.499 56.4549H165.575V66.6751H164.097ZM154.689 70.0263V66.0923H167.282V70.0263H165.887V67.3828H156.084V70.0263H154.689ZM180.82 67.3828V56.4549H182.297V67.3828H180.82ZM174.762 60.3057C176.136 60.3196 177.184 60.6248 177.905 61.2215C178.627 61.8182 178.988 62.6786 178.988 63.8026C178.988 64.9683 178.599 65.8633 177.822 66.4878C177.045 67.1122 175.935 67.4175 174.492 67.4036L170.162 67.3828V56.4549H171.64V60.264L174.762 60.3057ZM174.388 66.2796C175.415 66.2935 176.185 66.0923 176.698 65.676C177.225 65.2458 177.489 64.6213 177.489 63.8026C177.489 62.9839 177.232 62.3872 176.719 62.0125C176.206 61.624 175.428 61.4228 174.388 61.4089L171.64 61.3672V66.238L174.388 66.2796ZM197.552 67.4869C196.595 67.4869 195.734 67.2718 194.971 66.8416C194.208 66.3976 193.604 65.7592 193.16 64.9266C192.716 64.094 192.494 63.088 192.494 61.9084C192.494 60.715 192.716 59.709 193.16 58.8903C193.618 58.0576 194.229 57.4263 194.992 56.9961C195.755 56.5659 196.609 56.3508 197.552 56.3508C198.593 56.3508 199.523 56.5867 200.342 57.0585C201.174 57.5165 201.826 58.1617 202.298 58.9943C202.77 59.8269 203.006 60.7983 203.006 61.9084C203.006 63.0047 202.77 63.9761 202.298 64.8226C201.826 65.6552 201.174 66.3074 200.342 66.7792C199.523 67.251 198.593 67.4869 197.552 67.4869ZM191.911 67.3828V51.938H193.389V59.6812L193.181 61.8876L193.327 64.094V67.3828H191.911ZM197.448 66.1755C198.225 66.1755 198.919 66.0021 199.53 65.6552C200.14 65.2944 200.626 64.7948 200.987 64.1565C201.348 63.5043 201.528 62.7549 201.528 61.9084C201.528 61.0481 201.348 60.2987 200.987 59.6604C200.626 59.0221 200.14 58.5295 199.53 58.1825C198.919 57.8217 198.225 57.6413 197.448 57.6413C196.671 57.6413 195.97 57.8217 195.346 58.1825C194.735 58.5295 194.25 59.0221 193.889 59.6604C193.542 60.2987 193.368 61.0481 193.368 61.9084C193.368 62.7549 193.542 63.5043 193.889 64.1565C194.25 64.7948 194.735 65.2944 195.346 65.6552C195.97 66.0021 196.671 66.1755 197.448 66.1755ZM206.019 67.3828V56.4549H207.434V59.4314L207.288 58.9111C207.594 58.0785 208.107 57.4471 208.829 57.0169C209.55 56.5728 210.445 56.3508 211.514 56.3508V57.7871C211.458 57.7871 211.403 57.7871 211.347 57.7871C211.292 57.7732 211.236 57.7662 211.181 57.7662C210.029 57.7662 209.127 58.1201 208.475 58.8278C207.822 59.5216 207.496 60.5138 207.496 61.8044V67.3828H206.019ZM214.21 67.3828V56.4549H215.688V67.3828H214.21ZM214.96 54.0403C214.654 54.0403 214.398 53.9363 214.19 53.7281C213.981 53.52 213.877 53.2702 213.877 52.9788C213.877 52.6874 213.981 52.4445 214.19 52.2502C214.398 52.0421 214.654 51.938 214.96 51.938C215.265 51.938 215.522 52.0351 215.73 52.2294C215.938 52.4237 216.042 52.6665 216.042 52.958C216.042 53.2632 215.938 53.52 215.73 53.7281C215.536 53.9363 215.279 54.0403 214.96 54.0403ZM224.338 67.4869C223.256 67.4869 222.284 67.251 221.424 66.7792C220.577 66.2935 219.911 65.6343 219.426 64.8017C218.94 63.9553 218.697 62.9908 218.697 61.9084C218.697 60.8122 218.94 59.8477 219.426 59.0151C219.911 58.1825 220.577 57.5303 221.424 57.0585C222.284 56.5867 223.256 56.3508 224.338 56.3508C225.268 56.3508 226.107 56.5312 226.857 56.892C227.606 57.2528 228.196 57.794 228.626 58.5156L227.523 59.2649C227.148 58.7099 226.683 58.3005 226.128 58.0368C225.573 57.7732 224.969 57.6413 224.317 57.6413C223.54 57.6413 222.839 57.8217 222.215 58.1825C221.59 58.5295 221.098 59.0221 220.737 59.6604C220.376 60.2987 220.196 61.0481 220.196 61.9084C220.196 62.7688 220.376 63.5181 220.737 64.1565C221.098 64.7948 221.59 65.2944 222.215 65.6552C222.839 66.0021 223.54 66.1755 224.317 66.1755C224.969 66.1755 225.573 66.0437 226.128 65.78C226.683 65.5164 227.148 65.114 227.523 64.5728L228.626 65.3221C228.196 66.0298 227.606 66.571 226.857 66.9457C226.107 67.3065 225.268 67.4869 224.338 67.4869ZM234.464 67.4869C233.562 67.4869 232.709 67.362 231.904 67.1122C231.099 66.8486 230.468 66.5225 230.01 66.1339L230.676 64.9683C231.12 65.3013 231.689 65.5927 232.383 65.8425C233.076 66.0784 233.805 66.1964 234.568 66.1964C235.609 66.1964 236.358 66.0368 236.816 65.7176C237.274 65.3846 237.503 64.9474 237.503 64.4063C237.503 64.0038 237.371 63.6916 237.108 63.4696C236.858 63.2337 236.525 63.0602 236.109 62.9492C235.692 62.8243 235.227 62.7202 234.714 62.637C234.2 62.5537 233.687 62.4566 233.174 62.3456C232.674 62.2345 232.216 62.075 231.8 61.8668C231.383 61.6448 231.044 61.3464 230.78 60.9718C230.53 60.5971 230.405 60.0975 230.405 59.4731C230.405 58.8764 230.572 58.3421 230.905 57.8703C231.238 57.3985 231.723 57.0308 232.362 56.7671C233.014 56.4896 233.805 56.3508 234.735 56.3508C235.442 56.3508 236.15 56.4479 236.858 56.6422C237.566 56.8226 238.148 57.0655 238.606 57.3708L237.961 58.5572C237.475 58.2242 236.955 57.9883 236.4 57.8495C235.845 57.6969 235.29 57.6205 234.735 57.6205C233.749 57.6205 233.021 57.794 232.549 58.1409C232.091 58.474 231.862 58.9041 231.862 59.4314C231.862 59.8477 231.987 60.1739 232.237 60.4098C232.501 60.6457 232.841 60.833 233.257 60.9718C233.687 61.0967 234.152 61.2007 234.651 61.284C235.165 61.3672 235.671 61.4713 236.171 61.5962C236.684 61.7072 237.149 61.8668 237.566 62.075C237.996 62.2692 238.336 62.5537 238.586 62.9284C238.849 63.2892 238.981 63.7679 238.981 64.3646C238.981 65.003 238.801 65.558 238.44 66.0298C238.093 66.4878 237.579 66.8486 236.899 67.1122C236.233 67.362 235.422 67.4869 234.464 67.4869Z" />
</svg>
