<svg xmlns="http://www.w3.org/2000/svg" width="19" height="17" viewBox="0 0 19 17" fill="none">
<path d="M12.6641 10.6251C12.4571 10.4424 12.1411 10.4621 11.9584 10.6692C11.7757 10.8763 11.7955 11.1922 12.0025 11.3749L12.6641 10.6251ZM17.6692 16.3749C17.8763 16.5576 18.1922 16.5379 18.3749 16.3308C18.5576 16.1237 18.5379 15.8078 18.3308 15.6251L17.6692 16.3749ZM7.61111 12.1667C4.17539 12.1667 1.5 9.72188 1.5 6.83333H0.5C0.5 10.3881 3.7444 13.1667 7.61111 13.1667V12.1667ZM1.5 6.83333C1.5 3.94479 4.17539 1.5 7.61111 1.5V0.5C3.7444 0.5 0.5 3.27855 0.5 6.83333H1.5ZM7.61111 1.5C11.0468 1.5 13.7222 3.94479 13.7222 6.83333H14.7222C14.7222 3.27855 11.4778 0.5 7.61111 0.5V1.5ZM13.7222 6.83333C13.7222 9.72188 11.0468 12.1667 7.61111 12.1667V13.1667C11.4778 13.1667 14.7222 10.3881 14.7222 6.83333H13.7222ZM12.0025 11.3749L17.6692 16.3749L18.3308 15.6251L12.6641 10.6251L12.0025 11.3749Z" fill="black"/>
</svg>