<svg viewBox="0 0 23 24" xmlns="http://www.w3.org/2000/svg">
<path fill-rule="evenodd" clip-rule="evenodd" d="M11.094 2C6.79259 2.00001 3.34413 5.4038 3.34413 9.55556V14.1052C3.34413 14.5956 3.14431 15.0605 2.79772 15.3994L2.31084 15.8754C2.23192 15.9526 2.18907 15.9946 2.15774 16.0273C2.14285 16.0428 2.13571 16.0509 2.13318 16.0538C2.11471 16.0796 2.10275 16.1081 2.09736 16.1377C2.09701 16.1418 2.0963 16.1518 2.09569 16.1707C2.09427 16.2147 2.09415 16.2735 2.09415 16.3827C2.09415 16.6299 2.09454 16.7728 2.10067 16.8788C2.10344 16.9266 2.10682 16.9522 2.10846 16.9626C2.13068 17.0182 2.17953 17.0696 2.25163 17.0952C2.26066 17.0968 2.28946 17.1012 2.35054 17.1046C2.46126 17.1107 2.60975 17.1111 2.8617 17.1111H19.3259C19.5779 17.1111 19.7265 17.1107 19.8373 17.1046C19.8985 17.1012 19.9274 17.0968 19.9364 17.0952C20.0089 17.0695 20.0577 17.0178 20.0798 16.9626C20.0815 16.9521 20.0849 16.9266 20.0876 16.8788C20.0938 16.7728 20.0942 16.6298 20.0942 16.3827C20.0942 16.2741 20.094 16.2153 20.0925 16.1716C20.0913 16.1342 20.0896 16.1313 20.0912 16.1406C20.0861 16.1104 20.0741 16.0808 20.0548 16.0539C20.0523 16.0509 20.0451 16.0429 20.0304 16.0275C19.9989 15.9948 19.9561 15.9528 19.877 15.8754L19.3901 15.3993C19.0431 15.06 18.8439 14.595 18.8439 14.1052V9.55556C18.8439 5.40378 15.3955 1.99999 11.094 2ZM13.844 19.1111H8.34407V19.3333C8.34407 20.785 9.55397 22 11.094 22C12.6341 22 13.844 20.785 13.844 19.3333V19.1111ZM6.34407 19.1111V19.3333C6.34407 21.9317 8.49199 24 11.094 24C13.6961 24 15.844 21.9317 15.844 19.3333V19.1111H19.3259C19.3592 19.1111 19.3926 19.1112 19.4263 19.1113C19.8014 19.1122 20.2032 19.1133 20.5569 18.9966C21.2167 18.779 21.7451 18.2688 21.9739 17.6057C22.0966 17.25 22.0954 16.8464 22.0943 16.4822C22.0942 16.4487 22.0942 16.4155 22.0942 16.3827C22.0942 16.3699 22.0942 16.357 22.0942 16.344C22.0944 16.1787 22.0946 15.9941 22.0636 15.8095C22.0064 15.4689 21.87 15.1467 21.6655 14.8682C21.556 14.7191 21.4239 14.5904 21.3064 14.4758C21.2959 14.4656 21.2855 14.4555 21.2753 14.4455L20.8439 14.0236V9.55556C20.8439 4.25711 16.4574 -1.28746e-05 11.094 0C5.73061 1.28746e-05 1.34413 4.25712 1.34413 9.55556V14.0235L0.912599 14.4454C0.902587 14.4552 0.892446 14.4651 0.8822 14.4751C0.764143 14.5902 0.632166 14.7189 0.522511 14.8682C0.317755 15.147 0.181554 15.4693 0.124444 15.8095C0.0936033 15.9933 0.093872 16.1779 0.0941091 16.341C0.0941296 16.355 0.0941499 16.369 0.0941499 16.3827C0.0941499 16.4155 0.0940519 16.4487 0.0939529 16.4823C0.0928791 16.8464 0.0916887 17.25 0.214382 17.6057C0.442998 18.2684 0.970865 18.7789 1.63114 18.9966C1.98479 19.1133 2.38629 19.1122 2.76134 19.1113C2.79503 19.1112 2.8285 19.1111 2.8617 19.1111H6.34407ZM20.7884 13.9694C20.7883 13.9693 20.7885 13.9695 20.7884 13.9694Z"/>
</svg>
