<svg viewBox="0 0 25 24" xmlns="http://www.w3.org/2000/svg">
<path d="M15.8009 14.2929C15.4103 13.9024 14.7772 13.9024 14.3866 14.2929C13.9961 14.6834 13.9961 15.3166 14.3866 15.7071L15.8009 14.2929ZM20.3866 21.7071C20.7772 22.0976 21.4103 22.0976 21.8009 21.7071C22.1914 21.3166 22.1914 20.6834 21.8009 20.2929L20.3866 21.7071ZM10.0938 16C6.78004 16 4.09375 13.3137 4.09375 10H2.09375C2.09375 14.4183 5.67547 18 10.0938 18V16ZM4.09375 10C4.09375 6.68629 6.78004 4 10.0938 4V2C5.67547 2 2.09375 5.58172 2.09375 10H4.09375ZM10.0938 4C13.4075 4 16.0938 6.68629 16.0938 10H18.0938C18.0938 5.58172 14.512 2 10.0938 2V4ZM16.0938 10C16.0938 13.3137 13.4075 16 10.0938 16V18C14.512 18 18.0938 14.4183 18.0938 10H16.0938ZM14.3866 15.7071L20.3866 21.7071L21.8009 20.2929L15.8009 14.2929L14.3866 15.7071Z"/>
</svg>
