<?xml version="1.0" encoding="UTF-8"?><!DOCTYPE svg PUBLIC "-//W3C//DTD SVG 1.1//EN" "http://www.w3.org/Graphics/SVG/1.1/DTD/svg11.dtd"><svg xmlns="http://www.w3.org/2000/svg" xmlns:xlink="http://www.w3.org/1999/xlink"><defs><filter id="play-a" x="0" y="0" width="182.314" height="182.314" filterUnits="userSpaceOnUse" color-interpolation-filters="sRGB"><feFlood flood-opacity="0" result="BackgroundImageFix"/><feColorMatrix in="SourceAlpha" values="0 0 0 0 0 0 0 0 0 0 0 0 0 0 0 0 0 0 127 0" result="hardAlpha"/><feOffset dy="10"/><feGaussianBlur stdDeviation="5"/><feComposite in2="hardAlpha" operator="out"/><feColorMatrix values="0 0 0 0 0 0 0 0 0 0 0 0 0 0 0 0 0 0 1 0"/><feBlend in2="BackgroundImageFix" result="effect1_dropShadow_1167_201"/><feBlend in="SourceGraphic" in2="effect1_dropShadow_1167_201" result="shape"/></filter><filter id="play-b" x="70.711" y="63.065" width="51.338" height="56.185" filterUnits="userSpaceOnUse" color-interpolation-filters="sRGB"><feFlood flood-opacity="0" result="BackgroundImageFix"/><feColorMatrix in="SourceAlpha" values="0 0 0 0 0 0 0 0 0 0 0 0 0 0 0 0 0 0 127 0" result="hardAlpha"/><feOffset dy="10"/><feGaussianBlur stdDeviation="5"/><feComposite in2="hardAlpha" operator="out"/><feColorMatrix values="0 0 0 0 0 0 0 0 0 0 0 0 0 0 0 0 0 0 1 0"/><feBlend in2="BackgroundImageFix" result="effect1_dropShadow_1167_201"/><feBlend in="SourceGraphic" in2="effect1_dropShadow_1167_201" result="shape"/></filter></defs><symbol id="arrow" viewBox="0 0 15 10"><path d="M5.75 7.832 12.821.761l1.414 1.414-7.07 7.071z"/><path d="M7.164 9.242.093 2.172 1.507.756l7.071 7.071z"/></symbol><symbol id="attention" viewBox="0 0 16 16"><path d="M8.037 10.588h.5a.5.5 0 0 0-.5-.5v.5Zm0 .075v.5a.5.5 0 0 0 .5-.5h-.5Zm-.074 0h-.5a.5.5 0 0 0 .5.5v-.5Zm0-.075v-.5a.5.5 0 0 0-.5.5h.5Zm.537-5.25a.5.5 0 0 0-1 0h1Zm-1 3a.5.5 0 1 0 1 0h-1ZM8 14.25A6.25 6.25 0 0 1 1.75 8h-1A7.25 7.25 0 0 0 8 15.25v-1ZM1.75 8A6.25 6.25 0 0 1 8 1.75v-1A7.25 7.25 0 0 0 .75 8h1ZM8 1.75A6.25 6.25 0 0 1 14.25 8h1A7.25 7.25 0 0 0 8 .75v1ZM14.25 8A6.25 6.25 0 0 1 8 14.25v1A7.25 7.25 0 0 0 15.25 8h-1Zm-6.713 2.588v.075h1v-.075h-1Zm.5-.425h-.074v1h.074v-1Zm.426.5v-.075h-1v.074h1Zm-.5.425h.074v-1h-.074v1ZM7.5 5.338v3h1v-3h-1Z"/></symbol><symbol id="check-white" viewBox="0 0 14 10"><path clip-rule="evenodd" d="M13.94 1.99 12.516.568 6.223 6.86 2.26 2.897.836 4.32 6.22 9.706l.003-.003.002.002 7.714-7.714Z"/></symbol><symbol id="check" viewBox="0 0 20 20"><path d="M10 20C4.477 20 0 15.523 0 10S4.477 0 10 0s10 4.477 10 10-4.477 10-10 10Zm0-1a9 9 0 1 0 0-18 9 9 0 0 0 0 18Zm3.146-11.854a.5.5 0 0 1 .708.708l-5 5a.5.5 0 0 1-.708 0l-2-2a.5.5 0 0 1 .708-.708L8.5 11.793l4.646-4.647Z"/></symbol><symbol id="checkbox" viewBox="0 0 24 24"><path d="M20.285 2 9 13.567 3.714 8.556 0 12.272 9 21 24 5.715z"/></symbol><symbol id="choose-btn-arrow" viewBox="0 0 53 11"><path fill-rule="evenodd" clip-rule="evenodd" d="m52.845 5.793.105-.104L48 .739l-1.414 1.414 2.586 2.586H.05v2h49.054l-2.607 2.607 1.415 1.414 4.95-4.95-.018-.017Zm-2.794 0 .087-.087-.087-.087v.175Z"/></symbol><symbol id="choose-search-icon"><path d="M12.557 10.896a.5.5 0 0 0-.707.708l.707-.708Zm3.793 5.208a.5.5 0 0 0 .707-.708l-.707.708ZM8.453 12.25a4.75 4.75 0 0 1-4.75-4.75h-1a5.75 5.75 0 0 0 5.75 5.75v-1ZM3.703 7.5a4.75 4.75 0 0 1 4.75-4.75v-1a5.75 5.75 0 0 0-5.75 5.75h1Zm4.75-4.75a4.75 4.75 0 0 1 4.75 4.75h1a5.75 5.75 0 0 0-5.75-5.75v1Zm4.75 4.75a4.75 4.75 0 0 1-4.75 4.75v1a5.75 5.75 0 0 0 5.75-5.75h-1Zm-1.353 4.104 4.5 4.5.707-.708-4.5-4.5-.707.708Z"/></symbol><symbol id="eye-slash" viewBox="0 0 640 512"><!--! Font Awesome Pro 6.4.0 by @fontawesome - https://fontawesome.com License - https://fontawesome.com/license (Commercial License) Copyright 2023 Fonticons, Inc.--><path d="M38.8 5.1C28.4-3.1 13.3-1.2 5.1 9.2s-6.3 25.5 4.1 33.7l592 464c10.4 8.2 25.5 6.3 33.7-4.1s6.3-25.5-4.1-33.7l-105.2-82.4c39.6-40.6 66.4-86.1 79.9-118.4 3.3-7.9 3.3-16.7 0-24.6-14.9-35.7-46.2-87.7-93-131.1C465.5 68.8 400.8 32 320 32c-68.2 0-125 26.3-169.3 60.8L38.8 5.1zM223 149.5c48.6-44.3 123-50.8 179.3-11.7 60.8 42.4 78.9 123.2 44.2 186.9L408 294.5c8.4-19.3 10.6-41.4 4.8-63.3-11.1-41.5-47.8-69.4-88.6-71.1-5.8-.2-9.2 6.1-7.4 11.7 2.1 6.4 3.3 13.2 3.3 20.3 0 10.2-2.4 19.8-6.6 28.3L223 149.5zm223.1 298-363-286c-11 14.4-20.5 28.7-28.4 42.2l339 265.7c18.7-5.5 36.2-13 52.6-21.8zM34.5 268.3c14.9 35.7 46.2 87.7 93 131.1 47 43.8 111.7 80.6 192.5 80.6 3.1 0 6.1-.1 9.2-.2l-296.1-232c-1.8 6.8-1.3 14 1.4 20.5z"/></symbol><symbol id="eye" viewBox="0 0 576 512"><path d="M288 32c-80.8 0-145.5 36.8-192.6 80.6C48.6 156 17.3 208 2.5 243.7c-3.3 7.9-3.3 16.7 0 24.6C17.3 304 48.6 356 95.4 399.4 142.5 443.2 207.2 480 288 480s145.5-36.8 192.6-80.6c46.8-43.5 78.1-95.4 93-131.1 3.3-7.9 3.3-16.7 0-24.6-14.9-35.7-46.2-87.7-93-131.1C433.5 68.8 368.8 32 288 32zM144 256a144 144 0 1 1 288 0 144 144 0 1 1-288 0zm144-64c0 35.3-28.7 64-64 64-7.1 0-13.9-1.2-20.3-3.3-5.5-1.8-11.9 1.6-11.7 7.4.3 6.9 1.3 13.8 3.2 20.7 13.7 51.2 66.4 81.6 117.6 67.9s81.6-66.4 67.9-117.6c-11.1-41.5-47.8-69.4-88.6-71.1-5.8-.2-9.2 6.1-7.4 11.7 2.1 6.4 3.3 13.2 3.3 20.3z"/></symbol><symbol id="heart-border" viewBox="0 0 512 512"><!--! Font Awesome Pro 6.4.0 by @fontawesome - https://fontawesome.com License - https://fontawesome.com/license (Commercial License) Copyright 2023 Fonticons, Inc.--><path d="m225.8 468.2-2.5-2.3L48.1 303.2C17.4 274.7 0 234.7 0 192.8v-3.3c0-70.4 50-130.8 119.2-144 39.4-7.6 79.7 1.5 111.8 24.1 9 6.4 17.4 13.8 25 22.3 4.2-4.8 8.7-9.2 13.5-13.3 3.7-3.2 7.5-6.2 11.5-9 32.1-22.6 72.4-31.7 111.8-24.2C462 58.6 512 119.1 512 189.5v3.3c0 41.9-17.4 81.9-48.1 110.4L288.7 465.9l-2.5 2.3c-8.2 7.6-19 11.9-30.2 11.9s-22-4.2-30.2-11.9zM239.1 145c-.4-.3-.7-.7-1-1.1l-17.8-20-.1-.1c-23.1-25.9-58-37.7-92-31.2-46.6 8.9-80.2 49.5-80.2 96.9v3.3c0 28.5 11.9 55.8 32.8 75.2L256 430.7 431.2 268a102.7 102.7 0 0 0 32.8-75.2v-3.3c0-47.3-33.6-88-80.1-96.9-34-6.5-69 5.4-92 31.2l-.1.1-.1.1-17.8 20c-.3.4-.7.7-1 1.1-4.5 4.5-10.6 7-16.9 7s-12.4-2.5-16.9-7z"/></symbol><symbol id="heart" viewBox="0 0 512 512"><path d="m47.6 300.4 180.7 168.7c7.5 7 17.4 10.9 27.7 10.9s20.2-3.9 27.7-10.9l180.7-168.7c30.4-28.3 47.6-68 47.6-109.5v-5.8c0-69.9-50.5-129.5-119.4-141-45.6-7.6-92 7.3-124.6 39.9l-12 12-12-12c-32.6-32.6-79-47.5-124.6-39.9C50.5 55.6 0 115.2 0 185.1v5.8c0 41.5 17.2 81.2 47.6 109.5z"/></symbol><symbol id="logo" viewBox="0 0 244 75"><path d="m12.403 45.953-9.912-29.4h3.193l9.282 27.678H13.37l9.575-27.678h2.857l9.45 27.678h-1.513l9.367-27.678h2.981l-9.912 29.4H32.9l-9.03-26.25h.84l-9.073 26.25h-3.234Zm46.06.21c-2.129 0-4.047-.476-5.755-1.428-1.68-.98-3.01-2.31-3.99-3.99-.98-1.708-1.47-3.654-1.47-5.838 0-2.212.49-4.158 1.47-5.838a10.59 10.59 0 0 1 3.99-3.948c1.68-.952 3.598-1.428 5.754-1.428 2.184 0 4.116.476 5.796 1.428a10.206 10.206 0 0 1 3.99 3.948c.98 1.68 1.47 3.626 1.47 5.838 0 2.184-.49 4.13-1.47 5.838-.952 1.68-2.282 3.01-3.99 3.99-1.708.952-3.64 1.428-5.796 1.428Zm0-2.646c1.595 0 3.01-.35 4.241-1.05a7.723 7.723 0 0 0 2.898-3.024c.728-1.316 1.092-2.828 1.092-4.536 0-1.736-.364-3.248-1.092-4.536-.7-1.288-1.666-2.282-2.898-2.982-1.232-.728-2.632-1.092-4.2-1.092s-2.968.364-4.2 1.092c-1.232.7-2.212 1.694-2.94 2.982-.728 1.288-1.092 2.8-1.092 4.536 0 1.708.364 3.22 1.092 4.536.728 1.288 1.708 2.296 2.94 3.024 1.232.7 2.618 1.05 4.158 1.05Zm17.343 2.436v-22.05h2.856v6.006l-.294-1.05c.616-1.68 1.652-2.954 3.108-3.822 1.456-.896 3.262-1.344 5.418-1.344v2.898h-.336a1.38 1.38 0 0 0-.336-.042c-2.324 0-4.144.714-5.46 2.142-1.316 1.4-1.974 3.402-1.974 6.006v11.256h-2.982Zm16.53 0V14.79h2.982v31.164h-2.982Zm20.057.21c-2.1 0-3.99-.476-5.67-1.428a10.372 10.372 0 0 1-3.906-3.948c-.952-1.708-1.428-3.668-1.428-5.88 0-2.24.476-4.2 1.428-5.88.952-1.68 2.254-2.982 3.906-3.906 1.68-.952 3.57-1.428 5.67-1.428 1.932 0 3.654.434 5.166 1.302 1.54.868 2.758 2.142 3.654 3.822.924 1.652 1.386 3.682 1.386 6.09 0 2.38-.448 4.41-1.344 6.09-.896 1.68-2.114 2.968-3.654 3.864-1.512.868-3.248 1.302-5.208 1.302Zm.21-2.646c1.568 0 2.968-.35 4.2-1.05a7.636 7.636 0 0 0 2.94-3.024c.728-1.316 1.092-2.828 1.092-4.536 0-1.736-.364-3.248-1.092-4.536a7.354 7.354 0 0 0-2.94-2.982c-1.232-.728-2.632-1.092-4.2-1.092-1.54 0-2.926.364-4.158 1.092-1.232.7-2.212 1.694-2.94 2.982-.728 1.288-1.092 2.8-1.092 4.536 0 1.708.364 3.22 1.092 4.536.728 1.288 1.708 2.296 2.94 3.024 1.232.7 2.618 1.05 4.158 1.05Zm8.316 2.436v-6.636l.294-4.452-.42-4.452V14.79h2.982v31.164h-2.856Zm30.889.252a19.07 19.07 0 0 1-6.3-1.05c-1.988-.728-3.528-1.652-4.62-2.772l1.218-2.394c1.036 1.008 2.422 1.862 4.158 2.562a15.441 15.441 0 0 0 5.544 1.008c1.848 0 3.346-.224 4.494-.672 1.176-.476 2.03-1.106 2.562-1.89.56-.784.84-1.652.84-2.604 0-1.148-.336-2.072-1.008-2.772-.644-.7-1.498-1.246-2.562-1.638a26.243 26.243 0 0 0-3.528-1.092 194.67 194.67 0 0 1-3.864-.966 17.598 17.598 0 0 1-3.57-1.428 7.685 7.685 0 0 1-2.604-2.31c-.644-.98-.966-2.254-.966-3.822 0-1.456.378-2.786 1.134-3.99.784-1.232 1.974-2.212 3.57-2.94 1.596-.756 3.64-1.134 6.132-1.134 1.652 0 3.29.238 4.914.714 1.624.448 3.024 1.078 4.2 1.89l-1.05 2.478a13.829 13.829 0 0 0-4.032-1.848c-1.4-.392-2.758-.588-4.074-.588-1.764 0-3.22.238-4.368.714-1.148.476-2.002 1.12-2.562 1.932-.532.784-.798 1.68-.798 2.688 0 1.148.322 2.072.966 2.772.672.7 1.54 1.246 2.604 1.638 1.092.392 2.282.742 3.57 1.05 1.288.308 2.562.644 3.822 1.008a16.6 16.6 0 0 1 3.528 1.428c1.092.56 1.96 1.316 2.604 2.268.672.952 1.008 2.198 1.008 3.738 0 1.428-.392 2.758-1.176 3.99-.784 1.204-1.988 2.184-3.612 2.94-1.596.728-3.654 1.092-6.174 1.092Zm24.076-.042c-2.072 0-3.668-.56-4.788-1.68-1.12-1.12-1.68-2.702-1.68-4.746V19.031h2.982V39.57c0 1.288.322 2.282.966 2.982.672.7 1.624 1.05 2.856 1.05 1.316 0 2.408-.378 3.276-1.134l1.05 2.142c-.588.532-1.302.924-2.142 1.176a8.453 8.453 0 0 1-2.52.378Zm-10.416-19.782v-2.478h13.65v2.478h-13.65Zm34.324 19.572v-4.872l-.126-.798v-8.148c0-1.876-.532-3.318-1.596-4.326-1.036-1.008-2.59-1.512-4.662-1.512-1.428 0-2.786.238-4.074.714-1.288.476-2.38 1.106-3.276 1.89l-1.344-2.226c1.12-.952 2.464-1.68 4.032-2.184a15.32 15.32 0 0 1 4.956-.798c2.856 0 5.054.714 6.594 2.142 1.568 1.4 2.352 3.542 2.352 6.426v13.692h-2.856Zm-7.602.21c-1.652 0-3.094-.266-4.326-.798-1.204-.56-2.128-1.316-2.772-2.268-.644-.98-.966-2.1-.966-3.36 0-1.148.266-2.184.798-3.108.56-.952 1.456-1.708 2.688-2.268 1.26-.588 2.94-.882 5.04-.882h7.602v2.226h-7.518c-2.128 0-3.612.378-4.452 1.134-.812.756-1.218 1.694-1.218 2.814 0 1.26.49 2.268 1.47 3.024.98.756 2.352 1.134 4.116 1.134 1.68 0 3.122-.378 4.326-1.134 1.232-.784 2.128-1.904 2.688-3.36l.672 2.058c-.56 1.456-1.54 2.618-2.94 3.486-1.372.868-3.108 1.302-5.208 1.302Zm18.558-.21v-22.05h2.856v6.006l-.294-1.05c.616-1.68 1.652-2.954 3.108-3.822 1.456-.896 3.262-1.344 5.418-1.344v2.898h-.336a1.38 1.38 0 0 0-.336-.042c-2.324 0-4.144.714-5.46 2.142-1.316 1.4-1.974 3.402-1.974 6.006v11.256h-2.982Zm22.697.21c-1.82 0-3.542-.252-5.166-.756-1.624-.532-2.898-1.19-3.822-1.974l1.344-2.352c.896.672 2.044 1.26 3.444 1.764 1.4.476 2.87.714 4.41.714 2.1 0 3.612-.322 4.536-.966.924-.672 1.386-1.554 1.386-2.646 0-.812-.266-1.442-.798-1.89-.504-.476-1.176-.826-2.016-1.05a22.19 22.19 0 0 0-2.814-.63 60.622 60.622 0 0 1-3.108-.588 11.988 11.988 0 0 1-2.772-.966 5.83 5.83 0 0 1-2.058-1.806c-.504-.756-.756-1.764-.756-3.024 0-1.204.336-2.282 1.008-3.234.672-.952 1.652-1.694 2.94-2.226 1.316-.56 2.912-.84 4.788-.84 1.428 0 2.856.196 4.284.588 1.428.364 2.604.854 3.528 1.47l-1.302 2.394a9.689 9.689 0 0 0-3.15-1.428 12.622 12.622 0 0 0-3.36-.462c-1.988 0-3.458.35-4.41 1.05-.924.672-1.386 1.54-1.386 2.604 0 .84.252 1.498.756 1.974.532.476 1.218.854 2.058 1.134.868.252 1.806.462 2.814.63 1.036.168 2.058.378 3.066.63 1.036.224 1.974.546 2.814.966.868.392 1.554.966 2.058 1.722.532.728.798 1.694.798 2.898 0 1.288-.364 2.408-1.092 3.36-.7.924-1.736 1.652-3.108 2.184-1.344.504-2.982.756-4.914.756ZM3.54 67.383V56.455h1.499l4.954 8.388h-.625l5.037-8.388h1.374v10.928h-1.353V58.14l.27.125-4.704 7.785h-.666l-4.745-7.869.312-.062v9.263H3.54Zm16.445 0V56.455h1.477v8.68l7.306-8.68h1.312v10.928h-1.478v-8.7l-7.285 8.7h-1.332Zm19.971.104c-.944 0-1.797-.215-2.56-.645-.763-.444-1.374-1.076-1.832-1.895-.444-.832-.666-1.845-.666-3.039 0-1.193.222-2.199.666-3.018.444-.832 1.048-1.464 1.811-1.894.763-.43 1.624-.645 2.581-.645 1.04 0 1.97.236 2.79.708a4.917 4.917 0 0 1 1.956 1.956c.472.833.708 1.797.708 2.893 0 1.11-.236 2.082-.708 2.915a5.098 5.098 0 0 1-1.957 1.956c-.818.472-1.748.708-2.789.708Zm-5.64 3.934V56.455h1.415v3.289l-.146 2.185.208 2.207v7.285h-1.478Zm5.536-5.246c.777 0 1.471-.173 2.082-.52.61-.36 1.096-.86 1.457-1.499.36-.652.54-1.401.54-2.248 0-.846-.18-1.588-.54-2.227a3.979 3.979 0 0 0-1.457-1.498c-.611-.361-1.305-.542-2.082-.542-.777 0-1.478.18-2.102.541-.61.361-1.096.86-1.457 1.5-.347.638-.52 1.38-.52 2.226 0 .847.173 1.596.52 2.248.36.639.846 1.138 1.457 1.5.624.346 1.325.52 2.102.52Zm13.23 1.312c-1.056 0-2.006-.236-2.853-.708a5.406 5.406 0 0 1-1.977-1.977c-.486-.847-.729-1.811-.729-2.894 0-1.096.243-2.06.729-2.893a5.248 5.248 0 0 1 1.977-1.956c.833-.472 1.784-.708 2.852-.708 1.082 0 2.04.236 2.872.708a5.058 5.058 0 0 1 1.978 1.956c.486.833.729 1.797.729 2.893 0 1.083-.243 2.047-.729 2.894a5.205 5.205 0 0 1-1.977 1.977c-.847.472-1.804.708-2.873.708Zm0-1.311c.79 0 1.49-.174 2.101-.52.611-.362 1.09-.861 1.437-1.5.36-.652.54-1.401.54-2.248 0-.86-.18-1.61-.54-2.248a3.683 3.683 0 0 0-1.437-1.477c-.61-.361-1.304-.542-2.081-.542-.777 0-1.471.18-2.082.541-.61.347-1.096.84-1.457 1.478-.36.639-.54 1.388-.54 2.248 0 .847.18 1.596.54 2.248.361.639.847 1.138 1.457 1.5.61.346 1.298.52 2.061.52Zm8.736 1.207V56.455h4.83c1.234 0 2.206.236 2.913.708.722.471 1.083 1.165 1.083 2.081 0 .888-.34 1.575-1.02 2.06-.68.473-1.575.709-2.685.709l.291-.438c1.304 0 2.262.243 2.872.729.611.486.916 1.186.916 2.102 0 .944-.347 1.68-1.04 2.207-.68.513-1.742.77-3.185.77h-4.975Zm1.436-1.166h3.476c.93 0 1.63-.145 2.103-.437.485-.305.728-.79.728-1.457 0-.666-.215-1.152-.645-1.457-.43-.305-1.11-.458-2.04-.458h-3.622v3.81Zm0-4.912h3.29c.846 0 1.49-.16 1.935-.479.458-.32.687-.784.687-1.395 0-.61-.23-1.068-.687-1.373-.444-.306-1.09-.458-1.936-.458h-3.289v3.705Zm21.885 6.078V56.455h1.478v10.928H85.14Zm-6.057-7.077c1.374.014 2.422.319 3.143.916.722.596 1.083 1.457 1.083 2.58 0 1.166-.389 2.061-1.166 2.686-.777.624-1.887.93-3.33.916l-4.33-.021V56.455h1.478v3.809l3.122.042Zm-.375 5.974c1.027.013 1.797-.188 2.31-.604.528-.43.792-1.055.792-1.873 0-.82-.257-1.416-.77-1.79-.514-.389-1.29-.59-2.332-.604l-2.747-.042v4.871l2.747.042Zm16.801 1.207c-1.137 0-2.137-.236-2.997-.708a5.315 5.315 0 0 1-2.019-1.977c-.486-.847-.729-1.811-.729-2.894 0-1.082.23-2.04.687-2.872a5.187 5.187 0 0 1 1.915-1.957c.819-.485 1.735-.728 2.748-.728 1.027 0 1.936.236 2.727.708a4.857 4.857 0 0 1 1.894 1.956c.458.833.687 1.797.687 2.893 0 .07-.007.146-.021.23v.228h-9.513v-1.103h8.722l-.583.437c0-.79-.173-1.492-.52-2.102a3.662 3.662 0 0 0-1.374-1.457c-.583-.347-1.256-.52-2.02-.52-.748 0-1.421.173-2.018.52a3.618 3.618 0 0 0-1.395 1.457c-.333.624-.5 1.34-.5 2.144v.229c0 .833.181 1.568.542 2.206a4.044 4.044 0 0 0 1.54 1.478c.666.347 1.423.52 2.269.52a4.79 4.79 0 0 0 1.853-.353 3.854 3.854 0 0 0 1.498-1.083l.833.958a4.674 4.674 0 0 1-1.832 1.332c-.722.305-1.52.458-2.394.458Zm16.567.02c.902 0 1.714-.138 2.435-.416.736-.277 1.318-.659 1.749-1.144.43-.5.645-1.076.645-1.728 0-.833-.354-1.492-1.062-1.977-.694-.486-1.665-.729-2.914-.729l-.062.395c.707 0 1.339-.11 1.894-.333.555-.222.999-.534 1.332-.936.333-.403.5-.875.5-1.416 0-.61-.209-1.13-.625-1.56-.416-.445-.978-.785-1.686-1.02-.694-.237-1.478-.34-2.352-.313-.638 0-1.277.09-1.915.27a9.26 9.26 0 0 0-1.894.75l.416 1.145a7.696 7.696 0 0 1 1.728-.645 7.408 7.408 0 0 1 1.686-.25c.597 0 1.131.07 1.603.208.471.139.839.347 1.103.624.277.278.416.61.416 1 0 .36-.118.672-.354.936-.222.264-.541.465-.957.604a4.543 4.543 0 0 1-1.436.208h-1.77v1.082h1.874c.915 0 1.637.167 2.164.5.528.319.791.77.791 1.353 0 .402-.138.763-.416 1.082-.277.32-.666.57-1.166.75-.499.18-1.089.277-1.769.291-.68 0-1.367-.097-2.061-.291a5.933 5.933 0 0 1-1.831-.895l-.479 1.103a6.104 6.104 0 0 0 2.061 1.02 8.523 8.523 0 0 0 2.352.333Zm8.184-.124V56.455h4.829c1.235 0 2.206.236 2.914.708.722.471 1.082 1.165 1.082 2.081 0 .888-.34 1.575-1.019 2.06-.68.473-1.575.709-2.686.709l.292-.438c1.304 0 2.262.243 2.872.729.611.486.916 1.186.916 2.102 0 .944-.347 1.68-1.041 2.207-.68.513-1.741.77-3.184.77h-4.975Zm1.436-1.166h3.476c.93 0 1.631-.145 2.103-.437.485-.305.728-.79.728-1.457 0-.666-.215-1.152-.645-1.457-.43-.305-1.11-.458-2.04-.458h-3.622v3.81Zm0-4.912h3.289c.846 0 1.492-.16 1.936-.479.458-.32.687-.784.687-1.395 0-.61-.229-1.068-.687-1.373-.444-.306-1.09-.458-1.936-.458h-3.289v3.705Zm15.911 6.182c-1.138 0-2.137-.236-2.997-.708a5.306 5.306 0 0 1-2.019-1.977c-.486-.847-.729-1.811-.729-2.894 0-1.082.229-2.04.687-2.872a5.187 5.187 0 0 1 1.915-1.957c.819-.485 1.735-.728 2.748-.728 1.027 0 1.935.236 2.726.708a4.858 4.858 0 0 1 1.895 1.956c.458.833.686 1.797.686 2.893 0 .07-.006.146-.02.23v.228h-9.513v-1.103h8.722l-.583.437c0-.79-.174-1.492-.521-2.102a3.658 3.658 0 0 0-1.373-1.457c-.583-.347-1.256-.52-2.019-.52-.75 0-1.423.173-2.019.52a3.616 3.616 0 0 0-1.395 1.457c-.333.624-.5 1.34-.5 2.144v.229c0 .833.181 1.568.542 2.206a4.04 4.04 0 0 0 1.54 1.478c.666.347 1.422.52 2.269.52.666 0 1.283-.117 1.852-.353a3.851 3.851 0 0 0 1.499-1.083l.833.958A4.68 4.68 0 0 1 140 67.029c-.722.305-1.52.458-2.394.458Zm10.814.02c.902 0 1.714-.138 2.435-.416.736-.277 1.319-.659 1.749-1.144.43-.5.645-1.076.645-1.728 0-.833-.354-1.492-1.062-1.977-.693-.486-1.665-.729-2.914-.729l-.062.395c.708 0 1.339-.11 1.894-.333.555-.222.999-.534 1.332-.936.333-.403.5-.875.5-1.416a2.16 2.16 0 0 0-.625-1.56c-.416-.445-.978-.785-1.686-1.02-.694-.237-1.478-.34-2.352-.313-.638 0-1.276.09-1.915.27a9.26 9.26 0 0 0-1.894.75l.416 1.145a7.696 7.696 0 0 1 1.728-.645 7.408 7.408 0 0 1 1.686-.25c.597 0 1.131.07 1.603.208.472.139.839.347 1.103.624.277.278.416.61.416 1 0 .36-.118.672-.354.936-.222.264-.541.465-.957.604a4.538 4.538 0 0 1-1.436.208h-1.77v1.082h1.874c.916 0 1.637.167 2.165.5.527.319.79.77.79 1.353 0 .402-.138.763-.416 1.082-.277.32-.666.57-1.165.75-.5.18-1.09.277-1.77.291a7.61 7.61 0 0 1-2.06-.291 5.927 5.927 0 0 1-1.832-.895l-.479 1.103a6.104 6.104 0 0 0 2.061 1.02 8.523 8.523 0 0 0 2.352.333Zm15.677-.832v-8.93h-5.266l-.125 2.436a35.865 35.865 0 0 1-.145 2.165c-.056.707-.16 1.36-.313 1.956-.138.583-.34 1.062-.603 1.436-.264.361-.604.57-1.02.625l-1.478-.27c.43.013.784-.14 1.061-.459.278-.333.493-.784.646-1.353.152-.569.263-1.214.333-1.935.069-.736.125-1.485.166-2.248l.146-3.643h8.076v10.22h-1.478Zm-9.408 3.351v-3.934h12.593v3.934h-1.395v-2.643h-9.803v2.643h-1.395Zm26.131-2.643V56.455h1.477v10.928h-1.477Zm-6.058-7.077c1.374.014 2.422.319 3.143.916.722.596 1.083 1.457 1.083 2.58 0 1.166-.389 2.061-1.166 2.686-.777.624-1.887.93-3.33.916l-4.33-.021V56.455h1.478v3.809l3.122.042Zm-.374 5.974c1.027.013 1.797-.188 2.31-.604.527-.43.791-1.055.791-1.873 0-.82-.257-1.416-.77-1.79-.513-.389-1.291-.59-2.331-.604l-2.748-.042v4.871l2.748.042Zm23.164 1.207c-.957 0-1.818-.215-2.581-.645-.763-.444-1.367-1.083-1.811-1.915-.444-.833-.666-1.839-.666-3.019 0-1.193.222-2.199.666-3.018.458-.832 1.069-1.464 1.832-1.894.763-.43 1.617-.645 2.56-.645 1.041 0 1.971.236 2.79.708a4.957 4.957 0 0 1 1.956 1.935c.472.833.708 1.804.708 2.914 0 1.097-.236 2.068-.708 2.915a5.101 5.101 0 0 1-1.956 1.956c-.819.472-1.749.708-2.79.708Zm-5.641-.104V51.938h1.478v7.743l-.208 2.207.146 2.206v3.289h-1.416Zm5.537-1.207c.777 0 1.471-.174 2.082-.52.61-.362 1.096-.861 1.457-1.5.361-.652.541-1.401.541-2.248 0-.86-.18-1.61-.541-2.248a3.831 3.831 0 0 0-1.457-1.477c-.611-.361-1.305-.542-2.082-.542-.777 0-1.478.18-2.102.541a3.824 3.824 0 0 0-1.457 1.478c-.347.639-.521 1.388-.521 2.248 0 .847.174 1.596.521 2.248a3.977 3.977 0 0 0 1.457 1.5c.624.346 1.325.52 2.102.52Zm8.571 1.207V56.455h1.415v2.976l-.146-.52c.306-.833.819-1.464 1.541-1.894.721-.444 1.616-.666 2.685-.666v1.436h-.167a.68.68 0 0 0-.166-.02c-1.152 0-2.054.353-2.706 1.06-.653.695-.979 1.687-.979 2.977v5.579h-1.477Zm8.191 0V56.455h1.478v10.928h-1.478Zm.75-13.343c-.306 0-.562-.104-.77-.312a1.02 1.02 0 0 1-.313-.75c0-.29.104-.534.313-.728.208-.208.464-.312.77-.312.305 0 .562.097.77.291a.956.956 0 0 1 .312.729c0 .305-.104.562-.312.77-.194.208-.451.312-.77.312Zm9.378 13.447c-1.082 0-2.054-.236-2.914-.708a5.35 5.35 0 0 1-1.998-1.977c-.486-.847-.729-1.811-.729-2.894 0-1.096.243-2.06.729-2.893a5.197 5.197 0 0 1 1.998-1.956c.86-.472 1.832-.708 2.914-.708.93 0 1.769.18 2.519.541.749.36 1.339.902 1.769 1.624l-1.103.749c-.375-.555-.84-.965-1.395-1.228a4.168 4.168 0 0 0-1.811-.396c-.777 0-1.478.18-2.102.541a3.782 3.782 0 0 0-1.478 1.478c-.361.639-.541 1.388-.541 2.248 0 .86.18 1.61.541 2.248a3.93 3.93 0 0 0 1.478 1.5c.624.346 1.325.52 2.102.52.652 0 1.256-.132 1.811-.396a3.522 3.522 0 0 0 1.395-1.207l1.103.75a4.255 4.255 0 0 1-1.769 1.623c-.75.36-1.589.54-2.519.54Zm10.126 0a8.589 8.589 0 0 1-2.56-.375c-.805-.263-1.436-.59-1.894-.978l.666-1.166c.444.333 1.013.625 1.707.874a6.737 6.737 0 0 0 2.185.354c1.041 0 1.79-.16 2.248-.478.458-.333.687-.77.687-1.312 0-.402-.132-.714-.395-.936-.25-.236-.583-.41-.999-.52a11.037 11.037 0 0 0-1.395-.313 29.886 29.886 0 0 1-1.54-.291c-.5-.111-.958-.271-1.374-.48a2.887 2.887 0 0 1-1.02-.894c-.25-.375-.375-.875-.375-1.499 0-.597.167-1.13.5-1.603.333-.471.818-.84 1.457-1.103.652-.277 1.443-.416 2.373-.416.707 0 1.415.097 2.123.291.708.18 1.29.423 1.748.729l-.645 1.186a4.806 4.806 0 0 0-1.561-.708 6.256 6.256 0 0 0-1.665-.228c-.986 0-1.714.173-2.186.52-.458.333-.687.763-.687 1.29 0 .417.125.743.375.979.264.236.604.423 1.02.562.43.125.895.229 1.394.312.514.083 1.02.187 1.52.312.513.111.978.27 1.395.479.43.194.77.479 1.02.853.263.361.395.84.395 1.437 0 .638-.18 1.193-.541 1.665-.347.458-.861.819-1.541 1.082-.666.25-1.477.375-2.435.375Z"/></symbol><symbol id="meets-slider-arrow" viewBox="0 0 55 18"><path fill-rule="evenodd" clip-rule="evenodd" d="m46.406.648 6.322 6.322.002-.002 2.106 2.106L46.41 17.5l-2.107-2.107 4.866-4.866H.242V7.621h48.924L44.3 2.755 46.406.648Z"/></symbol><symbol id="more-arrow" viewBox="0 0 23 13"><path d="M16.984.844 22.641 6.5l-1.414 1.414-5.657-5.657L16.984.844Z"/><path d="m22.64 6.5-5.656 5.657-1.414-1.414 5.656-5.657L22.641 6.5Z"/><path d="M.055 5.527h20.804V7.48H.055V5.527Z"/></symbol><symbol id="notice" viewBox="0 0 23 24"><path fill-rule="evenodd" clip-rule="evenodd" d="M11.094 2c-4.301 0-7.75 3.404-7.75 7.556v4.55c0 .49-.2.954-.546 1.293l-.487.476a7.627 7.627 0 0 0-.178.179.208.208 0 0 0-.036.084 9.81 9.81 0 0 0 .003.741.9.9 0 0 0 .008.084.237.237 0 0 0 .144.132.89.89 0 0 0 .099.01c.11.006.259.006.51.006h16.465c.252 0 .4 0 .511-.006a.891.891 0 0 0 .1-.01.237.237 0 0 0 .143-.132.854.854 0 0 0 .008-.084 9.7 9.7 0 0 0 .006-.496c0-.109 0-.168-.002-.211 0-.038-.002-.04 0-.031a.208.208 0 0 0-.037-.087 8.324 8.324 0 0 0-.178-.178l-.487-.477a1.81 1.81 0 0 1-.546-1.294v-4.55c0-4.151-3.449-7.555-7.75-7.555Zm2.75 17.111h-5.5v.222c0 1.452 1.21 2.667 2.75 2.667s2.75-1.215 2.75-2.667v-.222Zm-7.5 0v.222c0 2.599 2.148 4.667 4.75 4.667s4.75-2.068 4.75-4.667v-.222H19.426c.375.001.777.002 1.13-.114a2.236 2.236 0 0 0 1.418-1.391c.123-.356.121-.76.12-1.124v-.138c0-.165 0-.35-.03-.535a2.208 2.208 0 0 0-.398-.94c-.11-.15-.242-.279-.36-.393l-.03-.03-.432-.422V9.556c0-5.299-4.387-9.556-9.75-9.556s-9.75 4.257-9.75 9.556v4.468l-.431.421-.03.03c-.119.115-.25.244-.36.393a2.207 2.207 0 0 0-.399.941c-.03.184-.03.369-.03.532V16.483c-.001.363-.002.767.12 1.123a2.236 2.236 0 0 0 1.417 1.39c.354.117.755.116 1.13.115h3.583Zm14.444-5.142Z"/></symbol><symbol id="pagination-arrow"><path fill-rule="evenodd" clip-rule="evenodd" d="M7.343 1.744 6.149.55.777 5.922l1.194 1.194.002-.002 4.18 4.18L7.347 10.1l-4.18-4.18 4.176-4.176Z"/></symbol><symbol id="photo-arrow-next" viewBox="0 0 54 11"><path d="M.75 4.801h50v2h-50z"/><path d="m53.657 5.74-1.415 1.414-4.95-4.95L48.708.792z"/><path d="m48.707 10.69-1.414-1.415 4.95-4.95 1.414 1.414z"/></symbol><symbol id="photo-arrow-prev" viewBox="0 0 54 11"><path d="M53.25 6.765h-50v-2h50z"/><path d="m.344 5.826 1.414-1.414 4.95 4.95-1.414 1.414z"/><path d="m5.293.877 1.414 1.414-4.95 4.95L.343 5.827z"/></symbol><symbol id="play-solid" viewBox="0 0 384 512"><!--! Font Awesome Pro 6.4.0 by @fontawesome - https://fontawesome.com License - https://fontawesome.com/license (Commercial License) Copyright 2023 Fonticons, Inc.--><path d="M73 39c-14.8-9.1-33.4-9.4-48.5-.9S0 62.6 0 80v352c0 17.4 9.4 33.4 24.5 41.9S58.2 482 73 473l288-176c14.3-8.7 23-24.2 23-41s-8.7-32.2-23-41L73 39z"/></symbol><symbol id="play"><g filter="url(#play-a)"><circle cx="91.157" cy="81.157" r="79.657" transform="rotate(-180 91.157 81.157)" stroke-width="3" shape-rendering="crispEdges"/></g><g filter="url(#play-b)"><path d="M112.049 81.157 80.711 99.25V63.065l31.338 18.092Z"/></g></symbol><symbol id="search" viewBox="0 0 25 24"><path d="M15.8 14.293a1 1 0 0 0-1.413 1.414l1.414-1.414Zm4.587 7.414a1 1 0 0 0 1.414-1.414l-1.414 1.414ZM10.094 16a6 6 0 0 1-6-6h-2a8 8 0 0 0 8 8v-2Zm-6-6a6 6 0 0 1 6-6V2a8 8 0 0 0-8 8h2Zm6-6a6 6 0 0 1 6 6h2a8 8 0 0 0-8-8v2Zm6 6a6 6 0 0 1-6 6v2a8 8 0 0 0 8-8h-2Zm-1.707 5.707 6 6 1.414-1.414-6-6-1.414 1.414Z"/></symbol><symbol id="star" viewBox="0 0 29 27"><path d="m14.578 0 4.968 7.813 9.134 2.205-6.064 7.035.678 9.177-8.716-3.466-8.715 3.466.677-9.176-6.064-7.035L9.61 7.813 14.578 0Z"/></symbol><symbol id="style-slider-next"><path d="M.094 4.469h50v2h-50z"/><path d="m52.993 5.407-1.415 1.414-4.95-4.95L48.044.459z"/><path d="m48.043 10.357-1.414-1.415 4.95-4.95 1.413 1.415z"/></symbol><symbol id="style-slider-prev"><path d="M53.562 6.36h-50v-2h50z"/><path d="m.664 5.421 1.414-1.414 4.95 4.95-1.414 1.414z"/><path d="m5.613.472 1.414 1.414-4.95 4.95L.663 5.42z"/></symbol><symbol id="submit" viewBox="0 0 19 14"><path fill-rule="evenodd" clip-rule="evenodd" d="M18.471 2.601 16.505.635l-8.69 8.69L2.34 3.85.374 5.817l7.436 7.435.004-.004.006.005L18.47 2.601Z"/></symbol><symbol id="top-arrow"><path fill-rule="evenodd" clip-rule="evenodd" d="M6.07 11.61 1.835 7.373l-.002.002L.422 5.965 6.067.32 7.48 1.73l-3.26 3.26h18.75v1.947H4.22l3.26 3.261-1.41 1.411Z"/></symbol><symbol id="video-play"><path d="M32.125 18.556.788 36.648V.463l31.337 18.093Z"/></symbol></svg>