<svg width="32" height="32" viewBox="0 0 32 32" fill="none" xmlns="http://www.w3.org/2000/svg">
<path d="M1 31H31M1 7.66667V9.33333C1 10.6594 1.52678 11.9312 2.46447 12.8689C3.40215 13.8066 4.67392 14.3333 6 14.3333C7.32608 14.3333 8.59785 13.8066 9.53553 12.8689C10.4732 11.9312 11 10.6594 11 9.33333M1 7.66667H31M1 7.66667L4.33333 1H27.6667L31 7.66667M11 9.33333V7.66667M11 9.33333C11 10.6594 11.5268 11.9312 12.4645 12.8689C13.4021 13.8066 14.6739 14.3333 16 14.3333C17.3261 14.3333 18.5979 13.8066 19.5355 12.8689C20.4732 11.9312 21 10.6594 21 9.33333M21 9.33333V7.66667M21 9.33333C21 10.6594 21.5268 11.9312 22.4645 12.8689C23.4021 13.8066 24.6739 14.3333 26 14.3333C27.3261 14.3333 28.5979 13.8066 29.5355 12.8689C30.4732 11.9312 31 10.6594 31 9.33333V7.66667M4.33333 31V14.0833M27.6667 31V14.0833M11 31V24.3333C11 23.4493 11.3512 22.6014 11.9763 21.9763C12.6014 21.3512 13.4493 21 14.3333 21H17.6667C18.5507 21 19.3986 21.3512 20.0237 21.9763C20.6488 22.6014 21 23.4493 21 24.3333V31" stroke="black" stroke-width="1.5" stroke-linecap="round" stroke-linejoin="round"/>
</svg>
