<svg width="19" height="18" viewBox="0 0 19 18" fill="none" xmlns="http://www.w3.org/2000/svg">
<path d="M9.54526 11.5875H10.0453C10.0453 11.3113 9.8214 11.0875 9.54526 11.0875V11.5875ZM9.54526 11.6625L9.54514 12.1625C9.67777 12.1625 9.80497 12.1098 9.89877 12.0161C9.99256 11.9223 10.0453 11.7951 10.0453 11.6625H9.54526ZM9.46962 11.6624H8.96962C8.96962 11.9385 9.1934 12.1624 9.46949 12.1624L9.46962 11.6624ZM9.46962 11.5875V11.0875C9.19347 11.0875 8.96962 11.3113 8.96962 11.5875H9.46962ZM10.0074 6.33746C10.0074 6.06132 9.78358 5.83746 9.50744 5.83746C9.2313 5.83746 9.00744 6.06132 9.00744 6.33746H10.0074ZM9.00744 9.33746C9.00744 9.61361 9.2313 9.83746 9.50744 9.83746C9.78358 9.83746 10.0074 9.61361 10.0074 9.33746H9.00744ZM9.50744 15.25C6.00305 15.25 3.17285 12.4459 3.17285 9H2.17285C2.17285 13.0099 5.46255 16.25 9.50744 16.25V15.25ZM3.17285 9C3.17285 5.55407 6.00305 2.75 9.50744 2.75V1.75C5.46255 1.75 2.17285 4.99008 2.17285 9H3.17285ZM9.50744 2.75C13.0118 2.75 15.842 5.55407 15.842 9H16.842C16.842 4.99008 13.5523 1.75 9.50744 1.75V2.75ZM15.842 9C15.842 12.4459 13.0118 15.25 9.50744 15.25V16.25C13.5523 16.25 16.842 13.0099 16.842 9H15.842ZM9.04526 11.5875V11.6625H10.0453V11.5875H9.04526ZM9.54538 11.1625L9.46974 11.1624L9.46949 12.1624L9.54514 12.1625L9.54538 11.1625ZM9.96962 11.6624V11.5875H8.96962V11.6624H9.96962ZM9.46962 12.0875H9.54526V11.0875H9.46962V12.0875ZM9.00744 6.33746V9.33746H10.0074V6.33746H9.00744Z" fill="white"/>
</svg>
