<svg width="37" height="36" viewBox="0 0 37 36" fill="none" xmlns="http://www.w3.org/2000/svg">
<path d="M2.50013 18C2.50013 9.47107 9.51675 2.5 18.243 2.5C26.9692 2.5 33.9858 9.47107 33.9858 18C33.9858 26.5289 26.9692 33.5 18.243 33.5C9.51675 33.5 2.50013 26.5289 2.50013 18Z" stroke="white" stroke-width="5"/>
<mask id="path-2-inside-1_3990_14974" fill="white">
<path d="M22.939 18.0008L15.8948 22.0136L15.8948 13.988L22.939 18.0008Z"/>
</mask>
<path d="M22.939 18.0008L15.8948 22.0136L15.8948 13.988L22.939 18.0008Z" fill="white"/>
<path d="M22.939 18.0008L25.4139 22.3453L33.0403 18.0008L25.4139 13.6563L22.939 18.0008ZM15.8948 22.0136L10.8948 22.0136L10.8948 30.6163L18.3698 26.3581L15.8948 22.0136ZM15.8948 13.988L18.3698 9.64346L10.8948 5.38525L10.8948 13.988L15.8948 13.988ZM20.464 13.6563L13.4199 17.6691L18.3698 26.3581L25.4139 22.3453L20.464 13.6563ZM20.8948 22.0136L20.8948 13.988L10.8948 13.988L10.8948 22.0136L20.8948 22.0136ZM13.4199 18.3325L20.464 22.3453L25.4139 13.6563L18.3698 9.64346L13.4199 18.3325Z" fill="white" mask="url(#path-2-inside-1_3990_14974)"/>
</svg>
