<svg width="22" height="24" viewBox="0 0 22 24" fill="none" xmlns="http://www.w3.org/2000/svg">
<path id="Vector" d="M1.51776 15.1604L2.00482 14.6844C2.16197 14.5307 2.25045 14.3224 2.25045 14.1052V9.55556C2.25045 4.83046 6.16937 1.00001 11.0036 1C15.8378 0.999988 19.7567 4.83044 19.7567 9.55556V14.1052C19.7567 14.3224 19.845 14.5307 20.0022 14.6844L20.4893 15.1605C20.6384 15.3063 20.7132 15.3792 20.7726 15.4601C20.885 15.613 20.9595 15.7893 20.9907 15.9751C21.0072 16.0734 21.0074 16.1765 21.0074 16.3827C21.0074 16.8539 21.0074 17.0895 20.9418 17.2796C20.817 17.6412 20.5266 17.925 20.1566 18.047C19.9621 18.1111 19.7207 18.1111 19.2386 18.1111H2.76821C2.28611 18.1111 2.04497 18.1111 1.85052 18.047C1.48056 17.925 1.19038 17.6412 1.06559 17.2796C1 17.0895 1 16.8539 1 16.3827C1 16.1765 1 16.0734 1.01651 15.9751C1.0477 15.7893 1.12211 15.613 1.23446 15.4601C1.29391 15.3792 1.36858 15.3062 1.51776 15.1604ZM14.7549 18.1111V19.3333C14.7549 21.3584 13.0754 23 11.0036 23C8.93178 23 7.25224 21.3584 7.25224 19.3333V18.1111H14.7549Z" stroke="black" stroke-width="2" stroke-linecap="round" stroke-linejoin="round"/>
</svg>
