<svg width="33" height="35" viewBox="0 0 33 35" fill="none" xmlns="http://www.w3.org/2000/svg">
<path d="M29.0125 18.2288L30.9375 20.2851L21.9588 29.8955L17.1875 24.7913L19.1125 22.7351L21.9588 25.7684L29.0125 18.2288ZM13.75 24.7913L17.875 29.1663H4.125V26.2497C4.125 23.0268 9.0475 20.4163 15.125 20.4163L17.7238 20.5768L13.75 24.7913ZM15.125 5.83301C16.5837 5.83301 17.9826 6.44759 19.0141 7.54155C20.0455 8.63551 20.625 10.1192 20.625 11.6663C20.625 13.2134 20.0455 14.6972 19.0141 15.7911C17.9826 16.8851 16.5837 17.4997 15.125 17.4997C13.6663 17.4997 12.2674 16.8851 11.2359 15.7911C10.2045 14.6972 9.625 13.2134 9.625 11.6663C9.625 10.1192 10.2045 8.63551 11.2359 7.54155C12.2674 6.44759 13.6663 5.83301 15.125 5.83301Z" fill="black"/>
</svg>
