<svg xmlns="http://www.w3.org/2000/svg" width="149" height="147" viewBox="0 0 149 147" fill="none">
  <mask id="mask0_4346_21830" style="mask-type:luminance" maskUnits="userSpaceOnUse" x="-1" y="-1" width="150" height="148">
    <path fill-rule="evenodd" clip-rule="evenodd" d="M74.0055 146.063C114.878 146.063 148.011 113.366 148.011 73.0316C148.011 32.6974 114.878 0 74.0055 0C33.1334 0 0 32.6974 0 73.0316C0 113.366 33.1334 146.063 74.0055 146.063Z" fill="white" stroke="white"/>
  </mask>
  <g mask="url(#mask0_4346_21830)">
    <path fill-rule="evenodd" clip-rule="evenodd" d="M74.0055 146.063C114.878 146.063 148.011 113.366 148.011 73.0316C148.011 32.6974 114.878 0 74.0055 0C33.1334 0 0 32.6974 0 73.0316C0 113.366 33.1334 146.063 74.0055 146.063Z" fill="white"/>
    <rect x="1" y="1" width="146.011" height="144.063" rx="72.0316" fill="white" stroke="url(#paint0_linear_4346_21830)" stroke-width="2"/>
    <path fill-rule="evenodd" clip-rule="evenodd" d="M76.8695 55H71.1227V69.3906L58 69.3906V75.6924H71.1227V90.0869H76.8695V75.6924H89.9969V69.3906L76.8695 69.3906V55Z" fill="url(#paint1_linear_4346_21830)"/>
  </g>
  <defs>
    <linearGradient id="paint0_linear_4346_21830" x1="-11.8409" y1="-9.03519e-07" x2="209.798" y2="117.689" gradientUnits="userSpaceOnUse">
      <stop stop-color="#FF2C15"/>
      <stop offset="0.824926" stop-color="#FA931A"/>
    </linearGradient>
    <linearGradient id="paint1_linear_4346_21830" x1="92.9211" y1="43.4398" x2="47.158" y2="56.3541" gradientUnits="userSpaceOnUse">
      <stop stop-color="#FF0000"/>
      <stop offset="1" stop-color="#FFD466"/>
    </linearGradient>
  </defs>
</svg>