<svg xmlns="http://www.w3.org/2000/svg" width="34" height="34" viewBox="0 0 34 34" fill="none">
  <path d="M17 17L17 23M17 23L20 21M17 23L14 21M24.0002 14H21.2002C20.0801 14 19.5196 14 19.0918 13.782C18.7155 13.5902 18.4097 13.2843 18.218 12.908C18 12.4801 18 11.9201 18 10.8V8M24 22.8V14.3255C24 13.8363 23.9996 13.5917 23.9443 13.3615C23.8953 13.1574 23.8147 12.9624 23.705 12.7834C23.5814 12.5816 23.4089 12.4086 23.063 12.0627L19.9375 8.93726C19.5916 8.59135 19.4186 8.41842 19.2168 8.29474C19.0379 8.18508 18.8428 8.10425 18.6388 8.05526C18.4086 8 18.1639 8 17.6747 8H13.2002C12.0801 8 11.5196 8 11.0918 8.21799C10.7155 8.40973 10.4097 8.71572 10.218 9.09204C10 9.51986 10 10.0799 10 11.2V22.8C10 23.9201 10 24.4801 10.218 24.908C10.4097 25.2843 10.7155 25.5902 11.0918 25.782C11.5196 26 12.0801 26 13.2002 26H20.8002C21.9203 26 22.48 26 22.9078 25.782C23.2841 25.5902 23.5905 25.2843 23.7822 24.908C24.0002 24.4801 24 23.9201 24 22.8Z" stroke="white" stroke-linecap="round" stroke-linejoin="round"/>
  <rect x="0.5" y="0.5" width="33" height="33" rx="4.5" stroke="#D9E0E4"/>
</svg>