<svg xmlns="http://www.w3.org/2000/svg" width="89" height="73" viewBox="0 0 89 73" fill="none">
  <path style="mix-blend-mode:screen" d="M44.9926 71.9369C69.1199 71.8134 88.596 55.842 88.4936 36.2638C88.3912 16.6856 68.7492 0.914552 44.6219 1.03807C20.4946 1.16159 1.01853 17.1329 1.12089 36.7111C1.22325 56.2893 20.8653 72.0604 44.9926 71.9369Z" fill="url(#paint0_radial_3211_13324)"/>
  <path d="M44.9288 60.1155C58.7152 60.0449 69.8401 50.2172 69.7771 38.1648C69.7141 26.1124 58.487 16.3993 44.7006 16.4699C30.9143 16.5404 19.7894 26.368 19.8524 38.4204C19.9154 50.4728 31.1425 60.1861 44.9288 60.1155Z" fill="#333333"/>
  <path d="M44.9124 56.9814C58.6988 56.9108 69.8274 47.7848 69.7689 36.5979C69.7104 25.4109 58.487 16.3993 44.7006 16.4699C30.9143 16.5404 19.7857 25.6665 19.8442 36.8535C19.9027 48.0404 31.1261 57.052 44.9124 56.9814Z" fill="white"/>
  <path d="M44.8924 53.1255C54.6583 53.0755 62.5392 46.1517 62.4948 37.6608C62.4504 29.1699 54.4975 22.3273 44.7316 22.3772C34.9657 22.4272 27.0848 29.351 27.1292 37.8419C27.1736 46.3328 35.1264 53.1755 44.8924 53.1255Z" fill="#333333"/>
  <path d="M44.8816 51.0747C54.6476 51.0247 62.5308 44.56 62.4894 36.6355C62.448 28.7109 54.4975 22.3273 44.7316 22.3772C34.9657 22.4272 27.0824 28.8919 27.1238 36.8165C27.1653 44.7411 35.1157 51.1247 44.8816 51.0747Z" fill="#F0EA8F"/>
  <path d="M44.8406 42.87C50.4191 42.8414 54.9221 39.1488 54.8984 34.6221C54.8748 30.0955 50.3334 26.449 44.7549 26.4776C39.1765 26.5061 34.6735 30.1989 34.6971 34.7255C34.7208 39.2522 39.2622 42.8986 44.8406 42.87Z" fill="white"/>
  <defs>
    <radialGradient id="paint0_radial_3211_13324" cx="0" cy="0" r="1" gradientUnits="userSpaceOnUse" gradientTransform="translate(44.8161 36.4874) rotate(-0.293318) scale(43.6869 35.4499)">
      <stop stop-color="#FCEE21"/>
      <stop offset="1"/>
    </radialGradient>
  </defs>
</svg>