<svg xmlns="http://www.w3.org/2000/svg" width="34" height="34" viewBox="0 0 34 34" fill="none">
  <path d="M9 11L17.2286 17L24.9999 11M26 13.2V20.8C26 21.9201 26.0002 22.4802 25.7822 22.908C25.5905 23.2844 25.2841 23.5902 24.9078 23.782C24.48 24 23.9203 24 22.8002 24H11.2002C10.0801 24 9.51962 24 9.0918 23.782C8.71547 23.5902 8.40973 23.2844 8.21799 22.908C8 22.4802 8 21.9201 8 20.8V13.2C8 12.0798 8 11.5199 8.21799 11.092C8.40973 10.7157 8.71547 10.4097 9.0918 10.218C9.51962 10 10.0801 10 11.2002 10H22.8002C23.9203 10 24.48 10 24.9078 10.218C25.2841 10.4097 25.5905 10.7157 25.7822 11.092C26.0002 11.5199 26 12.0798 26 13.2Z" stroke="white" stroke-linecap="round" stroke-linejoin="round"/>
  <rect x="0.5" y="0.5" width="33" height="33" rx="4.5" stroke="#D9E0E4"/>
</svg>