<svg width="28" height="28" viewBox="0 0 28 28" fill="none" xmlns="http://www.w3.org/2000/svg">
<g clip-path="url(#clip0_3921_10012)">
<path d="M28 20.8945C28 21.0479 27.9952 21.3788 27.9856 21.6377C27.9616 22.2658 27.9137 23.076 27.837 23.4452C27.7219 24.0014 27.5541 24.524 27.3288 24.9603C27.0651 25.4781 26.7295 25.9384 26.3267 26.3363C25.9288 26.7342 25.4685 27.0699 24.9507 27.3336C24.5144 27.5589 23.987 27.7267 23.426 27.8418C23.0616 27.9137 22.2562 27.9664 21.6329 27.9856C21.374 27.9952 21.0432 28 20.8897 28H7.10069C6.94726 28 6.61644 27.9952 6.35753 27.9856C5.72945 27.9616 4.91918 27.9137 4.55 27.837C3.99384 27.7219 3.47123 27.5541 3.03493 27.3288C2.51712 27.0651 2.05685 26.7295 1.6589 26.3267C1.26096 25.9288 0.925342 25.4685 0.661644 24.9507C0.436301 24.5144 0.268493 23.987 0.153425 23.426C0.0815068 23.0616 0.0287671 22.2562 0.00958904 21.6329C0.00479452 21.3788 0 21.0479 0 20.8945V7.10548C0 6.95205 0.00479452 6.62123 0.0143836 6.36233C0.0383562 5.73425 0.0863014 4.92397 0.163014 4.55479C0.278082 3.99863 0.44589 3.47603 0.671233 3.03973C0.934932 2.52192 1.27055 2.06164 1.66849 1.6637C2.06644 1.26575 2.52671 0.930137 3.04452 0.666438C3.48082 0.441096 4.00822 0.273288 4.56918 0.158219C4.93356 0.0863014 5.73904 0.0335616 6.36233 0.0143836C6.62123 0.00479452 6.95205 0 7.10548 0H20.8945C21.0479 0 21.3788 0.00479452 21.6377 0.0143836C22.2658 0.0383562 23.076 0.0863014 23.4452 0.163014C24.0014 0.278082 24.524 0.44589 24.9603 0.671233C25.4781 0.934932 25.9384 1.27055 26.3363 1.67329C26.7342 2.07123 27.0699 2.53151 27.3336 3.04931C27.5589 3.48562 27.7267 4.01301 27.8418 4.57397C27.9137 4.93836 27.9664 5.74384 27.9856 6.36712C27.9952 6.62603 28 6.95685 28 7.11027V20.8945Z" fill="url(#paint0_linear_3921_10012)"/>
<path fill-rule="evenodd" clip-rule="evenodd" d="M21.3643 6.70298C19.4801 4.81873 16.9725 3.77832 14.302 3.77832C8.79787 3.77832 4.32458 8.2564 4.31979 13.7557C4.31979 15.5153 4.78006 17.2317 5.65266 18.742L4.23828 23.9153L9.53143 22.5297C10.989 23.3256 12.6287 23.7427 14.302 23.7427H14.3068C19.8061 23.7427 24.2842 19.2646 24.289 13.7653C24.289 11.0948 23.2486 8.58722 21.3643 6.70298ZM14.3068 22.055C12.8157 22.055 11.3533 21.6523 10.0828 20.8996L9.78075 20.7222L6.64034 21.5468L7.47938 18.4879L7.2828 18.1763C6.45335 16.8578 6.01225 15.3283 6.01225 13.7605C6.01225 9.18654 9.7376 5.46599 14.3116 5.46599C16.5266 5.46599 18.6123 6.32901 20.1753 7.89681C21.7431 9.46462 22.6061 11.5502 22.6013 13.7653C22.5965 18.3345 18.876 22.055 14.3068 22.055ZM18.8568 15.8461C18.6075 15.7215 17.3801 15.1174 17.1547 15.0359C16.9246 14.9543 16.7616 14.9112 16.5938 15.1605C16.426 15.4098 15.9513 15.9708 15.8027 16.1386C15.6588 16.3064 15.5102 16.3256 15.2609 16.2009C15.0116 16.0763 14.2061 15.8126 13.2568 14.9639C12.5136 14.3023 12.015 13.4872 11.8712 13.2379C11.7273 12.9886 11.8568 12.8543 11.9814 12.7297C12.0917 12.6194 12.2307 12.4372 12.3554 12.2934C12.4801 12.1496 12.5232 12.0441 12.6047 11.8763C12.6862 11.7085 12.6479 11.5646 12.5855 11.44C12.5232 11.3153 12.0246 10.0879 11.8184 9.58928C11.617 9.10503 11.4109 9.16736 11.2575 9.16257C11.1136 9.15298 10.9458 9.15298 10.778 9.15298C10.6102 9.15298 10.3417 9.21531 10.1116 9.46462C9.88143 9.71394 9.23897 10.318 9.23897 11.5454C9.23897 12.7728 10.1307 13.9571 10.2554 14.1249C10.3801 14.2927 12.015 16.8098 14.5177 17.8886C15.1123 18.1475 15.5773 18.3009 15.9417 18.416C16.541 18.6078 17.0828 18.579 17.5143 18.5167C17.9938 18.4448 18.991 17.9126 19.1972 17.3324C19.4033 16.7523 19.4033 16.2489 19.341 16.1482C19.2691 16.0331 19.1061 15.9708 18.8568 15.8461Z" fill="white"/>
</g>
<defs>
<linearGradient id="paint0_linear_3921_10012" x1="14.0011" y1="28.0021" x2="14.0011" y2="0" gradientUnits="userSpaceOnUse">
<stop stop-color="#25CF43"/>
<stop offset="1" stop-color="#61FD7D"/>
</linearGradient>
<clipPath id="clip0_3921_10012">
<rect width="28" height="28" fill="white"/>
</clipPath>
</defs>
</svg>
