<svg width="43" height="39" viewBox="0 0 43 39" fill="none" xmlns="http://www.w3.org/2000/svg">
<path d="M26.875 11H26.8963M21.5625 35.375H7.75C6.05924 35.375 4.43774 34.7824 3.24219 33.7275C2.04665 32.6726 1.375 31.2418 1.375 29.75V7.25C1.375 5.75816 2.04665 4.32742 3.24219 3.27252C4.43774 2.21763 6.05924 1.625 7.75 1.625H33.25C34.9408 1.625 36.5623 2.21763 37.7578 3.27252C38.9534 4.32742 39.625 5.75816 39.625 7.25V19.4375" stroke="black" stroke-width="2" stroke-linecap="round" stroke-linejoin="round"/>
<path d="M1.375 25.9999L12 16.6249C13.972 14.9505 16.403 14.9505 18.375 16.6249L25.8125 23.1874" stroke="black" stroke-width="2" stroke-linecap="round" stroke-linejoin="round"/>
<path d="M24.75 22.25L26.875 20.375C28.3179 19.1507 30.0051 18.8207 31.5798 19.3888M35.375 37.25V26M35.375 26L41.75 31.625M35.375 26L29 31.625" stroke="black" stroke-width="2" stroke-linecap="round" stroke-linejoin="round"/>
</svg>
