<svg width="39" height="36" viewBox="0 0 39 36" fill="none" xmlns="http://www.w3.org/2000/svg">
<g clip-path="url(#clip0_477_5138)">
<path d="M38.0523 26.8644C38.0523 27.0616 38.0458 27.487 38.0328 27.8199C38.0002 28.6274 37.9351 29.6692 37.8309 30.1438C37.6747 30.8589 37.4468 31.5308 37.1408 32.0918C36.7828 32.7575 36.327 33.3493 35.7802 33.861C35.2398 34.3726 34.6148 34.8041 33.9117 35.1431C33.3192 35.4329 32.6031 35.6486 31.8413 35.7966C31.3465 35.889 30.2528 35.9568 29.4064 35.9815C29.0549 35.9938 28.6056 36 28.3973 36H9.67323C9.4649 36 9.01568 35.9938 8.66411 35.9815C7.81124 35.9507 6.71098 35.889 6.20967 35.7904C5.45446 35.6425 4.74482 35.4267 4.15237 35.137C3.44924 34.7979 2.82423 34.3664 2.28387 33.8486C1.7435 33.337 1.28777 32.7452 0.929693 32.0795C0.623701 31.5185 0.395835 30.8404 0.239585 30.1192C0.141928 29.6507 0.0703127 28.6151 0.0442709 27.8137C0.0377605 27.487 0.03125 27.0616 0.03125 26.8644V9.13562C0.03125 8.93836 0.0377605 8.51301 0.0507814 8.18014C0.0833336 7.3726 0.148438 6.33082 0.252605 5.85616C0.408856 5.1411 0.636722 4.46918 0.942714 3.90822C1.30079 3.24247 1.75652 2.65068 2.29689 2.13904C2.83726 1.6274 3.46226 1.19589 4.16539 0.856849C4.75784 0.567123 5.47399 0.35137 6.23571 0.203425C6.73051 0.110959 7.82426 0.0431507 8.67062 0.0184932C9.02219 0.00616438 9.47141 0 9.67974 0H28.4038C28.6121 0 29.0614 0.00616438 29.4129 0.0184932C30.2658 0.0493151 31.3661 0.110959 31.8674 0.209589C32.6226 0.357534 33.3322 0.573288 33.9247 0.863014C34.6278 1.20205 35.2528 1.63356 35.7932 2.15137C36.3335 2.66301 36.7893 3.25479 37.1473 3.92055C37.4533 4.48151 37.6812 5.15959 37.8375 5.88082C37.9351 6.34932 38.0067 7.38493 38.0328 8.1863C38.0458 8.51918 38.0523 8.94452 38.0523 9.14178V26.8644Z" fill="url(#paint0_linear_477_5138)"/>
<path fill-rule="evenodd" clip-rule="evenodd" d="M29.0425 8.6177C26.4838 6.19509 23.0789 4.85742 19.4526 4.85742C11.9786 4.85742 5.9043 10.615 5.89779 17.6855C5.89779 19.9478 6.52279 22.1547 7.70769 24.0965L5.78711 30.7478L12.9747 28.9663C14.9538 29.9896 17.1804 30.5259 19.4526 30.5259H19.4591C26.9266 30.5259 33.0073 24.7684 33.0138 17.6978C33.0138 14.2643 31.6011 11.0403 29.0425 8.6177ZM19.4591 28.3561C17.4343 28.3561 15.4486 27.8382 13.7234 26.8704L13.3132 26.6424L9.04885 27.7026L10.1882 23.7698L9.92125 23.3691C8.79494 21.6739 8.19598 19.7074 8.19598 17.6917C8.19598 11.8108 13.2546 7.02728 19.4656 7.02728C22.4734 7.02728 25.3055 8.13687 27.4279 10.1526C29.5568 12.1684 30.7287 14.8499 30.7221 17.6978C30.7156 23.5725 25.6635 28.3561 19.4591 28.3561ZM25.6375 20.3732C25.2989 20.2129 23.6323 19.4362 23.3263 19.3314C23.0138 19.2266 22.7924 19.1711 22.5646 19.4917C22.3367 19.8122 21.6922 20.5335 21.4903 20.7492C21.295 20.965 21.0932 20.9896 20.7546 20.8293C20.4161 20.6691 19.3223 20.33 18.0333 19.2389C17.0242 18.3882 16.3471 17.3403 16.1518 17.0198C15.9564 16.6992 16.1322 16.5266 16.3015 16.3663C16.4512 16.2245 16.64 15.9903 16.8093 15.8054C16.9786 15.6204 17.0372 15.4848 17.1479 15.2691C17.2585 15.0533 17.2064 14.8684 17.1218 14.7081C17.0372 14.5478 16.3601 12.9698 16.0801 12.3287C15.8067 11.7061 15.5267 11.7862 15.3184 11.78C15.1231 11.7677 14.8952 11.7677 14.6674 11.7677C14.4395 11.7677 14.0749 11.8478 13.7624 12.1684C13.4499 12.4889 12.5775 13.2656 12.5775 14.8437C12.5775 16.4218 13.7885 17.9444 13.9577 18.1602C14.127 18.3759 16.3471 21.6122 19.7455 22.9992C20.5528 23.3321 21.1843 23.5293 21.6791 23.6773C22.4929 23.9239 23.2286 23.8869 23.8146 23.8067C24.4656 23.7143 25.8198 23.03 26.0997 22.2841C26.3797 21.5382 26.3797 20.891 26.295 20.7615C26.1974 20.6136 25.976 20.5335 25.6375 20.3732Z" fill="white"/>
</g>
<defs>
<linearGradient id="paint0_linear_477_5138" x1="19.0432" y1="36.0028" x2="19.0432" y2="0" gradientUnits="userSpaceOnUse">
<stop stop-color="#25CF43"/>
<stop offset="1" stop-color="#61FD7D"/>
</linearGradient>
<clipPath id="clip0_477_5138">
<rect width="38.0211" height="36" fill="white" transform="translate(0.03125)"/>
</clipPath>
</defs>
</svg>
