<svg width="23" height="24" viewBox="0 0 23 24" fill="none" xmlns="http://www.w3.org/2000/svg">
<path d="M1.53226 15.1604L2.01931 14.6844C2.17647 14.5307 2.26494 14.3224 2.26494 14.1052V9.55556C2.26494 4.83046 6.18387 1.00001 11.0181 1C15.8523 0.999988 19.7712 4.83045 19.7712 9.55556V14.1052C19.7712 14.3224 19.8595 14.5307 20.0167 14.6844L20.5038 15.1605C20.6529 15.3063 20.7277 15.3792 20.7871 15.4601C20.8995 15.613 20.974 15.7893 21.0052 15.9751C21.0217 16.0734 21.0219 16.1765 21.0219 16.3827C21.0219 16.8539 21.0219 17.0895 20.9563 17.2796C20.8315 17.6412 20.541 17.925 20.1711 18.047C19.9766 18.1111 19.7352 18.1111 19.2531 18.1111H2.78271C2.3006 18.1111 2.05947 18.1111 1.86502 18.047C1.49505 17.925 1.20488 17.6412 1.08008 17.2796C1.0145 17.0895 1.0145 16.8539 1.0145 16.3827C1.0145 16.1765 1.0145 16.0734 1.031 15.9751C1.0622 15.7893 1.13661 15.613 1.24895 15.4601C1.3084 15.3792 1.38308 15.3062 1.53226 15.1604ZM14.7694 18.1111V19.3333C14.7694 21.3584 13.0899 23 11.0181 23C8.94627 23 7.26674 21.3584 7.26674 19.3333V18.1111H14.7694Z" stroke="white" stroke-width="2" stroke-linecap="round" stroke-linejoin="round"/>
</svg>
