<svg width="36" height="42" viewBox="0 0 36 42" fill="none" xmlns="http://www.w3.org/2000/svg">
<path d="M35.1554 33.3001C34.4677 28.9784 33.0826 24.8233 31.0643 21.0271C29.0837 17.2117 26.5078 13.8008 23.452 10.9473L23.2484 10.7701C23.2079 10.728 23.1818 10.6722 23.1744 10.6118C23.167 10.5513 23.1788 10.49 23.2077 10.4378L26.2404 4.7001C26.4405 4.32291 26.5458 3.89505 26.5458 3.45951C26.5458 3.02397 26.4405 2.59611 26.2404 2.21892C26.0423 1.8415 25.7543 1.52916 25.4069 1.31475C25.0595 1.10034 24.6654 0.991777 24.2661 1.00049H11.9724C11.5734 0.993658 11.18 1.10301 10.8329 1.31724C10.4858 1.53146 10.1976 1.84276 9.99809 2.21892C9.79801 2.59611 9.69268 3.02397 9.69268 3.45951C9.69268 3.89505 9.79801 4.32291 9.99809 4.7001L13.0512 10.4378C13.0766 10.4927 13.0844 10.5552 13.0733 10.6154C13.0622 10.6757 13.0329 10.7301 12.9901 10.7701L12.8069 10.9473C6.65192 16.7077 2.51108 24.6027 1.08312 33.3001C1.03663 33.6525 1.00945 34.0076 1.00171 34.3635C1.00171 36.0086 1.60214 37.5863 2.67093 38.7496C3.73971 39.9129 5.18929 40.5664 6.70077 40.5664H29.5581C30.384 40.5671 31.1999 40.3711 31.9489 39.9922C32.6978 39.6134 33.3615 39.0608 33.8935 38.3732C34.4281 37.6771 34.8178 36.8631 35.0356 35.9873C35.2535 35.1115 35.2943 34.1947 35.1554 33.3001ZM11.7689 3.59243C11.7424 3.55408 11.7282 3.50744 11.7282 3.45951C11.7282 3.41158 11.7424 3.36494 11.7689 3.32659C11.7899 3.28932 11.8202 3.2592 11.8561 3.23962C11.8921 3.22005 11.9324 3.21181 11.9724 3.21582H24.2661C24.3086 3.21538 24.3506 3.22507 24.3893 3.2442C24.428 3.26334 24.4624 3.29146 24.49 3.32659C24.5211 3.41198 24.5211 3.50704 24.49 3.59243L21.2537 9.79537H14.9848L11.7689 3.59243ZM22.129 12.631C27.9058 18.0698 31.7987 25.4964 33.1607 33.6767C33.2497 34.2513 33.2229 34.8401 33.0824 35.4023C32.9418 35.9646 32.6907 36.4869 32.3466 36.9333C32.0053 37.3772 31.5788 37.7342 31.097 37.9792C30.6152 38.2242 30.0899 38.3511 29.5581 38.3511H6.70077C5.72993 38.3481 4.79962 37.9271 4.11312 37.1799C3.42663 36.4327 3.03978 35.4201 3.03709 34.3635C3.03723 34.1329 3.05768 33.903 3.09815 33.6767C4.43645 25.4871 8.3336 18.0523 14.1299 12.631L14.7812 12.0107H21.4573L22.129 12.631Z" fill="white" stroke="white" stroke-width="1.5"/>
<path d="M11.9958 31.9336L13.6951 24.4688H14.6736L15.0603 25.3945L13.2498 33H12.1775L11.9958 31.9336ZM11.3337 24.4688L12.7576 31.9688L12.5115 33H11.2927L9.44116 24.4688H11.3337ZM16.2732 31.9277L17.6794 24.4688H19.5662L17.7146 33H16.5076L16.2732 31.9277ZM15.3123 24.4688L17.0349 31.9746L16.8357 33H15.7693L13.9294 25.3887L14.3337 24.4688H15.3123ZM24.8689 30.75C24.8689 30.6055 24.8474 30.4766 24.8044 30.3633C24.7615 30.2461 24.6833 30.1387 24.5701 30.041C24.4568 29.9434 24.2966 29.8457 24.0896 29.748C23.8826 29.6465 23.6111 29.543 23.2751 29.4375C22.8923 29.3125 22.5271 29.1719 22.1794 29.0156C21.8357 28.8555 21.5291 28.6699 21.2595 28.459C20.99 28.248 20.7771 28.002 20.6208 27.7207C20.4685 27.4395 20.3923 27.1113 20.3923 26.7363C20.3923 26.373 20.4724 26.0449 20.6326 25.752C20.7927 25.459 21.0173 25.209 21.3064 25.002C21.5955 24.791 21.9353 24.6309 22.3259 24.5215C22.7166 24.4082 23.1462 24.3516 23.615 24.3516C24.24 24.3516 24.7888 24.4629 25.2615 24.6855C25.738 24.9043 26.1091 25.2129 26.3748 25.6113C26.6404 26.0059 26.7732 26.4648 26.7732 26.9883H24.8748C24.8748 26.7578 24.8259 26.5547 24.7283 26.3789C24.6345 26.1992 24.49 26.0586 24.2947 25.957C24.1033 25.8555 23.863 25.8047 23.574 25.8047C23.2927 25.8047 23.0564 25.8477 22.865 25.9336C22.6775 26.0156 22.5349 26.1289 22.4373 26.2734C22.3435 26.418 22.2966 26.5762 22.2966 26.748C22.2966 26.8848 22.3318 27.0098 22.4021 27.123C22.4763 27.2324 22.5818 27.3359 22.7185 27.4336C22.8591 27.5273 23.031 27.6172 23.2341 27.7031C23.4373 27.7891 23.6697 27.8711 23.9314 27.9492C24.3884 28.0938 24.7927 28.2539 25.1443 28.4297C25.4998 28.6055 25.7986 28.8047 26.0408 29.0273C26.283 29.25 26.4646 29.502 26.5857 29.7832C26.7107 30.0645 26.7732 30.3828 26.7732 30.7383C26.7732 31.1172 26.699 31.4531 26.5505 31.7461C26.406 32.0391 26.1951 32.2891 25.9177 32.4961C25.6443 32.6992 25.3162 32.8535 24.9333 32.959C24.5505 33.0645 24.1228 33.1172 23.6501 33.1172C23.2205 33.1172 22.7966 33.0625 22.3787 32.9531C21.9607 32.8398 21.5818 32.668 21.2419 32.4375C20.906 32.207 20.6365 31.9141 20.4333 31.5586C20.2341 31.1992 20.1345 30.7734 20.1345 30.2812H22.0447C22.0447 30.5391 22.0818 30.7578 22.156 30.9375C22.2302 31.1133 22.3357 31.2559 22.4724 31.3652C22.613 31.4746 22.783 31.5527 22.9822 31.5996C23.1814 31.6465 23.4041 31.6699 23.6501 31.6699C23.9353 31.6699 24.1658 31.6309 24.3416 31.5527C24.5212 31.4707 24.6541 31.3594 24.74 31.2188C24.8259 31.0781 24.8689 30.9219 24.8689 30.75Z" fill="white"/>
</svg>
