<svg xmlns="http://www.w3.org/2000/svg" width="158" height="28" viewBox="0 0 158 28" fill="none">
  <path d="M13.5743 0L18.1222 7.24239L26.4842 9.28695L20.933 15.8076L21.5531 24.3136L13.5743 21.1011L5.59553 24.3136L6.21564 15.8076L0.664373 9.28695L9.0264 7.24239L13.5743 0Z" fill="url(#paint0_linear_2510_98611)"/>
  <path d="M46.0626 0L50.6105 7.24239L58.9725 9.28695L53.4212 15.8076L54.0414 24.3136L46.0626 21.1011L38.0838 24.3136L38.7039 15.8076L33.1527 9.28695L41.5147 7.24239L46.0626 0Z" fill="url(#paint1_linear_2510_98611)"/>
  <path d="M78.5489 0L83.0968 7.24239L91.4588 9.28695L85.9076 15.8076L86.5277 24.3136L78.5489 21.1011L70.5701 24.3136L71.1903 15.8076L65.639 9.28695L74.001 7.24239L78.5489 0Z" fill="url(#paint2_linear_2510_98611)"/>
  <path d="M111.037 2.05935L115.162 8.62743L115.269 8.79908L115.466 8.84722L123.041 10.6992L118.015 16.6026L117.882 16.7586L117.897 16.963L118.459 24.6694L111.224 21.7564L111.037 21.6812L110.85 21.7564L103.615 24.6694L104.177 16.963L104.192 16.7586L104.059 16.6026L99.0335 10.6992L106.608 8.84722L106.805 8.79908L106.913 8.62743L111.037 2.05935Z" stroke="black"/>
  <path d="M143.52 2.05935L147.644 8.62743L147.752 8.79908L147.949 8.84722L155.523 10.6992L150.498 16.6026L150.365 16.7586L150.38 16.963L150.941 24.6694L143.706 21.7564L143.52 21.6812L143.333 21.7564L136.098 24.6694L136.66 16.963L136.675 16.7586L136.542 16.6026L131.516 10.6992L139.09 8.84722L139.287 8.79908L139.395 8.62743L143.52 2.05935Z" stroke="black"/>
  <defs>
    <linearGradient id="paint0_linear_2510_98611" x1="-2.17189" y1="-1.66277e-07" x2="38.541" y2="21.5467" gradientUnits="userSpaceOnUse">
      <stop stop-color="#FF2C15"/>
      <stop offset="0.824926" stop-color="#FA931A"/>
    </linearGradient>
    <linearGradient id="paint1_linear_2510_98611" x1="30.3164" y1="-1.66277e-07" x2="71.0293" y2="21.5467" gradientUnits="userSpaceOnUse">
      <stop stop-color="#FF2C15"/>
      <stop offset="0.824926" stop-color="#FA931A"/>
    </linearGradient>
    <linearGradient id="paint2_linear_2510_98611" x1="62.8027" y1="-1.66277e-07" x2="103.516" y2="21.5467" gradientUnits="userSpaceOnUse">
      <stop stop-color="#FF2C15"/>
      <stop offset="0.824926" stop-color="#FA931A"/>
    </linearGradient>
  </defs>
</svg>